%
M48
M72
T01C0.01575
T02C0.02362
T03C0.03150
T04C0.03200
T05C0.03600
T06C0.03937
T07C0.04000
T08C0.04700
T09C0.07087
T10C0.07100
T11C0.07874
T12C0.08661
T13C0.12598
%
T01
X16600Y16600
X114100Y16600
X154100Y54100
X175350Y50350
X181600Y16600
X246600Y66600
X239100Y84100
X246600Y90350
X234100Y109100
X229100Y116600
X241600Y116600
X241600Y136600
X229100Y136600
X229100Y157850
X241600Y157850
X241600Y177850
X229100Y177850
X229100Y194100
X229100Y206600
X241600Y206600
X241600Y194100
X249100Y227850
X221600Y275350
X204100Y274100
X220350Y297850
X206600Y321600
X224100Y326600
X239100Y362850
X260350Y319100
X287850Y319100
X281600Y289100
X266600Y289100
X291600Y362850
X174100Y214100
X167850Y219100
X161974Y209474
X151600Y204100
X151600Y199100
X156600Y195350
X161600Y191600
X141600Y191600
X142850Y200350
X129100Y189100
X111600Y211600
X99100Y221600
X99100Y249100
X99100Y271600
X136600Y235350
X142850Y226600
X147850Y235350
X142850Y247850
X151600Y249100
X149100Y259100
X134700Y217200
X19100Y116600
X16600Y202850
X206600Y206600
X206600Y194100
X209100Y154100
X177850Y146600
X161600Y141600
X156600Y146600
X151600Y146600
X141600Y141600
X145350Y165350
X164100Y165350
X141600Y112850
X141600Y82850
X161600Y82850
X229100Y95350
X265350Y97850
X276600Y116600
X276600Y16600
T02
X61600Y284100
X49100Y274100
T03
X134730Y265931
X144730Y265931
X154730Y265931
X164730Y265931
T04
X56600Y204100
X66600Y204100
X76600Y204100
X76600Y234100
X66600Y234100
X56600Y234100
X76600Y284100
X76600Y324100
T05
X91600Y291600
X91600Y321600
T06
X139100Y16600
X149100Y16600
X159100Y16600
X180734Y80340
X200419Y80340
X200419Y137427
X190576Y137427
X180734Y137427
X251600Y349100
X261600Y349100
X271600Y349100
X281600Y349100
X281600Y54100
X281600Y64100
T07
X101600Y185350
X101600Y195350
X101600Y205350
X111600Y229100
X111600Y239100
X111600Y249100
X121600Y249100
X121600Y239100
X121600Y229100
X112100Y309100
X19100Y284100
X19100Y274100
X19100Y264100
X171100Y309100
X274100Y249100
X274100Y229100
T08
X46918Y43929
X66518Y43929
X66518Y93129
X46918Y93129
X46918Y122669
X46918Y171869
X66518Y171869
X66518Y122669
T09
X31600Y246935
X31600Y301265
X24257Y344100
X43943Y344100
X116757Y344100
X136443Y344100
X156128Y344100
X175813Y344100
T10
X39018Y68529
X74418Y68529
X74418Y147269
X39018Y147269
T11
X101738Y169474
X101738Y263962
X196226Y263962
X196226Y169474
T12
X166561Y107899
X214592Y107899
T13
X80340Y17348
X80340Y351994
X218135Y351994
X218135Y17348
M30
