G75*
%MOIN*%
%OFA0B0*%
%FSLAX25Y25*%
%IPPOS*%
%LPD*%
%AMOC8*
5,1,8,0,0,1.08239X$1,22.5*
%
%ADD10C,0.00000*%
%ADD11C,0.00200*%
%ADD12C,0.00300*%
%ADD13C,0.01600*%
%ADD14C,0.00600*%
%ADD15R,0.09000X0.02500*%
%ADD16C,0.00800*%
%ADD17R,0.09646X0.02657*%
%ADD18R,0.02657X0.09646*%
%ADD19C,0.01000*%
%ADD20C,0.00500*%
%ADD21C,0.02000*%
%ADD22R,0.03000X0.42000*%
%ADD23R,0.02000X0.07500*%
%ADD24R,0.02000X0.03000*%
%ADD25C,0.00400*%
D10*
X0001600Y0001600D02*
X0001600Y0367742D01*
X0296876Y0367742D01*
X0296876Y0001600D01*
X0001600Y0001600D01*
X0035468Y0068529D02*
X0035470Y0068648D01*
X0035476Y0068766D01*
X0035486Y0068884D01*
X0035500Y0069002D01*
X0035517Y0069119D01*
X0035539Y0069236D01*
X0035565Y0069352D01*
X0035594Y0069467D01*
X0035627Y0069581D01*
X0035664Y0069693D01*
X0035705Y0069805D01*
X0035750Y0069915D01*
X0035798Y0070023D01*
X0035850Y0070130D01*
X0035905Y0070235D01*
X0035964Y0070338D01*
X0036026Y0070439D01*
X0036091Y0070538D01*
X0036160Y0070635D01*
X0036232Y0070729D01*
X0036307Y0070821D01*
X0036385Y0070910D01*
X0036466Y0070997D01*
X0036550Y0071081D01*
X0036637Y0071162D01*
X0036726Y0071240D01*
X0036818Y0071315D01*
X0036912Y0071387D01*
X0037009Y0071456D01*
X0037108Y0071521D01*
X0037209Y0071583D01*
X0037312Y0071642D01*
X0037417Y0071697D01*
X0037524Y0071749D01*
X0037632Y0071797D01*
X0037742Y0071842D01*
X0037854Y0071883D01*
X0037966Y0071920D01*
X0038080Y0071953D01*
X0038195Y0071982D01*
X0038311Y0072008D01*
X0038428Y0072030D01*
X0038545Y0072047D01*
X0038663Y0072061D01*
X0038781Y0072071D01*
X0038899Y0072077D01*
X0039018Y0072079D01*
X0039137Y0072077D01*
X0039255Y0072071D01*
X0039373Y0072061D01*
X0039491Y0072047D01*
X0039608Y0072030D01*
X0039725Y0072008D01*
X0039841Y0071982D01*
X0039956Y0071953D01*
X0040070Y0071920D01*
X0040182Y0071883D01*
X0040294Y0071842D01*
X0040404Y0071797D01*
X0040512Y0071749D01*
X0040619Y0071697D01*
X0040724Y0071642D01*
X0040827Y0071583D01*
X0040928Y0071521D01*
X0041027Y0071456D01*
X0041124Y0071387D01*
X0041218Y0071315D01*
X0041310Y0071240D01*
X0041399Y0071162D01*
X0041486Y0071081D01*
X0041570Y0070997D01*
X0041651Y0070910D01*
X0041729Y0070821D01*
X0041804Y0070729D01*
X0041876Y0070635D01*
X0041945Y0070538D01*
X0042010Y0070439D01*
X0042072Y0070338D01*
X0042131Y0070235D01*
X0042186Y0070130D01*
X0042238Y0070023D01*
X0042286Y0069915D01*
X0042331Y0069805D01*
X0042372Y0069693D01*
X0042409Y0069581D01*
X0042442Y0069467D01*
X0042471Y0069352D01*
X0042497Y0069236D01*
X0042519Y0069119D01*
X0042536Y0069002D01*
X0042550Y0068884D01*
X0042560Y0068766D01*
X0042566Y0068648D01*
X0042568Y0068529D01*
X0042566Y0068410D01*
X0042560Y0068292D01*
X0042550Y0068174D01*
X0042536Y0068056D01*
X0042519Y0067939D01*
X0042497Y0067822D01*
X0042471Y0067706D01*
X0042442Y0067591D01*
X0042409Y0067477D01*
X0042372Y0067365D01*
X0042331Y0067253D01*
X0042286Y0067143D01*
X0042238Y0067035D01*
X0042186Y0066928D01*
X0042131Y0066823D01*
X0042072Y0066720D01*
X0042010Y0066619D01*
X0041945Y0066520D01*
X0041876Y0066423D01*
X0041804Y0066329D01*
X0041729Y0066237D01*
X0041651Y0066148D01*
X0041570Y0066061D01*
X0041486Y0065977D01*
X0041399Y0065896D01*
X0041310Y0065818D01*
X0041218Y0065743D01*
X0041124Y0065671D01*
X0041027Y0065602D01*
X0040928Y0065537D01*
X0040827Y0065475D01*
X0040724Y0065416D01*
X0040619Y0065361D01*
X0040512Y0065309D01*
X0040404Y0065261D01*
X0040294Y0065216D01*
X0040182Y0065175D01*
X0040070Y0065138D01*
X0039956Y0065105D01*
X0039841Y0065076D01*
X0039725Y0065050D01*
X0039608Y0065028D01*
X0039491Y0065011D01*
X0039373Y0064997D01*
X0039255Y0064987D01*
X0039137Y0064981D01*
X0039018Y0064979D01*
X0038899Y0064981D01*
X0038781Y0064987D01*
X0038663Y0064997D01*
X0038545Y0065011D01*
X0038428Y0065028D01*
X0038311Y0065050D01*
X0038195Y0065076D01*
X0038080Y0065105D01*
X0037966Y0065138D01*
X0037854Y0065175D01*
X0037742Y0065216D01*
X0037632Y0065261D01*
X0037524Y0065309D01*
X0037417Y0065361D01*
X0037312Y0065416D01*
X0037209Y0065475D01*
X0037108Y0065537D01*
X0037009Y0065602D01*
X0036912Y0065671D01*
X0036818Y0065743D01*
X0036726Y0065818D01*
X0036637Y0065896D01*
X0036550Y0065977D01*
X0036466Y0066061D01*
X0036385Y0066148D01*
X0036307Y0066237D01*
X0036232Y0066329D01*
X0036160Y0066423D01*
X0036091Y0066520D01*
X0036026Y0066619D01*
X0035964Y0066720D01*
X0035905Y0066823D01*
X0035850Y0066928D01*
X0035798Y0067035D01*
X0035750Y0067143D01*
X0035705Y0067253D01*
X0035664Y0067365D01*
X0035627Y0067477D01*
X0035594Y0067591D01*
X0035565Y0067706D01*
X0035539Y0067822D01*
X0035517Y0067939D01*
X0035500Y0068056D01*
X0035486Y0068174D01*
X0035476Y0068292D01*
X0035470Y0068410D01*
X0035468Y0068529D01*
X0070868Y0068529D02*
X0070870Y0068648D01*
X0070876Y0068766D01*
X0070886Y0068884D01*
X0070900Y0069002D01*
X0070917Y0069119D01*
X0070939Y0069236D01*
X0070965Y0069352D01*
X0070994Y0069467D01*
X0071027Y0069581D01*
X0071064Y0069693D01*
X0071105Y0069805D01*
X0071150Y0069915D01*
X0071198Y0070023D01*
X0071250Y0070130D01*
X0071305Y0070235D01*
X0071364Y0070338D01*
X0071426Y0070439D01*
X0071491Y0070538D01*
X0071560Y0070635D01*
X0071632Y0070729D01*
X0071707Y0070821D01*
X0071785Y0070910D01*
X0071866Y0070997D01*
X0071950Y0071081D01*
X0072037Y0071162D01*
X0072126Y0071240D01*
X0072218Y0071315D01*
X0072312Y0071387D01*
X0072409Y0071456D01*
X0072508Y0071521D01*
X0072609Y0071583D01*
X0072712Y0071642D01*
X0072817Y0071697D01*
X0072924Y0071749D01*
X0073032Y0071797D01*
X0073142Y0071842D01*
X0073254Y0071883D01*
X0073366Y0071920D01*
X0073480Y0071953D01*
X0073595Y0071982D01*
X0073711Y0072008D01*
X0073828Y0072030D01*
X0073945Y0072047D01*
X0074063Y0072061D01*
X0074181Y0072071D01*
X0074299Y0072077D01*
X0074418Y0072079D01*
X0074537Y0072077D01*
X0074655Y0072071D01*
X0074773Y0072061D01*
X0074891Y0072047D01*
X0075008Y0072030D01*
X0075125Y0072008D01*
X0075241Y0071982D01*
X0075356Y0071953D01*
X0075470Y0071920D01*
X0075582Y0071883D01*
X0075694Y0071842D01*
X0075804Y0071797D01*
X0075912Y0071749D01*
X0076019Y0071697D01*
X0076124Y0071642D01*
X0076227Y0071583D01*
X0076328Y0071521D01*
X0076427Y0071456D01*
X0076524Y0071387D01*
X0076618Y0071315D01*
X0076710Y0071240D01*
X0076799Y0071162D01*
X0076886Y0071081D01*
X0076970Y0070997D01*
X0077051Y0070910D01*
X0077129Y0070821D01*
X0077204Y0070729D01*
X0077276Y0070635D01*
X0077345Y0070538D01*
X0077410Y0070439D01*
X0077472Y0070338D01*
X0077531Y0070235D01*
X0077586Y0070130D01*
X0077638Y0070023D01*
X0077686Y0069915D01*
X0077731Y0069805D01*
X0077772Y0069693D01*
X0077809Y0069581D01*
X0077842Y0069467D01*
X0077871Y0069352D01*
X0077897Y0069236D01*
X0077919Y0069119D01*
X0077936Y0069002D01*
X0077950Y0068884D01*
X0077960Y0068766D01*
X0077966Y0068648D01*
X0077968Y0068529D01*
X0077966Y0068410D01*
X0077960Y0068292D01*
X0077950Y0068174D01*
X0077936Y0068056D01*
X0077919Y0067939D01*
X0077897Y0067822D01*
X0077871Y0067706D01*
X0077842Y0067591D01*
X0077809Y0067477D01*
X0077772Y0067365D01*
X0077731Y0067253D01*
X0077686Y0067143D01*
X0077638Y0067035D01*
X0077586Y0066928D01*
X0077531Y0066823D01*
X0077472Y0066720D01*
X0077410Y0066619D01*
X0077345Y0066520D01*
X0077276Y0066423D01*
X0077204Y0066329D01*
X0077129Y0066237D01*
X0077051Y0066148D01*
X0076970Y0066061D01*
X0076886Y0065977D01*
X0076799Y0065896D01*
X0076710Y0065818D01*
X0076618Y0065743D01*
X0076524Y0065671D01*
X0076427Y0065602D01*
X0076328Y0065537D01*
X0076227Y0065475D01*
X0076124Y0065416D01*
X0076019Y0065361D01*
X0075912Y0065309D01*
X0075804Y0065261D01*
X0075694Y0065216D01*
X0075582Y0065175D01*
X0075470Y0065138D01*
X0075356Y0065105D01*
X0075241Y0065076D01*
X0075125Y0065050D01*
X0075008Y0065028D01*
X0074891Y0065011D01*
X0074773Y0064997D01*
X0074655Y0064987D01*
X0074537Y0064981D01*
X0074418Y0064979D01*
X0074299Y0064981D01*
X0074181Y0064987D01*
X0074063Y0064997D01*
X0073945Y0065011D01*
X0073828Y0065028D01*
X0073711Y0065050D01*
X0073595Y0065076D01*
X0073480Y0065105D01*
X0073366Y0065138D01*
X0073254Y0065175D01*
X0073142Y0065216D01*
X0073032Y0065261D01*
X0072924Y0065309D01*
X0072817Y0065361D01*
X0072712Y0065416D01*
X0072609Y0065475D01*
X0072508Y0065537D01*
X0072409Y0065602D01*
X0072312Y0065671D01*
X0072218Y0065743D01*
X0072126Y0065818D01*
X0072037Y0065896D01*
X0071950Y0065977D01*
X0071866Y0066061D01*
X0071785Y0066148D01*
X0071707Y0066237D01*
X0071632Y0066329D01*
X0071560Y0066423D01*
X0071491Y0066520D01*
X0071426Y0066619D01*
X0071364Y0066720D01*
X0071305Y0066823D01*
X0071250Y0066928D01*
X0071198Y0067035D01*
X0071150Y0067143D01*
X0071105Y0067253D01*
X0071064Y0067365D01*
X0071027Y0067477D01*
X0070994Y0067591D01*
X0070965Y0067706D01*
X0070939Y0067822D01*
X0070917Y0067939D01*
X0070900Y0068056D01*
X0070886Y0068174D01*
X0070876Y0068292D01*
X0070870Y0068410D01*
X0070868Y0068529D01*
X0074041Y0017348D02*
X0074043Y0017506D01*
X0074049Y0017664D01*
X0074059Y0017822D01*
X0074073Y0017980D01*
X0074091Y0018137D01*
X0074112Y0018294D01*
X0074138Y0018450D01*
X0074168Y0018606D01*
X0074201Y0018761D01*
X0074239Y0018914D01*
X0074280Y0019067D01*
X0074325Y0019219D01*
X0074374Y0019370D01*
X0074427Y0019519D01*
X0074483Y0019667D01*
X0074543Y0019813D01*
X0074607Y0019958D01*
X0074675Y0020101D01*
X0074746Y0020243D01*
X0074820Y0020383D01*
X0074898Y0020520D01*
X0074980Y0020656D01*
X0075064Y0020790D01*
X0075153Y0020921D01*
X0075244Y0021050D01*
X0075339Y0021177D01*
X0075436Y0021302D01*
X0075537Y0021424D01*
X0075641Y0021543D01*
X0075748Y0021660D01*
X0075858Y0021774D01*
X0075971Y0021885D01*
X0076086Y0021994D01*
X0076204Y0022099D01*
X0076325Y0022201D01*
X0076448Y0022301D01*
X0076574Y0022397D01*
X0076702Y0022490D01*
X0076832Y0022580D01*
X0076965Y0022666D01*
X0077100Y0022750D01*
X0077236Y0022829D01*
X0077375Y0022906D01*
X0077516Y0022978D01*
X0077658Y0023048D01*
X0077802Y0023113D01*
X0077948Y0023175D01*
X0078095Y0023233D01*
X0078244Y0023288D01*
X0078394Y0023339D01*
X0078545Y0023386D01*
X0078697Y0023429D01*
X0078850Y0023468D01*
X0079005Y0023504D01*
X0079160Y0023535D01*
X0079316Y0023563D01*
X0079472Y0023587D01*
X0079629Y0023607D01*
X0079787Y0023623D01*
X0079944Y0023635D01*
X0080103Y0023643D01*
X0080261Y0023647D01*
X0080419Y0023647D01*
X0080577Y0023643D01*
X0080736Y0023635D01*
X0080893Y0023623D01*
X0081051Y0023607D01*
X0081208Y0023587D01*
X0081364Y0023563D01*
X0081520Y0023535D01*
X0081675Y0023504D01*
X0081830Y0023468D01*
X0081983Y0023429D01*
X0082135Y0023386D01*
X0082286Y0023339D01*
X0082436Y0023288D01*
X0082585Y0023233D01*
X0082732Y0023175D01*
X0082878Y0023113D01*
X0083022Y0023048D01*
X0083164Y0022978D01*
X0083305Y0022906D01*
X0083444Y0022829D01*
X0083580Y0022750D01*
X0083715Y0022666D01*
X0083848Y0022580D01*
X0083978Y0022490D01*
X0084106Y0022397D01*
X0084232Y0022301D01*
X0084355Y0022201D01*
X0084476Y0022099D01*
X0084594Y0021994D01*
X0084709Y0021885D01*
X0084822Y0021774D01*
X0084932Y0021660D01*
X0085039Y0021543D01*
X0085143Y0021424D01*
X0085244Y0021302D01*
X0085341Y0021177D01*
X0085436Y0021050D01*
X0085527Y0020921D01*
X0085616Y0020790D01*
X0085700Y0020656D01*
X0085782Y0020520D01*
X0085860Y0020383D01*
X0085934Y0020243D01*
X0086005Y0020101D01*
X0086073Y0019958D01*
X0086137Y0019813D01*
X0086197Y0019667D01*
X0086253Y0019519D01*
X0086306Y0019370D01*
X0086355Y0019219D01*
X0086400Y0019067D01*
X0086441Y0018914D01*
X0086479Y0018761D01*
X0086512Y0018606D01*
X0086542Y0018450D01*
X0086568Y0018294D01*
X0086589Y0018137D01*
X0086607Y0017980D01*
X0086621Y0017822D01*
X0086631Y0017664D01*
X0086637Y0017506D01*
X0086639Y0017348D01*
X0086637Y0017190D01*
X0086631Y0017032D01*
X0086621Y0016874D01*
X0086607Y0016716D01*
X0086589Y0016559D01*
X0086568Y0016402D01*
X0086542Y0016246D01*
X0086512Y0016090D01*
X0086479Y0015935D01*
X0086441Y0015782D01*
X0086400Y0015629D01*
X0086355Y0015477D01*
X0086306Y0015326D01*
X0086253Y0015177D01*
X0086197Y0015029D01*
X0086137Y0014883D01*
X0086073Y0014738D01*
X0086005Y0014595D01*
X0085934Y0014453D01*
X0085860Y0014313D01*
X0085782Y0014176D01*
X0085700Y0014040D01*
X0085616Y0013906D01*
X0085527Y0013775D01*
X0085436Y0013646D01*
X0085341Y0013519D01*
X0085244Y0013394D01*
X0085143Y0013272D01*
X0085039Y0013153D01*
X0084932Y0013036D01*
X0084822Y0012922D01*
X0084709Y0012811D01*
X0084594Y0012702D01*
X0084476Y0012597D01*
X0084355Y0012495D01*
X0084232Y0012395D01*
X0084106Y0012299D01*
X0083978Y0012206D01*
X0083848Y0012116D01*
X0083715Y0012030D01*
X0083580Y0011946D01*
X0083444Y0011867D01*
X0083305Y0011790D01*
X0083164Y0011718D01*
X0083022Y0011648D01*
X0082878Y0011583D01*
X0082732Y0011521D01*
X0082585Y0011463D01*
X0082436Y0011408D01*
X0082286Y0011357D01*
X0082135Y0011310D01*
X0081983Y0011267D01*
X0081830Y0011228D01*
X0081675Y0011192D01*
X0081520Y0011161D01*
X0081364Y0011133D01*
X0081208Y0011109D01*
X0081051Y0011089D01*
X0080893Y0011073D01*
X0080736Y0011061D01*
X0080577Y0011053D01*
X0080419Y0011049D01*
X0080261Y0011049D01*
X0080103Y0011053D01*
X0079944Y0011061D01*
X0079787Y0011073D01*
X0079629Y0011089D01*
X0079472Y0011109D01*
X0079316Y0011133D01*
X0079160Y0011161D01*
X0079005Y0011192D01*
X0078850Y0011228D01*
X0078697Y0011267D01*
X0078545Y0011310D01*
X0078394Y0011357D01*
X0078244Y0011408D01*
X0078095Y0011463D01*
X0077948Y0011521D01*
X0077802Y0011583D01*
X0077658Y0011648D01*
X0077516Y0011718D01*
X0077375Y0011790D01*
X0077236Y0011867D01*
X0077100Y0011946D01*
X0076965Y0012030D01*
X0076832Y0012116D01*
X0076702Y0012206D01*
X0076574Y0012299D01*
X0076448Y0012395D01*
X0076325Y0012495D01*
X0076204Y0012597D01*
X0076086Y0012702D01*
X0075971Y0012811D01*
X0075858Y0012922D01*
X0075748Y0013036D01*
X0075641Y0013153D01*
X0075537Y0013272D01*
X0075436Y0013394D01*
X0075339Y0013519D01*
X0075244Y0013646D01*
X0075153Y0013775D01*
X0075064Y0013906D01*
X0074980Y0014040D01*
X0074898Y0014176D01*
X0074820Y0014313D01*
X0074746Y0014453D01*
X0074675Y0014595D01*
X0074607Y0014738D01*
X0074543Y0014883D01*
X0074483Y0015029D01*
X0074427Y0015177D01*
X0074374Y0015326D01*
X0074325Y0015477D01*
X0074280Y0015629D01*
X0074239Y0015782D01*
X0074201Y0015935D01*
X0074168Y0016090D01*
X0074138Y0016246D01*
X0074112Y0016402D01*
X0074091Y0016559D01*
X0074073Y0016716D01*
X0074059Y0016874D01*
X0074049Y0017032D01*
X0074043Y0017190D01*
X0074041Y0017348D01*
X0070868Y0147269D02*
X0070870Y0147388D01*
X0070876Y0147506D01*
X0070886Y0147624D01*
X0070900Y0147742D01*
X0070917Y0147859D01*
X0070939Y0147976D01*
X0070965Y0148092D01*
X0070994Y0148207D01*
X0071027Y0148321D01*
X0071064Y0148433D01*
X0071105Y0148545D01*
X0071150Y0148655D01*
X0071198Y0148763D01*
X0071250Y0148870D01*
X0071305Y0148975D01*
X0071364Y0149078D01*
X0071426Y0149179D01*
X0071491Y0149278D01*
X0071560Y0149375D01*
X0071632Y0149469D01*
X0071707Y0149561D01*
X0071785Y0149650D01*
X0071866Y0149737D01*
X0071950Y0149821D01*
X0072037Y0149902D01*
X0072126Y0149980D01*
X0072218Y0150055D01*
X0072312Y0150127D01*
X0072409Y0150196D01*
X0072508Y0150261D01*
X0072609Y0150323D01*
X0072712Y0150382D01*
X0072817Y0150437D01*
X0072924Y0150489D01*
X0073032Y0150537D01*
X0073142Y0150582D01*
X0073254Y0150623D01*
X0073366Y0150660D01*
X0073480Y0150693D01*
X0073595Y0150722D01*
X0073711Y0150748D01*
X0073828Y0150770D01*
X0073945Y0150787D01*
X0074063Y0150801D01*
X0074181Y0150811D01*
X0074299Y0150817D01*
X0074418Y0150819D01*
X0074537Y0150817D01*
X0074655Y0150811D01*
X0074773Y0150801D01*
X0074891Y0150787D01*
X0075008Y0150770D01*
X0075125Y0150748D01*
X0075241Y0150722D01*
X0075356Y0150693D01*
X0075470Y0150660D01*
X0075582Y0150623D01*
X0075694Y0150582D01*
X0075804Y0150537D01*
X0075912Y0150489D01*
X0076019Y0150437D01*
X0076124Y0150382D01*
X0076227Y0150323D01*
X0076328Y0150261D01*
X0076427Y0150196D01*
X0076524Y0150127D01*
X0076618Y0150055D01*
X0076710Y0149980D01*
X0076799Y0149902D01*
X0076886Y0149821D01*
X0076970Y0149737D01*
X0077051Y0149650D01*
X0077129Y0149561D01*
X0077204Y0149469D01*
X0077276Y0149375D01*
X0077345Y0149278D01*
X0077410Y0149179D01*
X0077472Y0149078D01*
X0077531Y0148975D01*
X0077586Y0148870D01*
X0077638Y0148763D01*
X0077686Y0148655D01*
X0077731Y0148545D01*
X0077772Y0148433D01*
X0077809Y0148321D01*
X0077842Y0148207D01*
X0077871Y0148092D01*
X0077897Y0147976D01*
X0077919Y0147859D01*
X0077936Y0147742D01*
X0077950Y0147624D01*
X0077960Y0147506D01*
X0077966Y0147388D01*
X0077968Y0147269D01*
X0077966Y0147150D01*
X0077960Y0147032D01*
X0077950Y0146914D01*
X0077936Y0146796D01*
X0077919Y0146679D01*
X0077897Y0146562D01*
X0077871Y0146446D01*
X0077842Y0146331D01*
X0077809Y0146217D01*
X0077772Y0146105D01*
X0077731Y0145993D01*
X0077686Y0145883D01*
X0077638Y0145775D01*
X0077586Y0145668D01*
X0077531Y0145563D01*
X0077472Y0145460D01*
X0077410Y0145359D01*
X0077345Y0145260D01*
X0077276Y0145163D01*
X0077204Y0145069D01*
X0077129Y0144977D01*
X0077051Y0144888D01*
X0076970Y0144801D01*
X0076886Y0144717D01*
X0076799Y0144636D01*
X0076710Y0144558D01*
X0076618Y0144483D01*
X0076524Y0144411D01*
X0076427Y0144342D01*
X0076328Y0144277D01*
X0076227Y0144215D01*
X0076124Y0144156D01*
X0076019Y0144101D01*
X0075912Y0144049D01*
X0075804Y0144001D01*
X0075694Y0143956D01*
X0075582Y0143915D01*
X0075470Y0143878D01*
X0075356Y0143845D01*
X0075241Y0143816D01*
X0075125Y0143790D01*
X0075008Y0143768D01*
X0074891Y0143751D01*
X0074773Y0143737D01*
X0074655Y0143727D01*
X0074537Y0143721D01*
X0074418Y0143719D01*
X0074299Y0143721D01*
X0074181Y0143727D01*
X0074063Y0143737D01*
X0073945Y0143751D01*
X0073828Y0143768D01*
X0073711Y0143790D01*
X0073595Y0143816D01*
X0073480Y0143845D01*
X0073366Y0143878D01*
X0073254Y0143915D01*
X0073142Y0143956D01*
X0073032Y0144001D01*
X0072924Y0144049D01*
X0072817Y0144101D01*
X0072712Y0144156D01*
X0072609Y0144215D01*
X0072508Y0144277D01*
X0072409Y0144342D01*
X0072312Y0144411D01*
X0072218Y0144483D01*
X0072126Y0144558D01*
X0072037Y0144636D01*
X0071950Y0144717D01*
X0071866Y0144801D01*
X0071785Y0144888D01*
X0071707Y0144977D01*
X0071632Y0145069D01*
X0071560Y0145163D01*
X0071491Y0145260D01*
X0071426Y0145359D01*
X0071364Y0145460D01*
X0071305Y0145563D01*
X0071250Y0145668D01*
X0071198Y0145775D01*
X0071150Y0145883D01*
X0071105Y0145993D01*
X0071064Y0146105D01*
X0071027Y0146217D01*
X0070994Y0146331D01*
X0070965Y0146446D01*
X0070939Y0146562D01*
X0070917Y0146679D01*
X0070900Y0146796D01*
X0070886Y0146914D01*
X0070876Y0147032D01*
X0070870Y0147150D01*
X0070868Y0147269D01*
X0035468Y0147269D02*
X0035470Y0147388D01*
X0035476Y0147506D01*
X0035486Y0147624D01*
X0035500Y0147742D01*
X0035517Y0147859D01*
X0035539Y0147976D01*
X0035565Y0148092D01*
X0035594Y0148207D01*
X0035627Y0148321D01*
X0035664Y0148433D01*
X0035705Y0148545D01*
X0035750Y0148655D01*
X0035798Y0148763D01*
X0035850Y0148870D01*
X0035905Y0148975D01*
X0035964Y0149078D01*
X0036026Y0149179D01*
X0036091Y0149278D01*
X0036160Y0149375D01*
X0036232Y0149469D01*
X0036307Y0149561D01*
X0036385Y0149650D01*
X0036466Y0149737D01*
X0036550Y0149821D01*
X0036637Y0149902D01*
X0036726Y0149980D01*
X0036818Y0150055D01*
X0036912Y0150127D01*
X0037009Y0150196D01*
X0037108Y0150261D01*
X0037209Y0150323D01*
X0037312Y0150382D01*
X0037417Y0150437D01*
X0037524Y0150489D01*
X0037632Y0150537D01*
X0037742Y0150582D01*
X0037854Y0150623D01*
X0037966Y0150660D01*
X0038080Y0150693D01*
X0038195Y0150722D01*
X0038311Y0150748D01*
X0038428Y0150770D01*
X0038545Y0150787D01*
X0038663Y0150801D01*
X0038781Y0150811D01*
X0038899Y0150817D01*
X0039018Y0150819D01*
X0039137Y0150817D01*
X0039255Y0150811D01*
X0039373Y0150801D01*
X0039491Y0150787D01*
X0039608Y0150770D01*
X0039725Y0150748D01*
X0039841Y0150722D01*
X0039956Y0150693D01*
X0040070Y0150660D01*
X0040182Y0150623D01*
X0040294Y0150582D01*
X0040404Y0150537D01*
X0040512Y0150489D01*
X0040619Y0150437D01*
X0040724Y0150382D01*
X0040827Y0150323D01*
X0040928Y0150261D01*
X0041027Y0150196D01*
X0041124Y0150127D01*
X0041218Y0150055D01*
X0041310Y0149980D01*
X0041399Y0149902D01*
X0041486Y0149821D01*
X0041570Y0149737D01*
X0041651Y0149650D01*
X0041729Y0149561D01*
X0041804Y0149469D01*
X0041876Y0149375D01*
X0041945Y0149278D01*
X0042010Y0149179D01*
X0042072Y0149078D01*
X0042131Y0148975D01*
X0042186Y0148870D01*
X0042238Y0148763D01*
X0042286Y0148655D01*
X0042331Y0148545D01*
X0042372Y0148433D01*
X0042409Y0148321D01*
X0042442Y0148207D01*
X0042471Y0148092D01*
X0042497Y0147976D01*
X0042519Y0147859D01*
X0042536Y0147742D01*
X0042550Y0147624D01*
X0042560Y0147506D01*
X0042566Y0147388D01*
X0042568Y0147269D01*
X0042566Y0147150D01*
X0042560Y0147032D01*
X0042550Y0146914D01*
X0042536Y0146796D01*
X0042519Y0146679D01*
X0042497Y0146562D01*
X0042471Y0146446D01*
X0042442Y0146331D01*
X0042409Y0146217D01*
X0042372Y0146105D01*
X0042331Y0145993D01*
X0042286Y0145883D01*
X0042238Y0145775D01*
X0042186Y0145668D01*
X0042131Y0145563D01*
X0042072Y0145460D01*
X0042010Y0145359D01*
X0041945Y0145260D01*
X0041876Y0145163D01*
X0041804Y0145069D01*
X0041729Y0144977D01*
X0041651Y0144888D01*
X0041570Y0144801D01*
X0041486Y0144717D01*
X0041399Y0144636D01*
X0041310Y0144558D01*
X0041218Y0144483D01*
X0041124Y0144411D01*
X0041027Y0144342D01*
X0040928Y0144277D01*
X0040827Y0144215D01*
X0040724Y0144156D01*
X0040619Y0144101D01*
X0040512Y0144049D01*
X0040404Y0144001D01*
X0040294Y0143956D01*
X0040182Y0143915D01*
X0040070Y0143878D01*
X0039956Y0143845D01*
X0039841Y0143816D01*
X0039725Y0143790D01*
X0039608Y0143768D01*
X0039491Y0143751D01*
X0039373Y0143737D01*
X0039255Y0143727D01*
X0039137Y0143721D01*
X0039018Y0143719D01*
X0038899Y0143721D01*
X0038781Y0143727D01*
X0038663Y0143737D01*
X0038545Y0143751D01*
X0038428Y0143768D01*
X0038311Y0143790D01*
X0038195Y0143816D01*
X0038080Y0143845D01*
X0037966Y0143878D01*
X0037854Y0143915D01*
X0037742Y0143956D01*
X0037632Y0144001D01*
X0037524Y0144049D01*
X0037417Y0144101D01*
X0037312Y0144156D01*
X0037209Y0144215D01*
X0037108Y0144277D01*
X0037009Y0144342D01*
X0036912Y0144411D01*
X0036818Y0144483D01*
X0036726Y0144558D01*
X0036637Y0144636D01*
X0036550Y0144717D01*
X0036466Y0144801D01*
X0036385Y0144888D01*
X0036307Y0144977D01*
X0036232Y0145069D01*
X0036160Y0145163D01*
X0036091Y0145260D01*
X0036026Y0145359D01*
X0035964Y0145460D01*
X0035905Y0145563D01*
X0035850Y0145668D01*
X0035798Y0145775D01*
X0035750Y0145883D01*
X0035705Y0145993D01*
X0035664Y0146105D01*
X0035627Y0146217D01*
X0035594Y0146331D01*
X0035565Y0146446D01*
X0035539Y0146562D01*
X0035517Y0146679D01*
X0035500Y0146796D01*
X0035486Y0146914D01*
X0035476Y0147032D01*
X0035470Y0147150D01*
X0035468Y0147269D01*
X0097801Y0169474D02*
X0097803Y0169599D01*
X0097809Y0169724D01*
X0097819Y0169848D01*
X0097833Y0169972D01*
X0097850Y0170096D01*
X0097872Y0170219D01*
X0097898Y0170341D01*
X0097927Y0170463D01*
X0097960Y0170583D01*
X0097998Y0170702D01*
X0098038Y0170821D01*
X0098083Y0170937D01*
X0098131Y0171052D01*
X0098183Y0171166D01*
X0098239Y0171278D01*
X0098298Y0171388D01*
X0098360Y0171496D01*
X0098426Y0171603D01*
X0098495Y0171707D01*
X0098568Y0171808D01*
X0098643Y0171908D01*
X0098722Y0172005D01*
X0098804Y0172099D01*
X0098889Y0172191D01*
X0098976Y0172280D01*
X0099067Y0172366D01*
X0099160Y0172449D01*
X0099256Y0172530D01*
X0099354Y0172607D01*
X0099454Y0172681D01*
X0099557Y0172752D01*
X0099662Y0172819D01*
X0099770Y0172884D01*
X0099879Y0172944D01*
X0099990Y0173002D01*
X0100103Y0173055D01*
X0100217Y0173105D01*
X0100333Y0173152D01*
X0100450Y0173194D01*
X0100569Y0173233D01*
X0100689Y0173269D01*
X0100810Y0173300D01*
X0100932Y0173328D01*
X0101054Y0173351D01*
X0101178Y0173371D01*
X0101302Y0173387D01*
X0101426Y0173399D01*
X0101551Y0173407D01*
X0101676Y0173411D01*
X0101800Y0173411D01*
X0101925Y0173407D01*
X0102050Y0173399D01*
X0102174Y0173387D01*
X0102298Y0173371D01*
X0102422Y0173351D01*
X0102544Y0173328D01*
X0102666Y0173300D01*
X0102787Y0173269D01*
X0102907Y0173233D01*
X0103026Y0173194D01*
X0103143Y0173152D01*
X0103259Y0173105D01*
X0103373Y0173055D01*
X0103486Y0173002D01*
X0103597Y0172944D01*
X0103707Y0172884D01*
X0103814Y0172819D01*
X0103919Y0172752D01*
X0104022Y0172681D01*
X0104122Y0172607D01*
X0104220Y0172530D01*
X0104316Y0172449D01*
X0104409Y0172366D01*
X0104500Y0172280D01*
X0104587Y0172191D01*
X0104672Y0172099D01*
X0104754Y0172005D01*
X0104833Y0171908D01*
X0104908Y0171808D01*
X0104981Y0171707D01*
X0105050Y0171603D01*
X0105116Y0171496D01*
X0105178Y0171388D01*
X0105237Y0171278D01*
X0105293Y0171166D01*
X0105345Y0171052D01*
X0105393Y0170937D01*
X0105438Y0170821D01*
X0105478Y0170702D01*
X0105516Y0170583D01*
X0105549Y0170463D01*
X0105578Y0170341D01*
X0105604Y0170219D01*
X0105626Y0170096D01*
X0105643Y0169972D01*
X0105657Y0169848D01*
X0105667Y0169724D01*
X0105673Y0169599D01*
X0105675Y0169474D01*
X0105673Y0169349D01*
X0105667Y0169224D01*
X0105657Y0169100D01*
X0105643Y0168976D01*
X0105626Y0168852D01*
X0105604Y0168729D01*
X0105578Y0168607D01*
X0105549Y0168485D01*
X0105516Y0168365D01*
X0105478Y0168246D01*
X0105438Y0168127D01*
X0105393Y0168011D01*
X0105345Y0167896D01*
X0105293Y0167782D01*
X0105237Y0167670D01*
X0105178Y0167560D01*
X0105116Y0167452D01*
X0105050Y0167345D01*
X0104981Y0167241D01*
X0104908Y0167140D01*
X0104833Y0167040D01*
X0104754Y0166943D01*
X0104672Y0166849D01*
X0104587Y0166757D01*
X0104500Y0166668D01*
X0104409Y0166582D01*
X0104316Y0166499D01*
X0104220Y0166418D01*
X0104122Y0166341D01*
X0104022Y0166267D01*
X0103919Y0166196D01*
X0103814Y0166129D01*
X0103706Y0166064D01*
X0103597Y0166004D01*
X0103486Y0165946D01*
X0103373Y0165893D01*
X0103259Y0165843D01*
X0103143Y0165796D01*
X0103026Y0165754D01*
X0102907Y0165715D01*
X0102787Y0165679D01*
X0102666Y0165648D01*
X0102544Y0165620D01*
X0102422Y0165597D01*
X0102298Y0165577D01*
X0102174Y0165561D01*
X0102050Y0165549D01*
X0101925Y0165541D01*
X0101800Y0165537D01*
X0101676Y0165537D01*
X0101551Y0165541D01*
X0101426Y0165549D01*
X0101302Y0165561D01*
X0101178Y0165577D01*
X0101054Y0165597D01*
X0100932Y0165620D01*
X0100810Y0165648D01*
X0100689Y0165679D01*
X0100569Y0165715D01*
X0100450Y0165754D01*
X0100333Y0165796D01*
X0100217Y0165843D01*
X0100103Y0165893D01*
X0099990Y0165946D01*
X0099879Y0166004D01*
X0099769Y0166064D01*
X0099662Y0166129D01*
X0099557Y0166196D01*
X0099454Y0166267D01*
X0099354Y0166341D01*
X0099256Y0166418D01*
X0099160Y0166499D01*
X0099067Y0166582D01*
X0098976Y0166668D01*
X0098889Y0166757D01*
X0098804Y0166849D01*
X0098722Y0166943D01*
X0098643Y0167040D01*
X0098568Y0167140D01*
X0098495Y0167241D01*
X0098426Y0167345D01*
X0098360Y0167452D01*
X0098298Y0167560D01*
X0098239Y0167670D01*
X0098183Y0167782D01*
X0098131Y0167896D01*
X0098083Y0168011D01*
X0098038Y0168127D01*
X0097998Y0168246D01*
X0097960Y0168365D01*
X0097927Y0168485D01*
X0097898Y0168607D01*
X0097872Y0168729D01*
X0097850Y0168852D01*
X0097833Y0168976D01*
X0097819Y0169100D01*
X0097809Y0169224D01*
X0097803Y0169349D01*
X0097801Y0169474D01*
X0097801Y0263962D02*
X0097803Y0264087D01*
X0097809Y0264212D01*
X0097819Y0264336D01*
X0097833Y0264460D01*
X0097850Y0264584D01*
X0097872Y0264707D01*
X0097898Y0264829D01*
X0097927Y0264951D01*
X0097960Y0265071D01*
X0097998Y0265190D01*
X0098038Y0265309D01*
X0098083Y0265425D01*
X0098131Y0265540D01*
X0098183Y0265654D01*
X0098239Y0265766D01*
X0098298Y0265876D01*
X0098360Y0265984D01*
X0098426Y0266091D01*
X0098495Y0266195D01*
X0098568Y0266296D01*
X0098643Y0266396D01*
X0098722Y0266493D01*
X0098804Y0266587D01*
X0098889Y0266679D01*
X0098976Y0266768D01*
X0099067Y0266854D01*
X0099160Y0266937D01*
X0099256Y0267018D01*
X0099354Y0267095D01*
X0099454Y0267169D01*
X0099557Y0267240D01*
X0099662Y0267307D01*
X0099770Y0267372D01*
X0099879Y0267432D01*
X0099990Y0267490D01*
X0100103Y0267543D01*
X0100217Y0267593D01*
X0100333Y0267640D01*
X0100450Y0267682D01*
X0100569Y0267721D01*
X0100689Y0267757D01*
X0100810Y0267788D01*
X0100932Y0267816D01*
X0101054Y0267839D01*
X0101178Y0267859D01*
X0101302Y0267875D01*
X0101426Y0267887D01*
X0101551Y0267895D01*
X0101676Y0267899D01*
X0101800Y0267899D01*
X0101925Y0267895D01*
X0102050Y0267887D01*
X0102174Y0267875D01*
X0102298Y0267859D01*
X0102422Y0267839D01*
X0102544Y0267816D01*
X0102666Y0267788D01*
X0102787Y0267757D01*
X0102907Y0267721D01*
X0103026Y0267682D01*
X0103143Y0267640D01*
X0103259Y0267593D01*
X0103373Y0267543D01*
X0103486Y0267490D01*
X0103597Y0267432D01*
X0103707Y0267372D01*
X0103814Y0267307D01*
X0103919Y0267240D01*
X0104022Y0267169D01*
X0104122Y0267095D01*
X0104220Y0267018D01*
X0104316Y0266937D01*
X0104409Y0266854D01*
X0104500Y0266768D01*
X0104587Y0266679D01*
X0104672Y0266587D01*
X0104754Y0266493D01*
X0104833Y0266396D01*
X0104908Y0266296D01*
X0104981Y0266195D01*
X0105050Y0266091D01*
X0105116Y0265984D01*
X0105178Y0265876D01*
X0105237Y0265766D01*
X0105293Y0265654D01*
X0105345Y0265540D01*
X0105393Y0265425D01*
X0105438Y0265309D01*
X0105478Y0265190D01*
X0105516Y0265071D01*
X0105549Y0264951D01*
X0105578Y0264829D01*
X0105604Y0264707D01*
X0105626Y0264584D01*
X0105643Y0264460D01*
X0105657Y0264336D01*
X0105667Y0264212D01*
X0105673Y0264087D01*
X0105675Y0263962D01*
X0105673Y0263837D01*
X0105667Y0263712D01*
X0105657Y0263588D01*
X0105643Y0263464D01*
X0105626Y0263340D01*
X0105604Y0263217D01*
X0105578Y0263095D01*
X0105549Y0262973D01*
X0105516Y0262853D01*
X0105478Y0262734D01*
X0105438Y0262615D01*
X0105393Y0262499D01*
X0105345Y0262384D01*
X0105293Y0262270D01*
X0105237Y0262158D01*
X0105178Y0262048D01*
X0105116Y0261940D01*
X0105050Y0261833D01*
X0104981Y0261729D01*
X0104908Y0261628D01*
X0104833Y0261528D01*
X0104754Y0261431D01*
X0104672Y0261337D01*
X0104587Y0261245D01*
X0104500Y0261156D01*
X0104409Y0261070D01*
X0104316Y0260987D01*
X0104220Y0260906D01*
X0104122Y0260829D01*
X0104022Y0260755D01*
X0103919Y0260684D01*
X0103814Y0260617D01*
X0103706Y0260552D01*
X0103597Y0260492D01*
X0103486Y0260434D01*
X0103373Y0260381D01*
X0103259Y0260331D01*
X0103143Y0260284D01*
X0103026Y0260242D01*
X0102907Y0260203D01*
X0102787Y0260167D01*
X0102666Y0260136D01*
X0102544Y0260108D01*
X0102422Y0260085D01*
X0102298Y0260065D01*
X0102174Y0260049D01*
X0102050Y0260037D01*
X0101925Y0260029D01*
X0101800Y0260025D01*
X0101676Y0260025D01*
X0101551Y0260029D01*
X0101426Y0260037D01*
X0101302Y0260049D01*
X0101178Y0260065D01*
X0101054Y0260085D01*
X0100932Y0260108D01*
X0100810Y0260136D01*
X0100689Y0260167D01*
X0100569Y0260203D01*
X0100450Y0260242D01*
X0100333Y0260284D01*
X0100217Y0260331D01*
X0100103Y0260381D01*
X0099990Y0260434D01*
X0099879Y0260492D01*
X0099769Y0260552D01*
X0099662Y0260617D01*
X0099557Y0260684D01*
X0099454Y0260755D01*
X0099354Y0260829D01*
X0099256Y0260906D01*
X0099160Y0260987D01*
X0099067Y0261070D01*
X0098976Y0261156D01*
X0098889Y0261245D01*
X0098804Y0261337D01*
X0098722Y0261431D01*
X0098643Y0261528D01*
X0098568Y0261628D01*
X0098495Y0261729D01*
X0098426Y0261833D01*
X0098360Y0261940D01*
X0098298Y0262048D01*
X0098239Y0262158D01*
X0098183Y0262270D01*
X0098131Y0262384D01*
X0098083Y0262499D01*
X0098038Y0262615D01*
X0097998Y0262734D01*
X0097960Y0262853D01*
X0097927Y0262973D01*
X0097898Y0263095D01*
X0097872Y0263217D01*
X0097850Y0263340D01*
X0097833Y0263464D01*
X0097819Y0263588D01*
X0097809Y0263712D01*
X0097803Y0263837D01*
X0097801Y0263962D01*
X0074041Y0351994D02*
X0074043Y0352152D01*
X0074049Y0352310D01*
X0074059Y0352468D01*
X0074073Y0352626D01*
X0074091Y0352783D01*
X0074112Y0352940D01*
X0074138Y0353096D01*
X0074168Y0353252D01*
X0074201Y0353407D01*
X0074239Y0353560D01*
X0074280Y0353713D01*
X0074325Y0353865D01*
X0074374Y0354016D01*
X0074427Y0354165D01*
X0074483Y0354313D01*
X0074543Y0354459D01*
X0074607Y0354604D01*
X0074675Y0354747D01*
X0074746Y0354889D01*
X0074820Y0355029D01*
X0074898Y0355166D01*
X0074980Y0355302D01*
X0075064Y0355436D01*
X0075153Y0355567D01*
X0075244Y0355696D01*
X0075339Y0355823D01*
X0075436Y0355948D01*
X0075537Y0356070D01*
X0075641Y0356189D01*
X0075748Y0356306D01*
X0075858Y0356420D01*
X0075971Y0356531D01*
X0076086Y0356640D01*
X0076204Y0356745D01*
X0076325Y0356847D01*
X0076448Y0356947D01*
X0076574Y0357043D01*
X0076702Y0357136D01*
X0076832Y0357226D01*
X0076965Y0357312D01*
X0077100Y0357396D01*
X0077236Y0357475D01*
X0077375Y0357552D01*
X0077516Y0357624D01*
X0077658Y0357694D01*
X0077802Y0357759D01*
X0077948Y0357821D01*
X0078095Y0357879D01*
X0078244Y0357934D01*
X0078394Y0357985D01*
X0078545Y0358032D01*
X0078697Y0358075D01*
X0078850Y0358114D01*
X0079005Y0358150D01*
X0079160Y0358181D01*
X0079316Y0358209D01*
X0079472Y0358233D01*
X0079629Y0358253D01*
X0079787Y0358269D01*
X0079944Y0358281D01*
X0080103Y0358289D01*
X0080261Y0358293D01*
X0080419Y0358293D01*
X0080577Y0358289D01*
X0080736Y0358281D01*
X0080893Y0358269D01*
X0081051Y0358253D01*
X0081208Y0358233D01*
X0081364Y0358209D01*
X0081520Y0358181D01*
X0081675Y0358150D01*
X0081830Y0358114D01*
X0081983Y0358075D01*
X0082135Y0358032D01*
X0082286Y0357985D01*
X0082436Y0357934D01*
X0082585Y0357879D01*
X0082732Y0357821D01*
X0082878Y0357759D01*
X0083022Y0357694D01*
X0083164Y0357624D01*
X0083305Y0357552D01*
X0083444Y0357475D01*
X0083580Y0357396D01*
X0083715Y0357312D01*
X0083848Y0357226D01*
X0083978Y0357136D01*
X0084106Y0357043D01*
X0084232Y0356947D01*
X0084355Y0356847D01*
X0084476Y0356745D01*
X0084594Y0356640D01*
X0084709Y0356531D01*
X0084822Y0356420D01*
X0084932Y0356306D01*
X0085039Y0356189D01*
X0085143Y0356070D01*
X0085244Y0355948D01*
X0085341Y0355823D01*
X0085436Y0355696D01*
X0085527Y0355567D01*
X0085616Y0355436D01*
X0085700Y0355302D01*
X0085782Y0355166D01*
X0085860Y0355029D01*
X0085934Y0354889D01*
X0086005Y0354747D01*
X0086073Y0354604D01*
X0086137Y0354459D01*
X0086197Y0354313D01*
X0086253Y0354165D01*
X0086306Y0354016D01*
X0086355Y0353865D01*
X0086400Y0353713D01*
X0086441Y0353560D01*
X0086479Y0353407D01*
X0086512Y0353252D01*
X0086542Y0353096D01*
X0086568Y0352940D01*
X0086589Y0352783D01*
X0086607Y0352626D01*
X0086621Y0352468D01*
X0086631Y0352310D01*
X0086637Y0352152D01*
X0086639Y0351994D01*
X0086637Y0351836D01*
X0086631Y0351678D01*
X0086621Y0351520D01*
X0086607Y0351362D01*
X0086589Y0351205D01*
X0086568Y0351048D01*
X0086542Y0350892D01*
X0086512Y0350736D01*
X0086479Y0350581D01*
X0086441Y0350428D01*
X0086400Y0350275D01*
X0086355Y0350123D01*
X0086306Y0349972D01*
X0086253Y0349823D01*
X0086197Y0349675D01*
X0086137Y0349529D01*
X0086073Y0349384D01*
X0086005Y0349241D01*
X0085934Y0349099D01*
X0085860Y0348959D01*
X0085782Y0348822D01*
X0085700Y0348686D01*
X0085616Y0348552D01*
X0085527Y0348421D01*
X0085436Y0348292D01*
X0085341Y0348165D01*
X0085244Y0348040D01*
X0085143Y0347918D01*
X0085039Y0347799D01*
X0084932Y0347682D01*
X0084822Y0347568D01*
X0084709Y0347457D01*
X0084594Y0347348D01*
X0084476Y0347243D01*
X0084355Y0347141D01*
X0084232Y0347041D01*
X0084106Y0346945D01*
X0083978Y0346852D01*
X0083848Y0346762D01*
X0083715Y0346676D01*
X0083580Y0346592D01*
X0083444Y0346513D01*
X0083305Y0346436D01*
X0083164Y0346364D01*
X0083022Y0346294D01*
X0082878Y0346229D01*
X0082732Y0346167D01*
X0082585Y0346109D01*
X0082436Y0346054D01*
X0082286Y0346003D01*
X0082135Y0345956D01*
X0081983Y0345913D01*
X0081830Y0345874D01*
X0081675Y0345838D01*
X0081520Y0345807D01*
X0081364Y0345779D01*
X0081208Y0345755D01*
X0081051Y0345735D01*
X0080893Y0345719D01*
X0080736Y0345707D01*
X0080577Y0345699D01*
X0080419Y0345695D01*
X0080261Y0345695D01*
X0080103Y0345699D01*
X0079944Y0345707D01*
X0079787Y0345719D01*
X0079629Y0345735D01*
X0079472Y0345755D01*
X0079316Y0345779D01*
X0079160Y0345807D01*
X0079005Y0345838D01*
X0078850Y0345874D01*
X0078697Y0345913D01*
X0078545Y0345956D01*
X0078394Y0346003D01*
X0078244Y0346054D01*
X0078095Y0346109D01*
X0077948Y0346167D01*
X0077802Y0346229D01*
X0077658Y0346294D01*
X0077516Y0346364D01*
X0077375Y0346436D01*
X0077236Y0346513D01*
X0077100Y0346592D01*
X0076965Y0346676D01*
X0076832Y0346762D01*
X0076702Y0346852D01*
X0076574Y0346945D01*
X0076448Y0347041D01*
X0076325Y0347141D01*
X0076204Y0347243D01*
X0076086Y0347348D01*
X0075971Y0347457D01*
X0075858Y0347568D01*
X0075748Y0347682D01*
X0075641Y0347799D01*
X0075537Y0347918D01*
X0075436Y0348040D01*
X0075339Y0348165D01*
X0075244Y0348292D01*
X0075153Y0348421D01*
X0075064Y0348552D01*
X0074980Y0348686D01*
X0074898Y0348822D01*
X0074820Y0348959D01*
X0074746Y0349099D01*
X0074675Y0349241D01*
X0074607Y0349384D01*
X0074543Y0349529D01*
X0074483Y0349675D01*
X0074427Y0349823D01*
X0074374Y0349972D01*
X0074325Y0350123D01*
X0074280Y0350275D01*
X0074239Y0350428D01*
X0074201Y0350581D01*
X0074168Y0350736D01*
X0074138Y0350892D01*
X0074112Y0351048D01*
X0074091Y0351205D01*
X0074073Y0351362D01*
X0074059Y0351520D01*
X0074049Y0351678D01*
X0074043Y0351836D01*
X0074041Y0351994D01*
X0192289Y0263962D02*
X0192291Y0264087D01*
X0192297Y0264212D01*
X0192307Y0264336D01*
X0192321Y0264460D01*
X0192338Y0264584D01*
X0192360Y0264707D01*
X0192386Y0264829D01*
X0192415Y0264951D01*
X0192448Y0265071D01*
X0192486Y0265190D01*
X0192526Y0265309D01*
X0192571Y0265425D01*
X0192619Y0265540D01*
X0192671Y0265654D01*
X0192727Y0265766D01*
X0192786Y0265876D01*
X0192848Y0265984D01*
X0192914Y0266091D01*
X0192983Y0266195D01*
X0193056Y0266296D01*
X0193131Y0266396D01*
X0193210Y0266493D01*
X0193292Y0266587D01*
X0193377Y0266679D01*
X0193464Y0266768D01*
X0193555Y0266854D01*
X0193648Y0266937D01*
X0193744Y0267018D01*
X0193842Y0267095D01*
X0193942Y0267169D01*
X0194045Y0267240D01*
X0194150Y0267307D01*
X0194258Y0267372D01*
X0194367Y0267432D01*
X0194478Y0267490D01*
X0194591Y0267543D01*
X0194705Y0267593D01*
X0194821Y0267640D01*
X0194938Y0267682D01*
X0195057Y0267721D01*
X0195177Y0267757D01*
X0195298Y0267788D01*
X0195420Y0267816D01*
X0195542Y0267839D01*
X0195666Y0267859D01*
X0195790Y0267875D01*
X0195914Y0267887D01*
X0196039Y0267895D01*
X0196164Y0267899D01*
X0196288Y0267899D01*
X0196413Y0267895D01*
X0196538Y0267887D01*
X0196662Y0267875D01*
X0196786Y0267859D01*
X0196910Y0267839D01*
X0197032Y0267816D01*
X0197154Y0267788D01*
X0197275Y0267757D01*
X0197395Y0267721D01*
X0197514Y0267682D01*
X0197631Y0267640D01*
X0197747Y0267593D01*
X0197861Y0267543D01*
X0197974Y0267490D01*
X0198085Y0267432D01*
X0198195Y0267372D01*
X0198302Y0267307D01*
X0198407Y0267240D01*
X0198510Y0267169D01*
X0198610Y0267095D01*
X0198708Y0267018D01*
X0198804Y0266937D01*
X0198897Y0266854D01*
X0198988Y0266768D01*
X0199075Y0266679D01*
X0199160Y0266587D01*
X0199242Y0266493D01*
X0199321Y0266396D01*
X0199396Y0266296D01*
X0199469Y0266195D01*
X0199538Y0266091D01*
X0199604Y0265984D01*
X0199666Y0265876D01*
X0199725Y0265766D01*
X0199781Y0265654D01*
X0199833Y0265540D01*
X0199881Y0265425D01*
X0199926Y0265309D01*
X0199966Y0265190D01*
X0200004Y0265071D01*
X0200037Y0264951D01*
X0200066Y0264829D01*
X0200092Y0264707D01*
X0200114Y0264584D01*
X0200131Y0264460D01*
X0200145Y0264336D01*
X0200155Y0264212D01*
X0200161Y0264087D01*
X0200163Y0263962D01*
X0200161Y0263837D01*
X0200155Y0263712D01*
X0200145Y0263588D01*
X0200131Y0263464D01*
X0200114Y0263340D01*
X0200092Y0263217D01*
X0200066Y0263095D01*
X0200037Y0262973D01*
X0200004Y0262853D01*
X0199966Y0262734D01*
X0199926Y0262615D01*
X0199881Y0262499D01*
X0199833Y0262384D01*
X0199781Y0262270D01*
X0199725Y0262158D01*
X0199666Y0262048D01*
X0199604Y0261940D01*
X0199538Y0261833D01*
X0199469Y0261729D01*
X0199396Y0261628D01*
X0199321Y0261528D01*
X0199242Y0261431D01*
X0199160Y0261337D01*
X0199075Y0261245D01*
X0198988Y0261156D01*
X0198897Y0261070D01*
X0198804Y0260987D01*
X0198708Y0260906D01*
X0198610Y0260829D01*
X0198510Y0260755D01*
X0198407Y0260684D01*
X0198302Y0260617D01*
X0198194Y0260552D01*
X0198085Y0260492D01*
X0197974Y0260434D01*
X0197861Y0260381D01*
X0197747Y0260331D01*
X0197631Y0260284D01*
X0197514Y0260242D01*
X0197395Y0260203D01*
X0197275Y0260167D01*
X0197154Y0260136D01*
X0197032Y0260108D01*
X0196910Y0260085D01*
X0196786Y0260065D01*
X0196662Y0260049D01*
X0196538Y0260037D01*
X0196413Y0260029D01*
X0196288Y0260025D01*
X0196164Y0260025D01*
X0196039Y0260029D01*
X0195914Y0260037D01*
X0195790Y0260049D01*
X0195666Y0260065D01*
X0195542Y0260085D01*
X0195420Y0260108D01*
X0195298Y0260136D01*
X0195177Y0260167D01*
X0195057Y0260203D01*
X0194938Y0260242D01*
X0194821Y0260284D01*
X0194705Y0260331D01*
X0194591Y0260381D01*
X0194478Y0260434D01*
X0194367Y0260492D01*
X0194257Y0260552D01*
X0194150Y0260617D01*
X0194045Y0260684D01*
X0193942Y0260755D01*
X0193842Y0260829D01*
X0193744Y0260906D01*
X0193648Y0260987D01*
X0193555Y0261070D01*
X0193464Y0261156D01*
X0193377Y0261245D01*
X0193292Y0261337D01*
X0193210Y0261431D01*
X0193131Y0261528D01*
X0193056Y0261628D01*
X0192983Y0261729D01*
X0192914Y0261833D01*
X0192848Y0261940D01*
X0192786Y0262048D01*
X0192727Y0262158D01*
X0192671Y0262270D01*
X0192619Y0262384D01*
X0192571Y0262499D01*
X0192526Y0262615D01*
X0192486Y0262734D01*
X0192448Y0262853D01*
X0192415Y0262973D01*
X0192386Y0263095D01*
X0192360Y0263217D01*
X0192338Y0263340D01*
X0192321Y0263464D01*
X0192307Y0263588D01*
X0192297Y0263712D01*
X0192291Y0263837D01*
X0192289Y0263962D01*
X0211836Y0351994D02*
X0211838Y0352152D01*
X0211844Y0352310D01*
X0211854Y0352468D01*
X0211868Y0352626D01*
X0211886Y0352783D01*
X0211907Y0352940D01*
X0211933Y0353096D01*
X0211963Y0353252D01*
X0211996Y0353407D01*
X0212034Y0353560D01*
X0212075Y0353713D01*
X0212120Y0353865D01*
X0212169Y0354016D01*
X0212222Y0354165D01*
X0212278Y0354313D01*
X0212338Y0354459D01*
X0212402Y0354604D01*
X0212470Y0354747D01*
X0212541Y0354889D01*
X0212615Y0355029D01*
X0212693Y0355166D01*
X0212775Y0355302D01*
X0212859Y0355436D01*
X0212948Y0355567D01*
X0213039Y0355696D01*
X0213134Y0355823D01*
X0213231Y0355948D01*
X0213332Y0356070D01*
X0213436Y0356189D01*
X0213543Y0356306D01*
X0213653Y0356420D01*
X0213766Y0356531D01*
X0213881Y0356640D01*
X0213999Y0356745D01*
X0214120Y0356847D01*
X0214243Y0356947D01*
X0214369Y0357043D01*
X0214497Y0357136D01*
X0214627Y0357226D01*
X0214760Y0357312D01*
X0214895Y0357396D01*
X0215031Y0357475D01*
X0215170Y0357552D01*
X0215311Y0357624D01*
X0215453Y0357694D01*
X0215597Y0357759D01*
X0215743Y0357821D01*
X0215890Y0357879D01*
X0216039Y0357934D01*
X0216189Y0357985D01*
X0216340Y0358032D01*
X0216492Y0358075D01*
X0216645Y0358114D01*
X0216800Y0358150D01*
X0216955Y0358181D01*
X0217111Y0358209D01*
X0217267Y0358233D01*
X0217424Y0358253D01*
X0217582Y0358269D01*
X0217739Y0358281D01*
X0217898Y0358289D01*
X0218056Y0358293D01*
X0218214Y0358293D01*
X0218372Y0358289D01*
X0218531Y0358281D01*
X0218688Y0358269D01*
X0218846Y0358253D01*
X0219003Y0358233D01*
X0219159Y0358209D01*
X0219315Y0358181D01*
X0219470Y0358150D01*
X0219625Y0358114D01*
X0219778Y0358075D01*
X0219930Y0358032D01*
X0220081Y0357985D01*
X0220231Y0357934D01*
X0220380Y0357879D01*
X0220527Y0357821D01*
X0220673Y0357759D01*
X0220817Y0357694D01*
X0220959Y0357624D01*
X0221100Y0357552D01*
X0221239Y0357475D01*
X0221375Y0357396D01*
X0221510Y0357312D01*
X0221643Y0357226D01*
X0221773Y0357136D01*
X0221901Y0357043D01*
X0222027Y0356947D01*
X0222150Y0356847D01*
X0222271Y0356745D01*
X0222389Y0356640D01*
X0222504Y0356531D01*
X0222617Y0356420D01*
X0222727Y0356306D01*
X0222834Y0356189D01*
X0222938Y0356070D01*
X0223039Y0355948D01*
X0223136Y0355823D01*
X0223231Y0355696D01*
X0223322Y0355567D01*
X0223411Y0355436D01*
X0223495Y0355302D01*
X0223577Y0355166D01*
X0223655Y0355029D01*
X0223729Y0354889D01*
X0223800Y0354747D01*
X0223868Y0354604D01*
X0223932Y0354459D01*
X0223992Y0354313D01*
X0224048Y0354165D01*
X0224101Y0354016D01*
X0224150Y0353865D01*
X0224195Y0353713D01*
X0224236Y0353560D01*
X0224274Y0353407D01*
X0224307Y0353252D01*
X0224337Y0353096D01*
X0224363Y0352940D01*
X0224384Y0352783D01*
X0224402Y0352626D01*
X0224416Y0352468D01*
X0224426Y0352310D01*
X0224432Y0352152D01*
X0224434Y0351994D01*
X0224432Y0351836D01*
X0224426Y0351678D01*
X0224416Y0351520D01*
X0224402Y0351362D01*
X0224384Y0351205D01*
X0224363Y0351048D01*
X0224337Y0350892D01*
X0224307Y0350736D01*
X0224274Y0350581D01*
X0224236Y0350428D01*
X0224195Y0350275D01*
X0224150Y0350123D01*
X0224101Y0349972D01*
X0224048Y0349823D01*
X0223992Y0349675D01*
X0223932Y0349529D01*
X0223868Y0349384D01*
X0223800Y0349241D01*
X0223729Y0349099D01*
X0223655Y0348959D01*
X0223577Y0348822D01*
X0223495Y0348686D01*
X0223411Y0348552D01*
X0223322Y0348421D01*
X0223231Y0348292D01*
X0223136Y0348165D01*
X0223039Y0348040D01*
X0222938Y0347918D01*
X0222834Y0347799D01*
X0222727Y0347682D01*
X0222617Y0347568D01*
X0222504Y0347457D01*
X0222389Y0347348D01*
X0222271Y0347243D01*
X0222150Y0347141D01*
X0222027Y0347041D01*
X0221901Y0346945D01*
X0221773Y0346852D01*
X0221643Y0346762D01*
X0221510Y0346676D01*
X0221375Y0346592D01*
X0221239Y0346513D01*
X0221100Y0346436D01*
X0220959Y0346364D01*
X0220817Y0346294D01*
X0220673Y0346229D01*
X0220527Y0346167D01*
X0220380Y0346109D01*
X0220231Y0346054D01*
X0220081Y0346003D01*
X0219930Y0345956D01*
X0219778Y0345913D01*
X0219625Y0345874D01*
X0219470Y0345838D01*
X0219315Y0345807D01*
X0219159Y0345779D01*
X0219003Y0345755D01*
X0218846Y0345735D01*
X0218688Y0345719D01*
X0218531Y0345707D01*
X0218372Y0345699D01*
X0218214Y0345695D01*
X0218056Y0345695D01*
X0217898Y0345699D01*
X0217739Y0345707D01*
X0217582Y0345719D01*
X0217424Y0345735D01*
X0217267Y0345755D01*
X0217111Y0345779D01*
X0216955Y0345807D01*
X0216800Y0345838D01*
X0216645Y0345874D01*
X0216492Y0345913D01*
X0216340Y0345956D01*
X0216189Y0346003D01*
X0216039Y0346054D01*
X0215890Y0346109D01*
X0215743Y0346167D01*
X0215597Y0346229D01*
X0215453Y0346294D01*
X0215311Y0346364D01*
X0215170Y0346436D01*
X0215031Y0346513D01*
X0214895Y0346592D01*
X0214760Y0346676D01*
X0214627Y0346762D01*
X0214497Y0346852D01*
X0214369Y0346945D01*
X0214243Y0347041D01*
X0214120Y0347141D01*
X0213999Y0347243D01*
X0213881Y0347348D01*
X0213766Y0347457D01*
X0213653Y0347568D01*
X0213543Y0347682D01*
X0213436Y0347799D01*
X0213332Y0347918D01*
X0213231Y0348040D01*
X0213134Y0348165D01*
X0213039Y0348292D01*
X0212948Y0348421D01*
X0212859Y0348552D01*
X0212775Y0348686D01*
X0212693Y0348822D01*
X0212615Y0348959D01*
X0212541Y0349099D01*
X0212470Y0349241D01*
X0212402Y0349384D01*
X0212338Y0349529D01*
X0212278Y0349675D01*
X0212222Y0349823D01*
X0212169Y0349972D01*
X0212120Y0350123D01*
X0212075Y0350275D01*
X0212034Y0350428D01*
X0211996Y0350581D01*
X0211963Y0350736D01*
X0211933Y0350892D01*
X0211907Y0351048D01*
X0211886Y0351205D01*
X0211868Y0351362D01*
X0211854Y0351520D01*
X0211844Y0351678D01*
X0211838Y0351836D01*
X0211836Y0351994D01*
X0192289Y0169474D02*
X0192291Y0169599D01*
X0192297Y0169724D01*
X0192307Y0169848D01*
X0192321Y0169972D01*
X0192338Y0170096D01*
X0192360Y0170219D01*
X0192386Y0170341D01*
X0192415Y0170463D01*
X0192448Y0170583D01*
X0192486Y0170702D01*
X0192526Y0170821D01*
X0192571Y0170937D01*
X0192619Y0171052D01*
X0192671Y0171166D01*
X0192727Y0171278D01*
X0192786Y0171388D01*
X0192848Y0171496D01*
X0192914Y0171603D01*
X0192983Y0171707D01*
X0193056Y0171808D01*
X0193131Y0171908D01*
X0193210Y0172005D01*
X0193292Y0172099D01*
X0193377Y0172191D01*
X0193464Y0172280D01*
X0193555Y0172366D01*
X0193648Y0172449D01*
X0193744Y0172530D01*
X0193842Y0172607D01*
X0193942Y0172681D01*
X0194045Y0172752D01*
X0194150Y0172819D01*
X0194258Y0172884D01*
X0194367Y0172944D01*
X0194478Y0173002D01*
X0194591Y0173055D01*
X0194705Y0173105D01*
X0194821Y0173152D01*
X0194938Y0173194D01*
X0195057Y0173233D01*
X0195177Y0173269D01*
X0195298Y0173300D01*
X0195420Y0173328D01*
X0195542Y0173351D01*
X0195666Y0173371D01*
X0195790Y0173387D01*
X0195914Y0173399D01*
X0196039Y0173407D01*
X0196164Y0173411D01*
X0196288Y0173411D01*
X0196413Y0173407D01*
X0196538Y0173399D01*
X0196662Y0173387D01*
X0196786Y0173371D01*
X0196910Y0173351D01*
X0197032Y0173328D01*
X0197154Y0173300D01*
X0197275Y0173269D01*
X0197395Y0173233D01*
X0197514Y0173194D01*
X0197631Y0173152D01*
X0197747Y0173105D01*
X0197861Y0173055D01*
X0197974Y0173002D01*
X0198085Y0172944D01*
X0198195Y0172884D01*
X0198302Y0172819D01*
X0198407Y0172752D01*
X0198510Y0172681D01*
X0198610Y0172607D01*
X0198708Y0172530D01*
X0198804Y0172449D01*
X0198897Y0172366D01*
X0198988Y0172280D01*
X0199075Y0172191D01*
X0199160Y0172099D01*
X0199242Y0172005D01*
X0199321Y0171908D01*
X0199396Y0171808D01*
X0199469Y0171707D01*
X0199538Y0171603D01*
X0199604Y0171496D01*
X0199666Y0171388D01*
X0199725Y0171278D01*
X0199781Y0171166D01*
X0199833Y0171052D01*
X0199881Y0170937D01*
X0199926Y0170821D01*
X0199966Y0170702D01*
X0200004Y0170583D01*
X0200037Y0170463D01*
X0200066Y0170341D01*
X0200092Y0170219D01*
X0200114Y0170096D01*
X0200131Y0169972D01*
X0200145Y0169848D01*
X0200155Y0169724D01*
X0200161Y0169599D01*
X0200163Y0169474D01*
X0200161Y0169349D01*
X0200155Y0169224D01*
X0200145Y0169100D01*
X0200131Y0168976D01*
X0200114Y0168852D01*
X0200092Y0168729D01*
X0200066Y0168607D01*
X0200037Y0168485D01*
X0200004Y0168365D01*
X0199966Y0168246D01*
X0199926Y0168127D01*
X0199881Y0168011D01*
X0199833Y0167896D01*
X0199781Y0167782D01*
X0199725Y0167670D01*
X0199666Y0167560D01*
X0199604Y0167452D01*
X0199538Y0167345D01*
X0199469Y0167241D01*
X0199396Y0167140D01*
X0199321Y0167040D01*
X0199242Y0166943D01*
X0199160Y0166849D01*
X0199075Y0166757D01*
X0198988Y0166668D01*
X0198897Y0166582D01*
X0198804Y0166499D01*
X0198708Y0166418D01*
X0198610Y0166341D01*
X0198510Y0166267D01*
X0198407Y0166196D01*
X0198302Y0166129D01*
X0198194Y0166064D01*
X0198085Y0166004D01*
X0197974Y0165946D01*
X0197861Y0165893D01*
X0197747Y0165843D01*
X0197631Y0165796D01*
X0197514Y0165754D01*
X0197395Y0165715D01*
X0197275Y0165679D01*
X0197154Y0165648D01*
X0197032Y0165620D01*
X0196910Y0165597D01*
X0196786Y0165577D01*
X0196662Y0165561D01*
X0196538Y0165549D01*
X0196413Y0165541D01*
X0196288Y0165537D01*
X0196164Y0165537D01*
X0196039Y0165541D01*
X0195914Y0165549D01*
X0195790Y0165561D01*
X0195666Y0165577D01*
X0195542Y0165597D01*
X0195420Y0165620D01*
X0195298Y0165648D01*
X0195177Y0165679D01*
X0195057Y0165715D01*
X0194938Y0165754D01*
X0194821Y0165796D01*
X0194705Y0165843D01*
X0194591Y0165893D01*
X0194478Y0165946D01*
X0194367Y0166004D01*
X0194257Y0166064D01*
X0194150Y0166129D01*
X0194045Y0166196D01*
X0193942Y0166267D01*
X0193842Y0166341D01*
X0193744Y0166418D01*
X0193648Y0166499D01*
X0193555Y0166582D01*
X0193464Y0166668D01*
X0193377Y0166757D01*
X0193292Y0166849D01*
X0193210Y0166943D01*
X0193131Y0167040D01*
X0193056Y0167140D01*
X0192983Y0167241D01*
X0192914Y0167345D01*
X0192848Y0167452D01*
X0192786Y0167560D01*
X0192727Y0167670D01*
X0192671Y0167782D01*
X0192619Y0167896D01*
X0192571Y0168011D01*
X0192526Y0168127D01*
X0192486Y0168246D01*
X0192448Y0168365D01*
X0192415Y0168485D01*
X0192386Y0168607D01*
X0192360Y0168729D01*
X0192338Y0168852D01*
X0192321Y0168976D01*
X0192307Y0169100D01*
X0192297Y0169224D01*
X0192291Y0169349D01*
X0192289Y0169474D01*
X0211836Y0017348D02*
X0211838Y0017506D01*
X0211844Y0017664D01*
X0211854Y0017822D01*
X0211868Y0017980D01*
X0211886Y0018137D01*
X0211907Y0018294D01*
X0211933Y0018450D01*
X0211963Y0018606D01*
X0211996Y0018761D01*
X0212034Y0018914D01*
X0212075Y0019067D01*
X0212120Y0019219D01*
X0212169Y0019370D01*
X0212222Y0019519D01*
X0212278Y0019667D01*
X0212338Y0019813D01*
X0212402Y0019958D01*
X0212470Y0020101D01*
X0212541Y0020243D01*
X0212615Y0020383D01*
X0212693Y0020520D01*
X0212775Y0020656D01*
X0212859Y0020790D01*
X0212948Y0020921D01*
X0213039Y0021050D01*
X0213134Y0021177D01*
X0213231Y0021302D01*
X0213332Y0021424D01*
X0213436Y0021543D01*
X0213543Y0021660D01*
X0213653Y0021774D01*
X0213766Y0021885D01*
X0213881Y0021994D01*
X0213999Y0022099D01*
X0214120Y0022201D01*
X0214243Y0022301D01*
X0214369Y0022397D01*
X0214497Y0022490D01*
X0214627Y0022580D01*
X0214760Y0022666D01*
X0214895Y0022750D01*
X0215031Y0022829D01*
X0215170Y0022906D01*
X0215311Y0022978D01*
X0215453Y0023048D01*
X0215597Y0023113D01*
X0215743Y0023175D01*
X0215890Y0023233D01*
X0216039Y0023288D01*
X0216189Y0023339D01*
X0216340Y0023386D01*
X0216492Y0023429D01*
X0216645Y0023468D01*
X0216800Y0023504D01*
X0216955Y0023535D01*
X0217111Y0023563D01*
X0217267Y0023587D01*
X0217424Y0023607D01*
X0217582Y0023623D01*
X0217739Y0023635D01*
X0217898Y0023643D01*
X0218056Y0023647D01*
X0218214Y0023647D01*
X0218372Y0023643D01*
X0218531Y0023635D01*
X0218688Y0023623D01*
X0218846Y0023607D01*
X0219003Y0023587D01*
X0219159Y0023563D01*
X0219315Y0023535D01*
X0219470Y0023504D01*
X0219625Y0023468D01*
X0219778Y0023429D01*
X0219930Y0023386D01*
X0220081Y0023339D01*
X0220231Y0023288D01*
X0220380Y0023233D01*
X0220527Y0023175D01*
X0220673Y0023113D01*
X0220817Y0023048D01*
X0220959Y0022978D01*
X0221100Y0022906D01*
X0221239Y0022829D01*
X0221375Y0022750D01*
X0221510Y0022666D01*
X0221643Y0022580D01*
X0221773Y0022490D01*
X0221901Y0022397D01*
X0222027Y0022301D01*
X0222150Y0022201D01*
X0222271Y0022099D01*
X0222389Y0021994D01*
X0222504Y0021885D01*
X0222617Y0021774D01*
X0222727Y0021660D01*
X0222834Y0021543D01*
X0222938Y0021424D01*
X0223039Y0021302D01*
X0223136Y0021177D01*
X0223231Y0021050D01*
X0223322Y0020921D01*
X0223411Y0020790D01*
X0223495Y0020656D01*
X0223577Y0020520D01*
X0223655Y0020383D01*
X0223729Y0020243D01*
X0223800Y0020101D01*
X0223868Y0019958D01*
X0223932Y0019813D01*
X0223992Y0019667D01*
X0224048Y0019519D01*
X0224101Y0019370D01*
X0224150Y0019219D01*
X0224195Y0019067D01*
X0224236Y0018914D01*
X0224274Y0018761D01*
X0224307Y0018606D01*
X0224337Y0018450D01*
X0224363Y0018294D01*
X0224384Y0018137D01*
X0224402Y0017980D01*
X0224416Y0017822D01*
X0224426Y0017664D01*
X0224432Y0017506D01*
X0224434Y0017348D01*
X0224432Y0017190D01*
X0224426Y0017032D01*
X0224416Y0016874D01*
X0224402Y0016716D01*
X0224384Y0016559D01*
X0224363Y0016402D01*
X0224337Y0016246D01*
X0224307Y0016090D01*
X0224274Y0015935D01*
X0224236Y0015782D01*
X0224195Y0015629D01*
X0224150Y0015477D01*
X0224101Y0015326D01*
X0224048Y0015177D01*
X0223992Y0015029D01*
X0223932Y0014883D01*
X0223868Y0014738D01*
X0223800Y0014595D01*
X0223729Y0014453D01*
X0223655Y0014313D01*
X0223577Y0014176D01*
X0223495Y0014040D01*
X0223411Y0013906D01*
X0223322Y0013775D01*
X0223231Y0013646D01*
X0223136Y0013519D01*
X0223039Y0013394D01*
X0222938Y0013272D01*
X0222834Y0013153D01*
X0222727Y0013036D01*
X0222617Y0012922D01*
X0222504Y0012811D01*
X0222389Y0012702D01*
X0222271Y0012597D01*
X0222150Y0012495D01*
X0222027Y0012395D01*
X0221901Y0012299D01*
X0221773Y0012206D01*
X0221643Y0012116D01*
X0221510Y0012030D01*
X0221375Y0011946D01*
X0221239Y0011867D01*
X0221100Y0011790D01*
X0220959Y0011718D01*
X0220817Y0011648D01*
X0220673Y0011583D01*
X0220527Y0011521D01*
X0220380Y0011463D01*
X0220231Y0011408D01*
X0220081Y0011357D01*
X0219930Y0011310D01*
X0219778Y0011267D01*
X0219625Y0011228D01*
X0219470Y0011192D01*
X0219315Y0011161D01*
X0219159Y0011133D01*
X0219003Y0011109D01*
X0218846Y0011089D01*
X0218688Y0011073D01*
X0218531Y0011061D01*
X0218372Y0011053D01*
X0218214Y0011049D01*
X0218056Y0011049D01*
X0217898Y0011053D01*
X0217739Y0011061D01*
X0217582Y0011073D01*
X0217424Y0011089D01*
X0217267Y0011109D01*
X0217111Y0011133D01*
X0216955Y0011161D01*
X0216800Y0011192D01*
X0216645Y0011228D01*
X0216492Y0011267D01*
X0216340Y0011310D01*
X0216189Y0011357D01*
X0216039Y0011408D01*
X0215890Y0011463D01*
X0215743Y0011521D01*
X0215597Y0011583D01*
X0215453Y0011648D01*
X0215311Y0011718D01*
X0215170Y0011790D01*
X0215031Y0011867D01*
X0214895Y0011946D01*
X0214760Y0012030D01*
X0214627Y0012116D01*
X0214497Y0012206D01*
X0214369Y0012299D01*
X0214243Y0012395D01*
X0214120Y0012495D01*
X0213999Y0012597D01*
X0213881Y0012702D01*
X0213766Y0012811D01*
X0213653Y0012922D01*
X0213543Y0013036D01*
X0213436Y0013153D01*
X0213332Y0013272D01*
X0213231Y0013394D01*
X0213134Y0013519D01*
X0213039Y0013646D01*
X0212948Y0013775D01*
X0212859Y0013906D01*
X0212775Y0014040D01*
X0212693Y0014176D01*
X0212615Y0014313D01*
X0212541Y0014453D01*
X0212470Y0014595D01*
X0212402Y0014738D01*
X0212338Y0014883D01*
X0212278Y0015029D01*
X0212222Y0015177D01*
X0212169Y0015326D01*
X0212120Y0015477D01*
X0212075Y0015629D01*
X0212034Y0015782D01*
X0211996Y0015935D01*
X0211963Y0016090D01*
X0211933Y0016246D01*
X0211907Y0016402D01*
X0211886Y0016559D01*
X0211868Y0016716D01*
X0211854Y0016874D01*
X0211844Y0017032D01*
X0211838Y0017190D01*
X0211836Y0017348D01*
D11*
X0182228Y0043376D02*
X0181861Y0043009D01*
X0181127Y0043009D01*
X0180760Y0043376D01*
X0180760Y0043743D01*
X0181127Y0044110D01*
X0181861Y0044110D01*
X0182228Y0043743D01*
X0182228Y0043376D01*
X0181861Y0044110D02*
X0182228Y0044477D01*
X0182228Y0044844D01*
X0181861Y0045211D01*
X0181127Y0045211D01*
X0180760Y0044844D01*
X0180760Y0044477D01*
X0181127Y0044110D01*
X0180018Y0044844D02*
X0179651Y0045211D01*
X0178917Y0045211D01*
X0178550Y0044844D01*
X0178550Y0043376D01*
X0178917Y0043009D01*
X0179651Y0043009D01*
X0180018Y0043376D01*
X0165358Y0034826D02*
X0165358Y0033358D01*
X0164991Y0032991D01*
X0164257Y0032991D01*
X0163890Y0033358D01*
X0163148Y0033358D02*
X0162781Y0032991D01*
X0162047Y0032991D01*
X0161680Y0033358D01*
X0161680Y0034826D01*
X0162047Y0035193D01*
X0162781Y0035193D01*
X0163148Y0034826D01*
X0163890Y0034826D02*
X0163890Y0034459D01*
X0164257Y0034092D01*
X0165358Y0034092D01*
X0165358Y0034826D02*
X0164991Y0035193D01*
X0164257Y0035193D01*
X0163890Y0034826D01*
X0143150Y0047057D02*
X0143150Y0047791D01*
X0143150Y0047424D02*
X0140948Y0047424D01*
X0140948Y0047057D02*
X0140948Y0047791D01*
X0141315Y0048530D02*
X0142783Y0048530D01*
X0143150Y0048897D01*
X0143150Y0049631D01*
X0142783Y0049998D01*
X0143150Y0050740D02*
X0141682Y0052208D01*
X0141315Y0052208D01*
X0140948Y0051841D01*
X0140948Y0051107D01*
X0141315Y0050740D01*
X0141315Y0049998D02*
X0140948Y0049631D01*
X0140948Y0048897D01*
X0141315Y0048530D01*
X0143150Y0050740D02*
X0143150Y0052208D01*
X0136841Y0032752D02*
X0136107Y0032752D01*
X0135740Y0032385D01*
X0135740Y0030917D01*
X0136107Y0030550D01*
X0136841Y0030550D01*
X0137208Y0030917D01*
X0137208Y0032385D02*
X0136841Y0032752D01*
X0134998Y0032752D02*
X0133530Y0032752D01*
X0134264Y0032752D02*
X0134264Y0030550D01*
X0232950Y0075700D02*
X0233684Y0075700D01*
X0233317Y0075700D02*
X0233317Y0077902D01*
X0232950Y0077902D02*
X0233684Y0077902D01*
X0245507Y0083297D02*
X0245874Y0082930D01*
X0247342Y0082930D01*
X0247709Y0083297D01*
X0247709Y0084031D01*
X0247342Y0084398D01*
X0247342Y0085140D02*
X0247709Y0085140D01*
X0247342Y0085140D02*
X0245874Y0086608D01*
X0245507Y0086608D01*
X0245507Y0085140D01*
X0245874Y0084398D02*
X0245507Y0084031D01*
X0245507Y0083297D01*
X0252950Y0089200D02*
X0252950Y0091402D01*
X0254051Y0091402D01*
X0254418Y0091035D01*
X0254418Y0090301D01*
X0254051Y0089934D01*
X0252950Y0089934D01*
X0253684Y0089934D02*
X0254418Y0089200D01*
X0255160Y0089200D02*
X0256628Y0090668D01*
X0256628Y0091035D01*
X0256261Y0091402D01*
X0255527Y0091402D01*
X0255160Y0091035D01*
X0255160Y0089200D02*
X0256628Y0089200D01*
X0265448Y0074341D02*
X0266549Y0073240D01*
X0266549Y0074708D01*
X0267650Y0074341D02*
X0265448Y0074341D01*
X0265815Y0072498D02*
X0266549Y0072498D01*
X0266916Y0072131D01*
X0266916Y0071030D01*
X0267650Y0071030D02*
X0265448Y0071030D01*
X0265448Y0072131D01*
X0265815Y0072498D01*
X0266916Y0071764D02*
X0267650Y0072498D01*
X0281030Y0083050D02*
X0281030Y0085252D01*
X0282131Y0085252D01*
X0282498Y0084885D01*
X0282498Y0084151D01*
X0282131Y0083784D01*
X0281030Y0083784D01*
X0281764Y0083784D02*
X0282498Y0083050D01*
X0283240Y0083417D02*
X0283607Y0083050D01*
X0284341Y0083050D01*
X0284708Y0083417D01*
X0284708Y0084151D01*
X0284341Y0084518D01*
X0283974Y0084518D01*
X0283240Y0084151D01*
X0283240Y0085252D01*
X0284708Y0085252D01*
X0284341Y0089300D02*
X0284708Y0089667D01*
X0284708Y0090034D01*
X0284341Y0090401D01*
X0283240Y0090401D01*
X0283240Y0089667D01*
X0283607Y0089300D01*
X0284341Y0089300D01*
X0283240Y0090401D02*
X0283974Y0091135D01*
X0284708Y0091502D01*
X0282498Y0091135D02*
X0282498Y0090401D01*
X0282131Y0090034D01*
X0281030Y0090034D01*
X0281030Y0089300D02*
X0281030Y0091502D01*
X0282131Y0091502D01*
X0282498Y0091135D01*
X0281764Y0090034D02*
X0282498Y0089300D01*
X0282930Y0096741D02*
X0284398Y0096741D01*
X0283664Y0096741D02*
X0283664Y0098943D01*
X0282930Y0098209D01*
X0282188Y0098576D02*
X0281821Y0098943D01*
X0281087Y0098943D01*
X0280720Y0098576D01*
X0280720Y0097108D01*
X0281087Y0096741D01*
X0281821Y0096741D01*
X0282188Y0097108D01*
X0285140Y0096741D02*
X0286608Y0098209D01*
X0286608Y0098576D01*
X0286241Y0098943D01*
X0285507Y0098943D01*
X0285140Y0098576D01*
X0285140Y0096741D02*
X0286608Y0096741D01*
X0283910Y0105450D02*
X0283910Y0105817D01*
X0285378Y0107285D01*
X0285378Y0107652D01*
X0283910Y0107652D01*
X0283168Y0107285D02*
X0283168Y0106551D01*
X0282801Y0106184D01*
X0281700Y0106184D01*
X0282434Y0106184D02*
X0283168Y0105450D01*
X0281700Y0105450D02*
X0281700Y0107652D01*
X0282801Y0107652D01*
X0283168Y0107285D01*
X0255668Y0112684D02*
X0255668Y0114152D01*
X0254200Y0114152D02*
X0254200Y0112684D01*
X0254934Y0111950D01*
X0255668Y0112684D01*
X0252144Y0055102D02*
X0252144Y0052900D01*
X0251410Y0052900D02*
X0252878Y0052900D01*
X0251410Y0054368D02*
X0252144Y0055102D01*
X0250668Y0054735D02*
X0250668Y0053267D01*
X0250301Y0052900D01*
X0249567Y0052900D01*
X0249200Y0053267D01*
X0249200Y0054735D01*
X0249567Y0055102D01*
X0250301Y0055102D01*
X0250668Y0054735D01*
X0249934Y0053634D02*
X0250668Y0052900D01*
X0265548Y0053620D02*
X0267750Y0055088D01*
X0265548Y0055088D01*
X0265548Y0053620D02*
X0267750Y0053620D01*
X0267750Y0052878D02*
X0266282Y0052878D01*
X0265548Y0052144D01*
X0266282Y0051410D01*
X0267750Y0051410D01*
X0266649Y0051410D02*
X0266649Y0052878D01*
X0265548Y0050668D02*
X0265548Y0049200D01*
X0267750Y0049200D01*
X0266649Y0049200D02*
X0266649Y0049934D01*
X0259883Y0034128D02*
X0258415Y0034128D01*
X0258048Y0033761D01*
X0258048Y0033027D01*
X0258415Y0032660D01*
X0258782Y0032660D01*
X0259149Y0033027D01*
X0259149Y0034128D01*
X0259883Y0034128D02*
X0260250Y0033761D01*
X0260250Y0033027D01*
X0259883Y0032660D01*
X0259883Y0031918D02*
X0258415Y0031918D01*
X0258048Y0031551D01*
X0258048Y0030450D01*
X0260250Y0030450D01*
X0260250Y0031551D01*
X0259883Y0031918D01*
X0172878Y0165200D02*
X0171410Y0165200D01*
X0172144Y0165200D02*
X0172144Y0167402D01*
X0171410Y0166668D01*
X0170668Y0167402D02*
X0169200Y0165200D01*
X0170668Y0165200D02*
X0169200Y0167402D01*
X0146459Y0168587D02*
X0146459Y0169321D01*
X0146092Y0169688D01*
X0146459Y0170430D02*
X0146459Y0171898D01*
X0146459Y0171164D02*
X0144257Y0171164D01*
X0144991Y0170430D01*
X0144624Y0169688D02*
X0144257Y0169321D01*
X0144257Y0168587D01*
X0144624Y0168220D01*
X0146092Y0168220D01*
X0146459Y0168587D01*
X0146092Y0172640D02*
X0146459Y0173007D01*
X0146459Y0173741D01*
X0146092Y0174108D01*
X0145358Y0174108D01*
X0144991Y0173741D01*
X0144991Y0173374D01*
X0145358Y0172640D01*
X0144257Y0172640D01*
X0144257Y0174108D01*
X0124128Y0183200D02*
X0122660Y0185402D01*
X0121918Y0185402D02*
X0121918Y0185035D01*
X0120450Y0183567D01*
X0120450Y0183200D01*
X0121918Y0183200D01*
X0122660Y0183200D02*
X0124128Y0185402D01*
X0121918Y0185402D02*
X0120450Y0185402D01*
X0092878Y0194200D02*
X0091410Y0196402D01*
X0090668Y0196402D02*
X0089200Y0196402D01*
X0089934Y0196402D02*
X0089934Y0194200D01*
X0091410Y0194200D02*
X0092878Y0196402D01*
X0092878Y0204200D02*
X0091410Y0206402D01*
X0090668Y0206035D02*
X0090668Y0205301D01*
X0090301Y0204934D01*
X0089200Y0204934D01*
X0089934Y0204934D02*
X0090668Y0204200D01*
X0091410Y0204200D02*
X0092878Y0206402D01*
X0090668Y0206035D02*
X0090301Y0206402D01*
X0089200Y0206402D01*
X0089200Y0204200D01*
X0067208Y0191135D02*
X0067208Y0190768D01*
X0066841Y0190401D01*
X0067208Y0190034D01*
X0067208Y0189667D01*
X0066841Y0189300D01*
X0066107Y0189300D01*
X0065740Y0189667D01*
X0064998Y0189300D02*
X0064264Y0190034D01*
X0064631Y0190034D02*
X0063530Y0190034D01*
X0063530Y0189300D02*
X0063530Y0191502D01*
X0064631Y0191502D01*
X0064998Y0191135D01*
X0064998Y0190401D01*
X0064631Y0190034D01*
X0065740Y0191135D02*
X0066107Y0191502D01*
X0066841Y0191502D01*
X0067208Y0191135D01*
X0066841Y0190401D02*
X0066474Y0190401D01*
X0049533Y0209070D02*
X0049900Y0209437D01*
X0049900Y0210171D01*
X0049533Y0210538D01*
X0048065Y0210538D01*
X0047698Y0210171D01*
X0047698Y0209437D01*
X0048065Y0209070D01*
X0049533Y0209070D01*
X0049166Y0211280D02*
X0047698Y0212748D01*
X0048432Y0213490D02*
X0047698Y0214224D01*
X0049900Y0214224D01*
X0049900Y0213490D02*
X0049900Y0214958D01*
X0049900Y0212748D02*
X0048799Y0211647D01*
X0047698Y0211280D02*
X0049900Y0211280D01*
X0049916Y0246610D02*
X0049916Y0247711D01*
X0049549Y0248078D01*
X0048815Y0248078D01*
X0048448Y0247711D01*
X0048448Y0246610D01*
X0050650Y0246610D01*
X0049916Y0247344D02*
X0050650Y0248078D01*
X0050650Y0248820D02*
X0050650Y0250288D01*
X0050650Y0249554D02*
X0048448Y0249554D01*
X0049182Y0248820D01*
X0048815Y0251030D02*
X0048448Y0251397D01*
X0048448Y0252131D01*
X0048815Y0252498D01*
X0050283Y0251030D01*
X0050650Y0251397D01*
X0050650Y0252131D01*
X0050283Y0252498D01*
X0048815Y0252498D01*
X0048815Y0253240D02*
X0048448Y0253607D01*
X0048448Y0254341D01*
X0048815Y0254708D01*
X0049182Y0254708D01*
X0049549Y0254341D01*
X0049916Y0254708D01*
X0050283Y0254708D01*
X0050650Y0254341D01*
X0050650Y0253607D01*
X0050283Y0253240D01*
X0049549Y0253974D02*
X0049549Y0254341D01*
X0050283Y0251030D02*
X0048815Y0251030D01*
X0068798Y0251487D02*
X0068798Y0252221D01*
X0069165Y0252588D01*
X0070633Y0251120D01*
X0071000Y0251487D01*
X0071000Y0252221D01*
X0070633Y0252588D01*
X0069165Y0252588D01*
X0068798Y0253330D02*
X0069899Y0253330D01*
X0069532Y0254064D01*
X0069532Y0254431D01*
X0069899Y0254798D01*
X0070633Y0254798D01*
X0071000Y0254431D01*
X0071000Y0253697D01*
X0070633Y0253330D01*
X0068798Y0253330D02*
X0068798Y0254798D01*
X0068798Y0251487D02*
X0069165Y0251120D01*
X0070633Y0251120D01*
X0071000Y0250378D02*
X0071000Y0248910D01*
X0071000Y0249644D02*
X0068798Y0249644D01*
X0069532Y0248910D01*
X0069165Y0248168D02*
X0069899Y0248168D01*
X0070266Y0247801D01*
X0070266Y0246700D01*
X0070266Y0247434D02*
X0071000Y0248168D01*
X0071000Y0246700D02*
X0068798Y0246700D01*
X0068798Y0247801D01*
X0069165Y0248168D01*
X0102948Y0247791D02*
X0102948Y0247057D01*
X0102948Y0247424D02*
X0105150Y0247424D01*
X0105150Y0247057D02*
X0105150Y0247791D01*
X0104783Y0248530D02*
X0105150Y0248897D01*
X0105150Y0249631D01*
X0104783Y0249998D01*
X0104416Y0249998D01*
X0104049Y0249631D01*
X0104049Y0248897D01*
X0103682Y0248530D01*
X0103315Y0248530D01*
X0102948Y0248897D01*
X0102948Y0249631D01*
X0103315Y0249998D01*
X0102948Y0250740D02*
X0102948Y0251841D01*
X0103315Y0252208D01*
X0104049Y0252208D01*
X0104416Y0251841D01*
X0104416Y0250740D01*
X0105150Y0250740D02*
X0102948Y0250740D01*
X0101033Y0287820D02*
X0101400Y0288187D01*
X0101400Y0288921D01*
X0101033Y0289288D01*
X0101400Y0290030D02*
X0101400Y0291498D01*
X0101400Y0290764D02*
X0099198Y0290764D01*
X0099932Y0290030D01*
X0099565Y0289288D02*
X0099198Y0288921D01*
X0099198Y0288187D01*
X0099565Y0287820D01*
X0101033Y0287820D01*
X0101400Y0292240D02*
X0099198Y0293708D01*
X0099198Y0292240D02*
X0101400Y0293708D01*
X0068500Y0293471D02*
X0068500Y0292737D01*
X0068133Y0292370D01*
X0066665Y0293838D01*
X0068133Y0293838D01*
X0068500Y0293471D01*
X0068133Y0292370D02*
X0066665Y0292370D01*
X0066298Y0292737D01*
X0066298Y0293471D01*
X0066665Y0293838D01*
X0067399Y0294580D02*
X0067399Y0296048D01*
X0066298Y0295681D02*
X0067399Y0294580D01*
X0068500Y0295681D02*
X0066298Y0295681D01*
X0068500Y0291628D02*
X0068500Y0290160D01*
X0068500Y0290894D02*
X0066298Y0290894D01*
X0067032Y0290160D01*
X0066665Y0289418D02*
X0067399Y0289418D01*
X0067766Y0289051D01*
X0067766Y0287950D01*
X0067766Y0288684D02*
X0068500Y0289418D01*
X0068500Y0287950D02*
X0066298Y0287950D01*
X0066298Y0289051D01*
X0066665Y0289418D01*
X0134298Y0226117D02*
X0136500Y0226117D01*
X0136500Y0225383D02*
X0136500Y0226851D01*
X0135032Y0225383D02*
X0134298Y0226117D01*
X0134665Y0224641D02*
X0134298Y0224274D01*
X0134298Y0223540D01*
X0134665Y0223173D01*
X0136133Y0223173D01*
X0136500Y0223540D01*
X0136500Y0224274D01*
X0136133Y0224641D01*
X0136500Y0222434D02*
X0136500Y0221700D01*
X0136500Y0222067D02*
X0134298Y0222067D01*
X0134298Y0221700D02*
X0134298Y0222434D01*
X0151757Y0238587D02*
X0152124Y0238220D01*
X0153592Y0238220D01*
X0153959Y0238587D01*
X0153959Y0239321D01*
X0153592Y0239688D01*
X0153959Y0240430D02*
X0152491Y0240430D01*
X0151757Y0241164D01*
X0152491Y0241898D01*
X0153959Y0241898D01*
X0153959Y0242640D02*
X0152491Y0244108D01*
X0152124Y0244108D01*
X0151757Y0243741D01*
X0151757Y0243007D01*
X0152124Y0242640D01*
X0152858Y0241898D02*
X0152858Y0240430D01*
X0152124Y0239688D02*
X0151757Y0239321D01*
X0151757Y0238587D01*
X0153959Y0242640D02*
X0153959Y0244108D01*
X0159239Y0243704D02*
X0161441Y0243704D01*
X0161441Y0242970D02*
X0161441Y0244438D01*
X0159973Y0242970D02*
X0159239Y0243704D01*
X0159973Y0242228D02*
X0161441Y0242228D01*
X0160340Y0242228D02*
X0160340Y0240760D01*
X0159973Y0240760D02*
X0159239Y0241494D01*
X0159973Y0242228D01*
X0159973Y0240760D02*
X0161441Y0240760D01*
X0161074Y0240018D02*
X0161441Y0239651D01*
X0161441Y0238917D01*
X0161074Y0238550D01*
X0159606Y0238550D01*
X0159239Y0238917D01*
X0159239Y0239651D01*
X0159606Y0240018D01*
X0169364Y0251751D02*
X0170098Y0251751D01*
X0170465Y0252118D01*
X0171207Y0251751D02*
X0172675Y0251751D01*
X0171941Y0251751D02*
X0171941Y0253953D01*
X0171207Y0253219D01*
X0170465Y0253586D02*
X0170098Y0253953D01*
X0169364Y0253953D01*
X0168998Y0253586D01*
X0168998Y0252118D01*
X0169364Y0251751D01*
X0173417Y0252852D02*
X0174885Y0252852D01*
X0174518Y0253953D02*
X0173417Y0252852D01*
X0174518Y0251751D02*
X0174518Y0253953D01*
X0191700Y0237902D02*
X0191700Y0236434D01*
X0192434Y0235700D01*
X0193168Y0236434D01*
X0193168Y0237902D01*
X0193910Y0237535D02*
X0193910Y0236067D01*
X0194277Y0235700D01*
X0195011Y0235700D01*
X0195378Y0236067D01*
X0196120Y0236067D02*
X0196487Y0235700D01*
X0197221Y0235700D01*
X0197588Y0236067D01*
X0197588Y0237535D02*
X0197221Y0237902D01*
X0196487Y0237902D01*
X0196120Y0237535D01*
X0196120Y0236067D01*
X0195378Y0237535D02*
X0195011Y0237902D01*
X0194277Y0237902D01*
X0193910Y0237535D01*
X0183104Y0225152D02*
X0183104Y0222950D01*
X0182370Y0222950D02*
X0183838Y0222950D01*
X0182370Y0224418D02*
X0183104Y0225152D01*
X0181628Y0224418D02*
X0181628Y0222950D01*
X0181628Y0224051D02*
X0180160Y0224051D01*
X0180160Y0224418D02*
X0180894Y0225152D01*
X0181628Y0224418D01*
X0180160Y0224418D02*
X0180160Y0222950D01*
X0179418Y0222950D02*
X0177950Y0222950D01*
X0177950Y0225152D01*
X0152491Y0272991D02*
X0151757Y0272991D01*
X0151390Y0273358D01*
X0151390Y0274092D01*
X0152491Y0274092D01*
X0152858Y0273725D01*
X0152858Y0273358D01*
X0152491Y0272991D01*
X0151390Y0274092D02*
X0152124Y0274826D01*
X0152858Y0275193D01*
X0149914Y0275193D02*
X0149914Y0272991D01*
X0149180Y0272991D02*
X0150648Y0272991D01*
X0149180Y0274459D02*
X0149914Y0275193D01*
X0148438Y0274826D02*
X0148071Y0275193D01*
X0147337Y0275193D01*
X0146970Y0274826D01*
X0146970Y0273358D01*
X0147337Y0272991D01*
X0148071Y0272991D01*
X0148438Y0273358D01*
X0168187Y0295550D02*
X0168921Y0295550D01*
X0169288Y0295917D01*
X0170030Y0295550D02*
X0171498Y0297018D01*
X0171498Y0297385D01*
X0171131Y0297752D01*
X0170397Y0297752D01*
X0170030Y0297385D01*
X0169288Y0297385D02*
X0168921Y0297752D01*
X0168187Y0297752D01*
X0167820Y0297385D01*
X0167820Y0295917D01*
X0168187Y0295550D01*
X0170030Y0295550D02*
X0171498Y0295550D01*
X0172240Y0295550D02*
X0173708Y0297752D01*
X0172240Y0297752D02*
X0173708Y0295550D01*
X0217280Y0271135D02*
X0217280Y0269667D01*
X0217647Y0269300D01*
X0218381Y0269300D01*
X0218748Y0269667D01*
X0219490Y0269300D02*
X0220958Y0270768D01*
X0220958Y0271135D01*
X0220591Y0271502D01*
X0219857Y0271502D01*
X0219490Y0271135D01*
X0218748Y0271135D02*
X0218381Y0271502D01*
X0217647Y0271502D01*
X0217280Y0271135D01*
X0219490Y0269300D02*
X0220958Y0269300D01*
X0227057Y0281600D02*
X0227791Y0281600D01*
X0227424Y0281600D02*
X0227424Y0283802D01*
X0227057Y0283802D02*
X0227791Y0283802D01*
X0228530Y0283435D02*
X0228530Y0281967D01*
X0228897Y0281600D01*
X0229631Y0281600D01*
X0229998Y0281967D01*
X0230740Y0281967D02*
X0231107Y0281600D01*
X0231841Y0281600D01*
X0232208Y0281967D01*
X0232208Y0282334D01*
X0231841Y0282701D01*
X0231474Y0282701D01*
X0231841Y0282701D02*
X0232208Y0283068D01*
X0232208Y0283435D01*
X0231841Y0283802D01*
X0231107Y0283802D01*
X0230740Y0283435D01*
X0229998Y0283435D02*
X0229631Y0283802D01*
X0228897Y0283802D01*
X0228530Y0283435D01*
X0236523Y0279834D02*
X0236523Y0278366D01*
X0236890Y0277999D01*
X0237624Y0277999D01*
X0237991Y0278366D01*
X0238733Y0278366D02*
X0239100Y0277999D01*
X0239834Y0277999D01*
X0240201Y0278366D01*
X0240201Y0278733D01*
X0239834Y0279100D01*
X0239467Y0279100D01*
X0239834Y0279100D02*
X0240201Y0279467D01*
X0240201Y0279834D01*
X0239834Y0280201D01*
X0239100Y0280201D01*
X0238733Y0279834D01*
X0237991Y0279834D02*
X0237624Y0280201D01*
X0236890Y0280201D01*
X0236523Y0279834D01*
X0244780Y0280917D02*
X0245147Y0280550D01*
X0245881Y0280550D01*
X0246248Y0280917D01*
X0246990Y0280917D02*
X0247357Y0280550D01*
X0248091Y0280550D01*
X0248458Y0280917D01*
X0248458Y0281651D01*
X0248091Y0282018D01*
X0247724Y0282018D01*
X0246990Y0281651D01*
X0246990Y0282752D01*
X0248458Y0282752D01*
X0246248Y0282385D02*
X0245881Y0282752D01*
X0245147Y0282752D01*
X0244780Y0282385D01*
X0244780Y0280917D01*
X0256030Y0286800D02*
X0257131Y0286800D01*
X0257498Y0287167D01*
X0257498Y0288635D01*
X0257131Y0289002D01*
X0256030Y0289002D01*
X0256030Y0286800D01*
X0258240Y0286800D02*
X0259708Y0286800D01*
X0258974Y0286800D02*
X0258974Y0289002D01*
X0258240Y0288268D01*
X0272280Y0289002D02*
X0273381Y0289002D01*
X0273748Y0288635D01*
X0273748Y0287167D01*
X0273381Y0286800D01*
X0272280Y0286800D01*
X0272280Y0289002D01*
X0274490Y0288635D02*
X0274857Y0289002D01*
X0275591Y0289002D01*
X0275958Y0288635D01*
X0275958Y0288268D01*
X0274490Y0286800D01*
X0275958Y0286800D01*
X0279780Y0318050D02*
X0280881Y0318050D01*
X0281248Y0318417D01*
X0281248Y0319885D01*
X0280881Y0320252D01*
X0279780Y0320252D01*
X0279780Y0318050D01*
X0281990Y0319151D02*
X0283458Y0319151D01*
X0283091Y0318050D02*
X0283091Y0320252D01*
X0281990Y0319151D01*
X0282054Y0331800D02*
X0282054Y0334002D01*
X0281320Y0334002D02*
X0282788Y0334002D01*
X0283530Y0334002D02*
X0284998Y0331800D01*
X0285740Y0331800D02*
X0287208Y0331800D01*
X0286474Y0331800D02*
X0286474Y0334002D01*
X0285740Y0333268D01*
X0284998Y0334002D02*
X0283530Y0331800D01*
X0268458Y0319885D02*
X0268458Y0319518D01*
X0268091Y0319151D01*
X0268458Y0318784D01*
X0268458Y0318417D01*
X0268091Y0318050D01*
X0267357Y0318050D01*
X0266990Y0318417D01*
X0266248Y0318417D02*
X0266248Y0319885D01*
X0265881Y0320252D01*
X0264780Y0320252D01*
X0264780Y0318050D01*
X0265881Y0318050D01*
X0266248Y0318417D01*
X0266990Y0319885D02*
X0267357Y0320252D01*
X0268091Y0320252D01*
X0268458Y0319885D01*
X0268091Y0319151D02*
X0267724Y0319151D01*
X0247208Y0319151D02*
X0247208Y0318417D01*
X0246841Y0318050D01*
X0246107Y0318050D01*
X0245740Y0318417D01*
X0245740Y0319151D02*
X0246474Y0319518D01*
X0246841Y0319518D01*
X0247208Y0319151D01*
X0247208Y0320252D02*
X0245740Y0320252D01*
X0245740Y0319151D01*
X0244998Y0319885D02*
X0244631Y0320252D01*
X0243530Y0320252D01*
X0243530Y0318050D01*
X0244631Y0318050D01*
X0244998Y0318417D01*
X0244998Y0319885D01*
X0237208Y0330550D02*
X0235740Y0330550D01*
X0236474Y0330550D02*
X0236474Y0332752D01*
X0235740Y0332018D01*
X0234998Y0332385D02*
X0234998Y0331651D01*
X0234631Y0331284D01*
X0233530Y0331284D01*
X0233530Y0330550D02*
X0233530Y0332752D01*
X0234631Y0332752D01*
X0234998Y0332385D01*
X0234264Y0331284D02*
X0234998Y0330550D01*
X0222878Y0252652D02*
X0222144Y0252285D01*
X0221410Y0251551D01*
X0222511Y0251551D01*
X0222878Y0251184D01*
X0222878Y0250817D01*
X0222511Y0250450D01*
X0221777Y0250450D01*
X0221410Y0250817D01*
X0221410Y0251551D01*
X0220668Y0250817D02*
X0220668Y0252285D01*
X0220301Y0252652D01*
X0219200Y0252652D01*
X0219200Y0250450D01*
X0220301Y0250450D01*
X0220668Y0250817D01*
X0251749Y0224834D02*
X0252850Y0223733D01*
X0252850Y0225201D01*
X0253951Y0224834D02*
X0251749Y0224834D01*
X0252116Y0222991D02*
X0251749Y0222624D01*
X0251749Y0221890D01*
X0252116Y0221523D01*
X0253584Y0221523D01*
X0253951Y0221890D01*
X0253951Y0222624D01*
X0253584Y0222991D01*
X0284998Y0219958D02*
X0285365Y0219224D01*
X0286099Y0218490D01*
X0286099Y0219591D01*
X0286466Y0219958D01*
X0286833Y0219958D01*
X0287200Y0219591D01*
X0287200Y0218857D01*
X0286833Y0218490D01*
X0286099Y0218490D01*
X0285365Y0217748D02*
X0284998Y0217381D01*
X0284998Y0216647D01*
X0285365Y0216280D01*
X0286833Y0216280D01*
X0287200Y0216647D01*
X0287200Y0217381D01*
X0286833Y0217748D01*
D12*
X0271700Y0204764D02*
X0271700Y0203530D01*
X0271083Y0202913D01*
X0270466Y0202913D01*
X0269848Y0203530D01*
X0269848Y0204764D01*
X0270466Y0205382D01*
X0271083Y0205382D01*
X0271700Y0204764D01*
X0269848Y0204764D02*
X0269231Y0205382D01*
X0268614Y0205382D01*
X0267997Y0204764D01*
X0267997Y0203530D01*
X0268614Y0202913D01*
X0269231Y0202913D01*
X0269848Y0203530D01*
X0269848Y0201698D02*
X0271083Y0201698D01*
X0271700Y0201081D01*
X0271700Y0199847D01*
X0271083Y0199230D01*
X0271083Y0198015D02*
X0271700Y0197398D01*
X0271700Y0196164D01*
X0271083Y0195547D01*
X0270466Y0195547D01*
X0269848Y0196164D01*
X0269848Y0197398D01*
X0270466Y0198015D01*
X0271083Y0198015D01*
X0269848Y0197398D02*
X0269231Y0198015D01*
X0268614Y0198015D01*
X0267997Y0197398D01*
X0267997Y0196164D01*
X0268614Y0195547D01*
X0269231Y0195547D01*
X0269848Y0196164D01*
X0269231Y0194329D02*
X0269231Y0193712D01*
X0270466Y0192477D01*
X0271700Y0192477D02*
X0269231Y0192477D01*
X0269231Y0190639D02*
X0271700Y0190639D01*
X0271700Y0190022D02*
X0271700Y0191256D01*
X0271700Y0188808D02*
X0269231Y0188808D01*
X0267997Y0187573D01*
X0269231Y0186339D01*
X0271700Y0186339D01*
X0269848Y0186339D02*
X0269848Y0188808D01*
X0269231Y0190022D02*
X0269231Y0190639D01*
X0267997Y0190639D02*
X0267380Y0190639D01*
X0267997Y0185124D02*
X0271700Y0182656D01*
X0271700Y0180207D02*
X0267997Y0180207D01*
X0267997Y0181441D02*
X0267997Y0178972D01*
X0267997Y0177751D02*
X0267997Y0176517D01*
X0267997Y0177134D02*
X0271700Y0177134D01*
X0271700Y0176517D02*
X0271700Y0177751D01*
X0269848Y0175303D02*
X0270466Y0174685D01*
X0270466Y0172834D01*
X0271700Y0172834D02*
X0267997Y0172834D01*
X0267997Y0174685D01*
X0268614Y0175303D01*
X0269848Y0175303D01*
X0269231Y0171620D02*
X0271700Y0169151D01*
X0271083Y0167936D02*
X0271700Y0167319D01*
X0271700Y0166085D01*
X0271083Y0165468D01*
X0268614Y0167936D01*
X0271083Y0167936D01*
X0269231Y0169151D02*
X0271700Y0171620D01*
X0268614Y0167936D02*
X0267997Y0167319D01*
X0267997Y0166085D01*
X0268614Y0165468D01*
X0271083Y0165468D01*
X0267997Y0164253D02*
X0271700Y0161784D01*
X0271700Y0160570D02*
X0269848Y0160570D01*
X0269231Y0159953D01*
X0269848Y0159336D01*
X0271700Y0159336D01*
X0271700Y0158101D02*
X0269231Y0158101D01*
X0269231Y0158718D01*
X0269848Y0159336D01*
X0269848Y0156887D02*
X0269231Y0156270D01*
X0269231Y0155035D01*
X0269848Y0154418D01*
X0271083Y0154418D01*
X0271700Y0155035D01*
X0271700Y0156270D01*
X0271083Y0156887D01*
X0269848Y0156887D01*
X0269231Y0153204D02*
X0269231Y0151352D01*
X0269848Y0150735D01*
X0271083Y0150735D01*
X0271700Y0151352D01*
X0271700Y0153204D01*
X0271700Y0149511D02*
X0271083Y0149511D01*
X0271083Y0148893D01*
X0271700Y0148893D01*
X0271700Y0149511D01*
X0271083Y0147679D02*
X0269848Y0147679D01*
X0269231Y0147062D01*
X0269231Y0145210D01*
X0269231Y0143996D02*
X0271700Y0143996D01*
X0271700Y0142144D01*
X0271083Y0141527D01*
X0269231Y0141527D01*
X0269848Y0140313D02*
X0271700Y0140313D01*
X0269848Y0140313D02*
X0269231Y0139696D01*
X0269231Y0138461D01*
X0269848Y0137844D01*
X0269231Y0136623D02*
X0269231Y0135389D01*
X0268614Y0136006D02*
X0271083Y0136006D01*
X0271700Y0136623D01*
X0271700Y0137844D02*
X0267997Y0137844D01*
X0267997Y0133550D02*
X0267380Y0133550D01*
X0269231Y0133550D02*
X0269231Y0132933D01*
X0269231Y0133550D02*
X0271700Y0133550D01*
X0271700Y0132933D02*
X0271700Y0134168D01*
X0271700Y0131719D02*
X0271700Y0129867D01*
X0271083Y0129250D01*
X0269848Y0129250D01*
X0269231Y0129867D01*
X0269231Y0131719D01*
X0272317Y0131719D01*
X0272934Y0131102D01*
X0272934Y0130484D01*
X0275231Y0130484D02*
X0276466Y0129250D01*
X0277700Y0129250D02*
X0275231Y0129250D01*
X0275231Y0130484D02*
X0275231Y0131102D01*
X0275848Y0132319D02*
X0275231Y0132936D01*
X0275231Y0134171D01*
X0275848Y0134788D01*
X0276466Y0134788D01*
X0276466Y0132319D01*
X0277083Y0132319D02*
X0275848Y0132319D01*
X0277083Y0132319D02*
X0277700Y0132936D01*
X0277700Y0134171D01*
X0277700Y0137237D02*
X0275231Y0138471D01*
X0277083Y0139686D02*
X0277083Y0140303D01*
X0277700Y0140303D01*
X0277700Y0139686D01*
X0277083Y0139686D01*
X0277700Y0137237D02*
X0275231Y0136002D01*
X0275231Y0145210D02*
X0273997Y0146445D01*
X0277700Y0146445D01*
X0277700Y0147679D02*
X0277700Y0145210D01*
X0271700Y0145210D02*
X0271700Y0147062D01*
X0271083Y0147679D01*
X0271700Y0145210D02*
X0267997Y0145210D01*
X0267997Y0199230D02*
X0269848Y0199230D01*
X0269231Y0200464D01*
X0269231Y0201081D01*
X0269848Y0201698D01*
X0267997Y0201698D02*
X0267997Y0199230D01*
D13*
X0125100Y0304100D02*
X0125100Y0309100D01*
X0125100Y0314100D01*
X0121600Y0314100D02*
X0121600Y0309100D01*
X0121600Y0304100D01*
X0095100Y0304600D02*
X0091600Y0304600D01*
X0088100Y0304600D01*
X0088100Y0308600D02*
X0091600Y0308600D01*
X0095100Y0308600D01*
D14*
X0091600Y0308600D02*
X0091600Y0316600D01*
X0085600Y0325600D02*
X0085602Y0325660D01*
X0085607Y0325721D01*
X0085616Y0325780D01*
X0085629Y0325839D01*
X0085645Y0325898D01*
X0085665Y0325955D01*
X0085688Y0326010D01*
X0085715Y0326065D01*
X0085744Y0326117D01*
X0085777Y0326168D01*
X0085813Y0326217D01*
X0085851Y0326263D01*
X0085893Y0326307D01*
X0085937Y0326349D01*
X0085983Y0326387D01*
X0086032Y0326423D01*
X0086083Y0326456D01*
X0086135Y0326485D01*
X0086190Y0326512D01*
X0086245Y0326535D01*
X0086302Y0326555D01*
X0086361Y0326571D01*
X0086420Y0326584D01*
X0086479Y0326593D01*
X0086540Y0326598D01*
X0086600Y0326600D01*
X0096600Y0326600D01*
X0096660Y0326598D01*
X0096721Y0326593D01*
X0096780Y0326584D01*
X0096839Y0326571D01*
X0096898Y0326555D01*
X0096955Y0326535D01*
X0097010Y0326512D01*
X0097065Y0326485D01*
X0097117Y0326456D01*
X0097168Y0326423D01*
X0097217Y0326387D01*
X0097263Y0326349D01*
X0097307Y0326307D01*
X0097349Y0326263D01*
X0097387Y0326217D01*
X0097423Y0326168D01*
X0097456Y0326117D01*
X0097485Y0326065D01*
X0097512Y0326010D01*
X0097535Y0325955D01*
X0097555Y0325898D01*
X0097571Y0325839D01*
X0097584Y0325780D01*
X0097593Y0325721D01*
X0097598Y0325660D01*
X0097600Y0325600D01*
X0097600Y0287600D01*
X0097598Y0287540D01*
X0097593Y0287479D01*
X0097584Y0287420D01*
X0097571Y0287361D01*
X0097555Y0287302D01*
X0097535Y0287245D01*
X0097512Y0287190D01*
X0097485Y0287135D01*
X0097456Y0287083D01*
X0097423Y0287032D01*
X0097387Y0286983D01*
X0097349Y0286937D01*
X0097307Y0286893D01*
X0097263Y0286851D01*
X0097217Y0286813D01*
X0097168Y0286777D01*
X0097117Y0286744D01*
X0097065Y0286715D01*
X0097010Y0286688D01*
X0096955Y0286665D01*
X0096898Y0286645D01*
X0096839Y0286629D01*
X0096780Y0286616D01*
X0096721Y0286607D01*
X0096660Y0286602D01*
X0096600Y0286600D01*
X0086600Y0286600D01*
X0086540Y0286602D01*
X0086479Y0286607D01*
X0086420Y0286616D01*
X0086361Y0286629D01*
X0086302Y0286645D01*
X0086245Y0286665D01*
X0086190Y0286688D01*
X0086135Y0286715D01*
X0086083Y0286744D01*
X0086032Y0286777D01*
X0085983Y0286813D01*
X0085937Y0286851D01*
X0085893Y0286893D01*
X0085851Y0286937D01*
X0085813Y0286983D01*
X0085777Y0287032D01*
X0085744Y0287083D01*
X0085715Y0287135D01*
X0085688Y0287190D01*
X0085665Y0287245D01*
X0085645Y0287302D01*
X0085629Y0287361D01*
X0085616Y0287420D01*
X0085607Y0287479D01*
X0085602Y0287540D01*
X0085600Y0287600D01*
X0085600Y0325600D01*
X0082600Y0320100D02*
X0082600Y0317600D01*
X0082100Y0317100D01*
X0082100Y0291100D01*
X0082600Y0290600D01*
X0082600Y0288100D01*
X0082598Y0288040D01*
X0082593Y0287979D01*
X0082584Y0287920D01*
X0082571Y0287861D01*
X0082555Y0287802D01*
X0082535Y0287745D01*
X0082512Y0287690D01*
X0082485Y0287635D01*
X0082456Y0287583D01*
X0082423Y0287532D01*
X0082387Y0287483D01*
X0082349Y0287437D01*
X0082307Y0287393D01*
X0082263Y0287351D01*
X0082217Y0287313D01*
X0082168Y0287277D01*
X0082117Y0287244D01*
X0082065Y0287215D01*
X0082010Y0287188D01*
X0081955Y0287165D01*
X0081898Y0287145D01*
X0081839Y0287129D01*
X0081780Y0287116D01*
X0081721Y0287107D01*
X0081660Y0287102D01*
X0081600Y0287100D01*
X0071600Y0287100D02*
X0071540Y0287102D01*
X0071479Y0287107D01*
X0071420Y0287116D01*
X0071361Y0287129D01*
X0071302Y0287145D01*
X0071245Y0287165D01*
X0071190Y0287188D01*
X0071135Y0287215D01*
X0071083Y0287244D01*
X0071032Y0287277D01*
X0070983Y0287313D01*
X0070937Y0287351D01*
X0070893Y0287393D01*
X0070851Y0287437D01*
X0070813Y0287483D01*
X0070777Y0287532D01*
X0070744Y0287583D01*
X0070715Y0287635D01*
X0070688Y0287690D01*
X0070665Y0287745D01*
X0070645Y0287802D01*
X0070629Y0287861D01*
X0070616Y0287920D01*
X0070607Y0287979D01*
X0070602Y0288040D01*
X0070600Y0288100D01*
X0070600Y0290600D01*
X0071100Y0291100D01*
X0071100Y0317100D01*
X0070600Y0317600D01*
X0070600Y0320100D01*
X0070602Y0320160D01*
X0070607Y0320221D01*
X0070616Y0320280D01*
X0070629Y0320339D01*
X0070645Y0320398D01*
X0070665Y0320455D01*
X0070688Y0320510D01*
X0070715Y0320565D01*
X0070744Y0320617D01*
X0070777Y0320668D01*
X0070813Y0320717D01*
X0070851Y0320763D01*
X0070893Y0320807D01*
X0070937Y0320849D01*
X0070983Y0320887D01*
X0071032Y0320923D01*
X0071083Y0320956D01*
X0071135Y0320985D01*
X0071190Y0321012D01*
X0071245Y0321035D01*
X0071302Y0321055D01*
X0071361Y0321071D01*
X0071420Y0321084D01*
X0071479Y0321093D01*
X0071540Y0321098D01*
X0071600Y0321100D01*
X0081600Y0321100D02*
X0081660Y0321098D01*
X0081721Y0321093D01*
X0081780Y0321084D01*
X0081839Y0321071D01*
X0081898Y0321055D01*
X0081955Y0321035D01*
X0082010Y0321012D01*
X0082065Y0320985D01*
X0082117Y0320956D01*
X0082168Y0320923D01*
X0082217Y0320887D01*
X0082263Y0320849D01*
X0082307Y0320807D01*
X0082349Y0320763D01*
X0082387Y0320717D01*
X0082423Y0320668D01*
X0082456Y0320617D01*
X0082485Y0320565D01*
X0082512Y0320510D01*
X0082535Y0320455D01*
X0082555Y0320398D01*
X0082571Y0320339D01*
X0082584Y0320280D01*
X0082593Y0320221D01*
X0082598Y0320160D01*
X0082600Y0320100D01*
X0091600Y0304600D02*
X0091600Y0296600D01*
X0106100Y0301100D02*
X0106100Y0317100D01*
X0106102Y0317187D01*
X0106108Y0317274D01*
X0106117Y0317361D01*
X0106130Y0317447D01*
X0106147Y0317533D01*
X0106168Y0317618D01*
X0106193Y0317701D01*
X0106221Y0317784D01*
X0106252Y0317865D01*
X0106287Y0317945D01*
X0106326Y0318023D01*
X0106368Y0318100D01*
X0106413Y0318175D01*
X0106462Y0318247D01*
X0106513Y0318318D01*
X0106568Y0318386D01*
X0106625Y0318451D01*
X0106686Y0318514D01*
X0106749Y0318575D01*
X0106814Y0318632D01*
X0106882Y0318687D01*
X0106953Y0318738D01*
X0107025Y0318787D01*
X0107100Y0318832D01*
X0107177Y0318874D01*
X0107255Y0318913D01*
X0107335Y0318948D01*
X0107416Y0318979D01*
X0107499Y0319007D01*
X0107582Y0319032D01*
X0107667Y0319053D01*
X0107753Y0319070D01*
X0107839Y0319083D01*
X0107926Y0319092D01*
X0108013Y0319098D01*
X0108100Y0319100D01*
X0175100Y0319100D01*
X0175187Y0319098D01*
X0175274Y0319092D01*
X0175361Y0319083D01*
X0175447Y0319070D01*
X0175533Y0319053D01*
X0175618Y0319032D01*
X0175701Y0319007D01*
X0175784Y0318979D01*
X0175865Y0318948D01*
X0175945Y0318913D01*
X0176023Y0318874D01*
X0176100Y0318832D01*
X0176175Y0318787D01*
X0176247Y0318738D01*
X0176318Y0318687D01*
X0176386Y0318632D01*
X0176451Y0318575D01*
X0176514Y0318514D01*
X0176575Y0318451D01*
X0176632Y0318386D01*
X0176687Y0318318D01*
X0176738Y0318247D01*
X0176787Y0318175D01*
X0176832Y0318100D01*
X0176874Y0318023D01*
X0176913Y0317945D01*
X0176948Y0317865D01*
X0176979Y0317784D01*
X0177007Y0317701D01*
X0177032Y0317618D01*
X0177053Y0317533D01*
X0177070Y0317447D01*
X0177083Y0317361D01*
X0177092Y0317274D01*
X0177098Y0317187D01*
X0177100Y0317100D01*
X0177100Y0301100D01*
X0177098Y0301013D01*
X0177092Y0300926D01*
X0177083Y0300839D01*
X0177070Y0300753D01*
X0177053Y0300667D01*
X0177032Y0300582D01*
X0177007Y0300499D01*
X0176979Y0300416D01*
X0176948Y0300335D01*
X0176913Y0300255D01*
X0176874Y0300177D01*
X0176832Y0300100D01*
X0176787Y0300025D01*
X0176738Y0299953D01*
X0176687Y0299882D01*
X0176632Y0299814D01*
X0176575Y0299749D01*
X0176514Y0299686D01*
X0176451Y0299625D01*
X0176386Y0299568D01*
X0176318Y0299513D01*
X0176247Y0299462D01*
X0176175Y0299413D01*
X0176100Y0299368D01*
X0176023Y0299326D01*
X0175945Y0299287D01*
X0175865Y0299252D01*
X0175784Y0299221D01*
X0175701Y0299193D01*
X0175618Y0299168D01*
X0175533Y0299147D01*
X0175447Y0299130D01*
X0175361Y0299117D01*
X0175274Y0299108D01*
X0175187Y0299102D01*
X0175100Y0299100D01*
X0108100Y0299100D01*
X0108013Y0299102D01*
X0107926Y0299108D01*
X0107839Y0299117D01*
X0107753Y0299130D01*
X0107667Y0299147D01*
X0107582Y0299168D01*
X0107499Y0299193D01*
X0107416Y0299221D01*
X0107335Y0299252D01*
X0107255Y0299287D01*
X0107177Y0299326D01*
X0107100Y0299368D01*
X0107025Y0299413D01*
X0106953Y0299462D01*
X0106882Y0299513D01*
X0106814Y0299568D01*
X0106749Y0299625D01*
X0106686Y0299686D01*
X0106625Y0299749D01*
X0106568Y0299814D01*
X0106513Y0299882D01*
X0106462Y0299953D01*
X0106413Y0300025D01*
X0106368Y0300100D01*
X0106326Y0300177D01*
X0106287Y0300255D01*
X0106252Y0300335D01*
X0106221Y0300416D01*
X0106193Y0300499D01*
X0106168Y0300582D01*
X0106147Y0300667D01*
X0106130Y0300753D01*
X0106117Y0300839D01*
X0106108Y0300926D01*
X0106102Y0301013D01*
X0106100Y0301100D01*
X0117600Y0309100D02*
X0121600Y0309100D01*
X0125100Y0309100D02*
X0165600Y0309100D01*
X0124100Y0254100D02*
X0126600Y0251600D01*
X0126600Y0246600D01*
X0124100Y0244100D01*
X0109100Y0244100D01*
X0106600Y0241600D01*
X0106600Y0236600D01*
X0109100Y0234100D01*
X0106600Y0231600D01*
X0106600Y0226600D01*
X0109100Y0224100D01*
X0124100Y0224100D01*
X0126600Y0226600D01*
X0126600Y0231600D01*
X0124100Y0234100D01*
X0109100Y0234100D01*
X0109100Y0244100D02*
X0106600Y0246600D01*
X0106600Y0251600D01*
X0109100Y0254100D01*
X0124100Y0254100D01*
X0124100Y0244100D02*
X0126600Y0241600D01*
X0126600Y0236600D01*
X0124100Y0234100D01*
X0104100Y0210350D02*
X0106600Y0207850D01*
X0106600Y0202850D01*
X0104100Y0200350D01*
X0106600Y0197850D01*
X0106600Y0192850D01*
X0104100Y0190350D01*
X0106600Y0187850D01*
X0106600Y0182850D01*
X0104100Y0180350D01*
X0099100Y0180350D01*
X0096600Y0182850D01*
X0096600Y0187850D01*
X0099100Y0190350D01*
X0096600Y0192850D01*
X0096600Y0197850D01*
X0099100Y0200350D01*
X0096600Y0202850D01*
X0096600Y0207850D01*
X0099100Y0210350D01*
X0104100Y0210350D01*
X0104100Y0200350D02*
X0099100Y0200350D01*
X0099100Y0190350D02*
X0104100Y0190350D01*
X0081600Y0207600D02*
X0081600Y0230600D01*
X0051600Y0230600D01*
X0051600Y0223100D01*
X0051726Y0223098D01*
X0051851Y0223092D01*
X0051976Y0223082D01*
X0052101Y0223068D01*
X0052226Y0223051D01*
X0052350Y0223029D01*
X0052473Y0223004D01*
X0052595Y0222974D01*
X0052716Y0222941D01*
X0052836Y0222904D01*
X0052955Y0222864D01*
X0053072Y0222819D01*
X0053189Y0222771D01*
X0053303Y0222719D01*
X0053416Y0222664D01*
X0053527Y0222605D01*
X0053636Y0222543D01*
X0053743Y0222477D01*
X0053848Y0222408D01*
X0053951Y0222336D01*
X0054052Y0222261D01*
X0054150Y0222182D01*
X0054245Y0222100D01*
X0054338Y0222016D01*
X0054428Y0221928D01*
X0054516Y0221838D01*
X0054600Y0221745D01*
X0054682Y0221650D01*
X0054761Y0221552D01*
X0054836Y0221451D01*
X0054908Y0221348D01*
X0054977Y0221243D01*
X0055043Y0221136D01*
X0055105Y0221027D01*
X0055164Y0220916D01*
X0055219Y0220803D01*
X0055271Y0220689D01*
X0055319Y0220572D01*
X0055364Y0220455D01*
X0055404Y0220336D01*
X0055441Y0220216D01*
X0055474Y0220095D01*
X0055504Y0219973D01*
X0055529Y0219850D01*
X0055551Y0219726D01*
X0055568Y0219601D01*
X0055582Y0219476D01*
X0055592Y0219351D01*
X0055598Y0219226D01*
X0055600Y0219100D01*
X0055598Y0218974D01*
X0055592Y0218849D01*
X0055582Y0218724D01*
X0055568Y0218599D01*
X0055551Y0218474D01*
X0055529Y0218350D01*
X0055504Y0218227D01*
X0055474Y0218105D01*
X0055441Y0217984D01*
X0055404Y0217864D01*
X0055364Y0217745D01*
X0055319Y0217628D01*
X0055271Y0217511D01*
X0055219Y0217397D01*
X0055164Y0217284D01*
X0055105Y0217173D01*
X0055043Y0217064D01*
X0054977Y0216957D01*
X0054908Y0216852D01*
X0054836Y0216749D01*
X0054761Y0216648D01*
X0054682Y0216550D01*
X0054600Y0216455D01*
X0054516Y0216362D01*
X0054428Y0216272D01*
X0054338Y0216184D01*
X0054245Y0216100D01*
X0054150Y0216018D01*
X0054052Y0215939D01*
X0053951Y0215864D01*
X0053848Y0215792D01*
X0053743Y0215723D01*
X0053636Y0215657D01*
X0053527Y0215595D01*
X0053416Y0215536D01*
X0053303Y0215481D01*
X0053189Y0215429D01*
X0053072Y0215381D01*
X0052955Y0215336D01*
X0052836Y0215296D01*
X0052716Y0215259D01*
X0052595Y0215226D01*
X0052473Y0215196D01*
X0052350Y0215171D01*
X0052226Y0215149D01*
X0052101Y0215132D01*
X0051976Y0215118D01*
X0051851Y0215108D01*
X0051726Y0215102D01*
X0051600Y0215100D01*
X0051600Y0207600D01*
X0081600Y0207600D01*
X0024600Y0254100D02*
X0013100Y0254600D01*
X0012100Y0255600D01*
X0012100Y0292600D01*
X0013100Y0293600D01*
X0024600Y0294100D01*
X0066840Y0351994D02*
X0066844Y0352325D01*
X0066856Y0352656D01*
X0066877Y0352987D01*
X0066905Y0353317D01*
X0066942Y0353647D01*
X0066986Y0353975D01*
X0067039Y0354302D01*
X0067099Y0354628D01*
X0067168Y0354952D01*
X0067245Y0355274D01*
X0067329Y0355595D01*
X0067421Y0355913D01*
X0067521Y0356229D01*
X0067629Y0356542D01*
X0067745Y0356853D01*
X0067868Y0357160D01*
X0067998Y0357465D01*
X0068136Y0357766D01*
X0068281Y0358064D01*
X0068434Y0358358D01*
X0068594Y0358648D01*
X0068761Y0358934D01*
X0068934Y0359216D01*
X0069115Y0359494D01*
X0069303Y0359767D01*
X0069497Y0360036D01*
X0069697Y0360300D01*
X0069904Y0360558D01*
X0070118Y0360812D01*
X0070337Y0361060D01*
X0070563Y0361303D01*
X0070794Y0361540D01*
X0071031Y0361771D01*
X0071274Y0361997D01*
X0071522Y0362216D01*
X0071776Y0362430D01*
X0072034Y0362637D01*
X0072298Y0362837D01*
X0072567Y0363031D01*
X0072840Y0363219D01*
X0073118Y0363400D01*
X0073400Y0363573D01*
X0073686Y0363740D01*
X0073976Y0363900D01*
X0074270Y0364053D01*
X0074568Y0364198D01*
X0074869Y0364336D01*
X0075174Y0364466D01*
X0075481Y0364589D01*
X0075792Y0364705D01*
X0076105Y0364813D01*
X0076421Y0364913D01*
X0076739Y0365005D01*
X0077060Y0365089D01*
X0077382Y0365166D01*
X0077706Y0365235D01*
X0078032Y0365295D01*
X0078359Y0365348D01*
X0078687Y0365392D01*
X0079017Y0365429D01*
X0079347Y0365457D01*
X0079678Y0365478D01*
X0080009Y0365490D01*
X0080340Y0365494D01*
X0080671Y0365490D01*
X0081002Y0365478D01*
X0081333Y0365457D01*
X0081663Y0365429D01*
X0081993Y0365392D01*
X0082321Y0365348D01*
X0082648Y0365295D01*
X0082974Y0365235D01*
X0083298Y0365166D01*
X0083620Y0365089D01*
X0083941Y0365005D01*
X0084259Y0364913D01*
X0084575Y0364813D01*
X0084888Y0364705D01*
X0085199Y0364589D01*
X0085506Y0364466D01*
X0085811Y0364336D01*
X0086112Y0364198D01*
X0086410Y0364053D01*
X0086704Y0363900D01*
X0086994Y0363740D01*
X0087280Y0363573D01*
X0087562Y0363400D01*
X0087840Y0363219D01*
X0088113Y0363031D01*
X0088382Y0362837D01*
X0088646Y0362637D01*
X0088904Y0362430D01*
X0089158Y0362216D01*
X0089406Y0361997D01*
X0089649Y0361771D01*
X0089886Y0361540D01*
X0090117Y0361303D01*
X0090343Y0361060D01*
X0090562Y0360812D01*
X0090776Y0360558D01*
X0090983Y0360300D01*
X0091183Y0360036D01*
X0091377Y0359767D01*
X0091565Y0359494D01*
X0091746Y0359216D01*
X0091919Y0358934D01*
X0092086Y0358648D01*
X0092246Y0358358D01*
X0092399Y0358064D01*
X0092544Y0357766D01*
X0092682Y0357465D01*
X0092812Y0357160D01*
X0092935Y0356853D01*
X0093051Y0356542D01*
X0093159Y0356229D01*
X0093259Y0355913D01*
X0093351Y0355595D01*
X0093435Y0355274D01*
X0093512Y0354952D01*
X0093581Y0354628D01*
X0093641Y0354302D01*
X0093694Y0353975D01*
X0093738Y0353647D01*
X0093775Y0353317D01*
X0093803Y0352987D01*
X0093824Y0352656D01*
X0093836Y0352325D01*
X0093840Y0351994D01*
X0093836Y0351663D01*
X0093824Y0351332D01*
X0093803Y0351001D01*
X0093775Y0350671D01*
X0093738Y0350341D01*
X0093694Y0350013D01*
X0093641Y0349686D01*
X0093581Y0349360D01*
X0093512Y0349036D01*
X0093435Y0348714D01*
X0093351Y0348393D01*
X0093259Y0348075D01*
X0093159Y0347759D01*
X0093051Y0347446D01*
X0092935Y0347135D01*
X0092812Y0346828D01*
X0092682Y0346523D01*
X0092544Y0346222D01*
X0092399Y0345924D01*
X0092246Y0345630D01*
X0092086Y0345340D01*
X0091919Y0345054D01*
X0091746Y0344772D01*
X0091565Y0344494D01*
X0091377Y0344221D01*
X0091183Y0343952D01*
X0090983Y0343688D01*
X0090776Y0343430D01*
X0090562Y0343176D01*
X0090343Y0342928D01*
X0090117Y0342685D01*
X0089886Y0342448D01*
X0089649Y0342217D01*
X0089406Y0341991D01*
X0089158Y0341772D01*
X0088904Y0341558D01*
X0088646Y0341351D01*
X0088382Y0341151D01*
X0088113Y0340957D01*
X0087840Y0340769D01*
X0087562Y0340588D01*
X0087280Y0340415D01*
X0086994Y0340248D01*
X0086704Y0340088D01*
X0086410Y0339935D01*
X0086112Y0339790D01*
X0085811Y0339652D01*
X0085506Y0339522D01*
X0085199Y0339399D01*
X0084888Y0339283D01*
X0084575Y0339175D01*
X0084259Y0339075D01*
X0083941Y0338983D01*
X0083620Y0338899D01*
X0083298Y0338822D01*
X0082974Y0338753D01*
X0082648Y0338693D01*
X0082321Y0338640D01*
X0081993Y0338596D01*
X0081663Y0338559D01*
X0081333Y0338531D01*
X0081002Y0338510D01*
X0080671Y0338498D01*
X0080340Y0338494D01*
X0080009Y0338498D01*
X0079678Y0338510D01*
X0079347Y0338531D01*
X0079017Y0338559D01*
X0078687Y0338596D01*
X0078359Y0338640D01*
X0078032Y0338693D01*
X0077706Y0338753D01*
X0077382Y0338822D01*
X0077060Y0338899D01*
X0076739Y0338983D01*
X0076421Y0339075D01*
X0076105Y0339175D01*
X0075792Y0339283D01*
X0075481Y0339399D01*
X0075174Y0339522D01*
X0074869Y0339652D01*
X0074568Y0339790D01*
X0074270Y0339935D01*
X0073976Y0340088D01*
X0073686Y0340248D01*
X0073400Y0340415D01*
X0073118Y0340588D01*
X0072840Y0340769D01*
X0072567Y0340957D01*
X0072298Y0341151D01*
X0072034Y0341351D01*
X0071776Y0341558D01*
X0071522Y0341772D01*
X0071274Y0341991D01*
X0071031Y0342217D01*
X0070794Y0342448D01*
X0070563Y0342685D01*
X0070337Y0342928D01*
X0070118Y0343176D01*
X0069904Y0343430D01*
X0069697Y0343688D01*
X0069497Y0343952D01*
X0069303Y0344221D01*
X0069115Y0344494D01*
X0068934Y0344772D01*
X0068761Y0345054D01*
X0068594Y0345340D01*
X0068434Y0345630D01*
X0068281Y0345924D01*
X0068136Y0346222D01*
X0067998Y0346523D01*
X0067868Y0346828D01*
X0067745Y0347135D01*
X0067629Y0347446D01*
X0067521Y0347759D01*
X0067421Y0348075D01*
X0067329Y0348393D01*
X0067245Y0348714D01*
X0067168Y0349036D01*
X0067099Y0349360D01*
X0067039Y0349686D01*
X0066986Y0350013D01*
X0066942Y0350341D01*
X0066905Y0350671D01*
X0066877Y0351001D01*
X0066856Y0351332D01*
X0066844Y0351663D01*
X0066840Y0351994D01*
X0204635Y0351994D02*
X0204639Y0352325D01*
X0204651Y0352656D01*
X0204672Y0352987D01*
X0204700Y0353317D01*
X0204737Y0353647D01*
X0204781Y0353975D01*
X0204834Y0354302D01*
X0204894Y0354628D01*
X0204963Y0354952D01*
X0205040Y0355274D01*
X0205124Y0355595D01*
X0205216Y0355913D01*
X0205316Y0356229D01*
X0205424Y0356542D01*
X0205540Y0356853D01*
X0205663Y0357160D01*
X0205793Y0357465D01*
X0205931Y0357766D01*
X0206076Y0358064D01*
X0206229Y0358358D01*
X0206389Y0358648D01*
X0206556Y0358934D01*
X0206729Y0359216D01*
X0206910Y0359494D01*
X0207098Y0359767D01*
X0207292Y0360036D01*
X0207492Y0360300D01*
X0207699Y0360558D01*
X0207913Y0360812D01*
X0208132Y0361060D01*
X0208358Y0361303D01*
X0208589Y0361540D01*
X0208826Y0361771D01*
X0209069Y0361997D01*
X0209317Y0362216D01*
X0209571Y0362430D01*
X0209829Y0362637D01*
X0210093Y0362837D01*
X0210362Y0363031D01*
X0210635Y0363219D01*
X0210913Y0363400D01*
X0211195Y0363573D01*
X0211481Y0363740D01*
X0211771Y0363900D01*
X0212065Y0364053D01*
X0212363Y0364198D01*
X0212664Y0364336D01*
X0212969Y0364466D01*
X0213276Y0364589D01*
X0213587Y0364705D01*
X0213900Y0364813D01*
X0214216Y0364913D01*
X0214534Y0365005D01*
X0214855Y0365089D01*
X0215177Y0365166D01*
X0215501Y0365235D01*
X0215827Y0365295D01*
X0216154Y0365348D01*
X0216482Y0365392D01*
X0216812Y0365429D01*
X0217142Y0365457D01*
X0217473Y0365478D01*
X0217804Y0365490D01*
X0218135Y0365494D01*
X0218466Y0365490D01*
X0218797Y0365478D01*
X0219128Y0365457D01*
X0219458Y0365429D01*
X0219788Y0365392D01*
X0220116Y0365348D01*
X0220443Y0365295D01*
X0220769Y0365235D01*
X0221093Y0365166D01*
X0221415Y0365089D01*
X0221736Y0365005D01*
X0222054Y0364913D01*
X0222370Y0364813D01*
X0222683Y0364705D01*
X0222994Y0364589D01*
X0223301Y0364466D01*
X0223606Y0364336D01*
X0223907Y0364198D01*
X0224205Y0364053D01*
X0224499Y0363900D01*
X0224789Y0363740D01*
X0225075Y0363573D01*
X0225357Y0363400D01*
X0225635Y0363219D01*
X0225908Y0363031D01*
X0226177Y0362837D01*
X0226441Y0362637D01*
X0226699Y0362430D01*
X0226953Y0362216D01*
X0227201Y0361997D01*
X0227444Y0361771D01*
X0227681Y0361540D01*
X0227912Y0361303D01*
X0228138Y0361060D01*
X0228357Y0360812D01*
X0228571Y0360558D01*
X0228778Y0360300D01*
X0228978Y0360036D01*
X0229172Y0359767D01*
X0229360Y0359494D01*
X0229541Y0359216D01*
X0229714Y0358934D01*
X0229881Y0358648D01*
X0230041Y0358358D01*
X0230194Y0358064D01*
X0230339Y0357766D01*
X0230477Y0357465D01*
X0230607Y0357160D01*
X0230730Y0356853D01*
X0230846Y0356542D01*
X0230954Y0356229D01*
X0231054Y0355913D01*
X0231146Y0355595D01*
X0231230Y0355274D01*
X0231307Y0354952D01*
X0231376Y0354628D01*
X0231436Y0354302D01*
X0231489Y0353975D01*
X0231533Y0353647D01*
X0231570Y0353317D01*
X0231598Y0352987D01*
X0231619Y0352656D01*
X0231631Y0352325D01*
X0231635Y0351994D01*
X0231631Y0351663D01*
X0231619Y0351332D01*
X0231598Y0351001D01*
X0231570Y0350671D01*
X0231533Y0350341D01*
X0231489Y0350013D01*
X0231436Y0349686D01*
X0231376Y0349360D01*
X0231307Y0349036D01*
X0231230Y0348714D01*
X0231146Y0348393D01*
X0231054Y0348075D01*
X0230954Y0347759D01*
X0230846Y0347446D01*
X0230730Y0347135D01*
X0230607Y0346828D01*
X0230477Y0346523D01*
X0230339Y0346222D01*
X0230194Y0345924D01*
X0230041Y0345630D01*
X0229881Y0345340D01*
X0229714Y0345054D01*
X0229541Y0344772D01*
X0229360Y0344494D01*
X0229172Y0344221D01*
X0228978Y0343952D01*
X0228778Y0343688D01*
X0228571Y0343430D01*
X0228357Y0343176D01*
X0228138Y0342928D01*
X0227912Y0342685D01*
X0227681Y0342448D01*
X0227444Y0342217D01*
X0227201Y0341991D01*
X0226953Y0341772D01*
X0226699Y0341558D01*
X0226441Y0341351D01*
X0226177Y0341151D01*
X0225908Y0340957D01*
X0225635Y0340769D01*
X0225357Y0340588D01*
X0225075Y0340415D01*
X0224789Y0340248D01*
X0224499Y0340088D01*
X0224205Y0339935D01*
X0223907Y0339790D01*
X0223606Y0339652D01*
X0223301Y0339522D01*
X0222994Y0339399D01*
X0222683Y0339283D01*
X0222370Y0339175D01*
X0222054Y0339075D01*
X0221736Y0338983D01*
X0221415Y0338899D01*
X0221093Y0338822D01*
X0220769Y0338753D01*
X0220443Y0338693D01*
X0220116Y0338640D01*
X0219788Y0338596D01*
X0219458Y0338559D01*
X0219128Y0338531D01*
X0218797Y0338510D01*
X0218466Y0338498D01*
X0218135Y0338494D01*
X0217804Y0338498D01*
X0217473Y0338510D01*
X0217142Y0338531D01*
X0216812Y0338559D01*
X0216482Y0338596D01*
X0216154Y0338640D01*
X0215827Y0338693D01*
X0215501Y0338753D01*
X0215177Y0338822D01*
X0214855Y0338899D01*
X0214534Y0338983D01*
X0214216Y0339075D01*
X0213900Y0339175D01*
X0213587Y0339283D01*
X0213276Y0339399D01*
X0212969Y0339522D01*
X0212664Y0339652D01*
X0212363Y0339790D01*
X0212065Y0339935D01*
X0211771Y0340088D01*
X0211481Y0340248D01*
X0211195Y0340415D01*
X0210913Y0340588D01*
X0210635Y0340769D01*
X0210362Y0340957D01*
X0210093Y0341151D01*
X0209829Y0341351D01*
X0209571Y0341558D01*
X0209317Y0341772D01*
X0209069Y0341991D01*
X0208826Y0342217D01*
X0208589Y0342448D01*
X0208358Y0342685D01*
X0208132Y0342928D01*
X0207913Y0343176D01*
X0207699Y0343430D01*
X0207492Y0343688D01*
X0207292Y0343952D01*
X0207098Y0344221D01*
X0206910Y0344494D01*
X0206729Y0344772D01*
X0206556Y0345054D01*
X0206389Y0345340D01*
X0206229Y0345630D01*
X0206076Y0345924D01*
X0205931Y0346222D01*
X0205793Y0346523D01*
X0205663Y0346828D01*
X0205540Y0347135D01*
X0205424Y0347446D01*
X0205316Y0347759D01*
X0205216Y0348075D01*
X0205124Y0348393D01*
X0205040Y0348714D01*
X0204963Y0349036D01*
X0204894Y0349360D01*
X0204834Y0349686D01*
X0204781Y0350013D01*
X0204737Y0350341D01*
X0204700Y0350671D01*
X0204672Y0351001D01*
X0204651Y0351332D01*
X0204639Y0351663D01*
X0204635Y0351994D01*
X0279100Y0255600D02*
X0279100Y0252600D01*
X0280600Y0254100D02*
X0277600Y0254100D01*
X0274100Y0243600D02*
X0274100Y0242600D01*
X0278600Y0242600D01*
X0278600Y0240100D01*
X0269600Y0240100D01*
X0269600Y0242600D01*
X0274100Y0242600D01*
X0254100Y0239100D02*
X0254106Y0239591D01*
X0254124Y0240081D01*
X0254154Y0240571D01*
X0254196Y0241060D01*
X0254250Y0241548D01*
X0254316Y0242035D01*
X0254394Y0242519D01*
X0254484Y0243002D01*
X0254586Y0243482D01*
X0254699Y0243960D01*
X0254824Y0244434D01*
X0254961Y0244906D01*
X0255109Y0245374D01*
X0255269Y0245838D01*
X0255440Y0246298D01*
X0255622Y0246754D01*
X0255816Y0247205D01*
X0256020Y0247651D01*
X0256236Y0248092D01*
X0256462Y0248528D01*
X0256698Y0248958D01*
X0256945Y0249382D01*
X0257203Y0249800D01*
X0257471Y0250211D01*
X0257748Y0250616D01*
X0258036Y0251014D01*
X0258333Y0251405D01*
X0258640Y0251788D01*
X0258956Y0252163D01*
X0259281Y0252531D01*
X0259615Y0252891D01*
X0259958Y0253242D01*
X0260309Y0253585D01*
X0260669Y0253919D01*
X0261037Y0254244D01*
X0261412Y0254560D01*
X0261795Y0254867D01*
X0262186Y0255164D01*
X0262584Y0255452D01*
X0262989Y0255729D01*
X0263400Y0255997D01*
X0263818Y0256255D01*
X0264242Y0256502D01*
X0264672Y0256738D01*
X0265108Y0256964D01*
X0265549Y0257180D01*
X0265995Y0257384D01*
X0266446Y0257578D01*
X0266902Y0257760D01*
X0267362Y0257931D01*
X0267826Y0258091D01*
X0268294Y0258239D01*
X0268766Y0258376D01*
X0269240Y0258501D01*
X0269718Y0258614D01*
X0270198Y0258716D01*
X0270681Y0258806D01*
X0271165Y0258884D01*
X0271652Y0258950D01*
X0272140Y0259004D01*
X0272629Y0259046D01*
X0273119Y0259076D01*
X0273609Y0259094D01*
X0274100Y0259100D01*
X0274591Y0259094D01*
X0275081Y0259076D01*
X0275571Y0259046D01*
X0276060Y0259004D01*
X0276548Y0258950D01*
X0277035Y0258884D01*
X0277519Y0258806D01*
X0278002Y0258716D01*
X0278482Y0258614D01*
X0278960Y0258501D01*
X0279434Y0258376D01*
X0279906Y0258239D01*
X0280374Y0258091D01*
X0280838Y0257931D01*
X0281298Y0257760D01*
X0281754Y0257578D01*
X0282205Y0257384D01*
X0282651Y0257180D01*
X0283092Y0256964D01*
X0283528Y0256738D01*
X0283958Y0256502D01*
X0284382Y0256255D01*
X0284800Y0255997D01*
X0285211Y0255729D01*
X0285616Y0255452D01*
X0286014Y0255164D01*
X0286405Y0254867D01*
X0286788Y0254560D01*
X0287163Y0254244D01*
X0287531Y0253919D01*
X0287891Y0253585D01*
X0288242Y0253242D01*
X0288585Y0252891D01*
X0288919Y0252531D01*
X0289244Y0252163D01*
X0289560Y0251788D01*
X0289867Y0251405D01*
X0290164Y0251014D01*
X0290452Y0250616D01*
X0290729Y0250211D01*
X0290997Y0249800D01*
X0291255Y0249382D01*
X0291502Y0248958D01*
X0291738Y0248528D01*
X0291964Y0248092D01*
X0292180Y0247651D01*
X0292384Y0247205D01*
X0292578Y0246754D01*
X0292760Y0246298D01*
X0292931Y0245838D01*
X0293091Y0245374D01*
X0293239Y0244906D01*
X0293376Y0244434D01*
X0293501Y0243960D01*
X0293614Y0243482D01*
X0293716Y0243002D01*
X0293806Y0242519D01*
X0293884Y0242035D01*
X0293950Y0241548D01*
X0294004Y0241060D01*
X0294046Y0240571D01*
X0294076Y0240081D01*
X0294094Y0239591D01*
X0294100Y0239100D01*
X0294094Y0238609D01*
X0294076Y0238119D01*
X0294046Y0237629D01*
X0294004Y0237140D01*
X0293950Y0236652D01*
X0293884Y0236165D01*
X0293806Y0235681D01*
X0293716Y0235198D01*
X0293614Y0234718D01*
X0293501Y0234240D01*
X0293376Y0233766D01*
X0293239Y0233294D01*
X0293091Y0232826D01*
X0292931Y0232362D01*
X0292760Y0231902D01*
X0292578Y0231446D01*
X0292384Y0230995D01*
X0292180Y0230549D01*
X0291964Y0230108D01*
X0291738Y0229672D01*
X0291502Y0229242D01*
X0291255Y0228818D01*
X0290997Y0228400D01*
X0290729Y0227989D01*
X0290452Y0227584D01*
X0290164Y0227186D01*
X0289867Y0226795D01*
X0289560Y0226412D01*
X0289244Y0226037D01*
X0288919Y0225669D01*
X0288585Y0225309D01*
X0288242Y0224958D01*
X0287891Y0224615D01*
X0287531Y0224281D01*
X0287163Y0223956D01*
X0286788Y0223640D01*
X0286405Y0223333D01*
X0286014Y0223036D01*
X0285616Y0222748D01*
X0285211Y0222471D01*
X0284800Y0222203D01*
X0284382Y0221945D01*
X0283958Y0221698D01*
X0283528Y0221462D01*
X0283092Y0221236D01*
X0282651Y0221020D01*
X0282205Y0220816D01*
X0281754Y0220622D01*
X0281298Y0220440D01*
X0280838Y0220269D01*
X0280374Y0220109D01*
X0279906Y0219961D01*
X0279434Y0219824D01*
X0278960Y0219699D01*
X0278482Y0219586D01*
X0278002Y0219484D01*
X0277519Y0219394D01*
X0277035Y0219316D01*
X0276548Y0219250D01*
X0276060Y0219196D01*
X0275571Y0219154D01*
X0275081Y0219124D01*
X0274591Y0219106D01*
X0274100Y0219100D01*
X0273609Y0219106D01*
X0273119Y0219124D01*
X0272629Y0219154D01*
X0272140Y0219196D01*
X0271652Y0219250D01*
X0271165Y0219316D01*
X0270681Y0219394D01*
X0270198Y0219484D01*
X0269718Y0219586D01*
X0269240Y0219699D01*
X0268766Y0219824D01*
X0268294Y0219961D01*
X0267826Y0220109D01*
X0267362Y0220269D01*
X0266902Y0220440D01*
X0266446Y0220622D01*
X0265995Y0220816D01*
X0265549Y0221020D01*
X0265108Y0221236D01*
X0264672Y0221462D01*
X0264242Y0221698D01*
X0263818Y0221945D01*
X0263400Y0222203D01*
X0262989Y0222471D01*
X0262584Y0222748D01*
X0262186Y0223036D01*
X0261795Y0223333D01*
X0261412Y0223640D01*
X0261037Y0223956D01*
X0260669Y0224281D01*
X0260309Y0224615D01*
X0259958Y0224958D01*
X0259615Y0225309D01*
X0259281Y0225669D01*
X0258956Y0226037D01*
X0258640Y0226412D01*
X0258333Y0226795D01*
X0258036Y0227186D01*
X0257748Y0227584D01*
X0257471Y0227989D01*
X0257203Y0228400D01*
X0256945Y0228818D01*
X0256698Y0229242D01*
X0256462Y0229672D01*
X0256236Y0230108D01*
X0256020Y0230549D01*
X0255816Y0230995D01*
X0255622Y0231446D01*
X0255440Y0231902D01*
X0255269Y0232362D01*
X0255109Y0232826D01*
X0254961Y0233294D01*
X0254824Y0233766D01*
X0254699Y0234240D01*
X0254586Y0234718D01*
X0254484Y0235198D01*
X0254394Y0235681D01*
X0254316Y0236165D01*
X0254250Y0236652D01*
X0254196Y0237140D01*
X0254154Y0237629D01*
X0254124Y0238119D01*
X0254106Y0238609D01*
X0254100Y0239100D01*
X0274100Y0236600D02*
X0274100Y0234600D01*
X0204635Y0017348D02*
X0204639Y0017679D01*
X0204651Y0018010D01*
X0204672Y0018341D01*
X0204700Y0018671D01*
X0204737Y0019001D01*
X0204781Y0019329D01*
X0204834Y0019656D01*
X0204894Y0019982D01*
X0204963Y0020306D01*
X0205040Y0020628D01*
X0205124Y0020949D01*
X0205216Y0021267D01*
X0205316Y0021583D01*
X0205424Y0021896D01*
X0205540Y0022207D01*
X0205663Y0022514D01*
X0205793Y0022819D01*
X0205931Y0023120D01*
X0206076Y0023418D01*
X0206229Y0023712D01*
X0206389Y0024002D01*
X0206556Y0024288D01*
X0206729Y0024570D01*
X0206910Y0024848D01*
X0207098Y0025121D01*
X0207292Y0025390D01*
X0207492Y0025654D01*
X0207699Y0025912D01*
X0207913Y0026166D01*
X0208132Y0026414D01*
X0208358Y0026657D01*
X0208589Y0026894D01*
X0208826Y0027125D01*
X0209069Y0027351D01*
X0209317Y0027570D01*
X0209571Y0027784D01*
X0209829Y0027991D01*
X0210093Y0028191D01*
X0210362Y0028385D01*
X0210635Y0028573D01*
X0210913Y0028754D01*
X0211195Y0028927D01*
X0211481Y0029094D01*
X0211771Y0029254D01*
X0212065Y0029407D01*
X0212363Y0029552D01*
X0212664Y0029690D01*
X0212969Y0029820D01*
X0213276Y0029943D01*
X0213587Y0030059D01*
X0213900Y0030167D01*
X0214216Y0030267D01*
X0214534Y0030359D01*
X0214855Y0030443D01*
X0215177Y0030520D01*
X0215501Y0030589D01*
X0215827Y0030649D01*
X0216154Y0030702D01*
X0216482Y0030746D01*
X0216812Y0030783D01*
X0217142Y0030811D01*
X0217473Y0030832D01*
X0217804Y0030844D01*
X0218135Y0030848D01*
X0218466Y0030844D01*
X0218797Y0030832D01*
X0219128Y0030811D01*
X0219458Y0030783D01*
X0219788Y0030746D01*
X0220116Y0030702D01*
X0220443Y0030649D01*
X0220769Y0030589D01*
X0221093Y0030520D01*
X0221415Y0030443D01*
X0221736Y0030359D01*
X0222054Y0030267D01*
X0222370Y0030167D01*
X0222683Y0030059D01*
X0222994Y0029943D01*
X0223301Y0029820D01*
X0223606Y0029690D01*
X0223907Y0029552D01*
X0224205Y0029407D01*
X0224499Y0029254D01*
X0224789Y0029094D01*
X0225075Y0028927D01*
X0225357Y0028754D01*
X0225635Y0028573D01*
X0225908Y0028385D01*
X0226177Y0028191D01*
X0226441Y0027991D01*
X0226699Y0027784D01*
X0226953Y0027570D01*
X0227201Y0027351D01*
X0227444Y0027125D01*
X0227681Y0026894D01*
X0227912Y0026657D01*
X0228138Y0026414D01*
X0228357Y0026166D01*
X0228571Y0025912D01*
X0228778Y0025654D01*
X0228978Y0025390D01*
X0229172Y0025121D01*
X0229360Y0024848D01*
X0229541Y0024570D01*
X0229714Y0024288D01*
X0229881Y0024002D01*
X0230041Y0023712D01*
X0230194Y0023418D01*
X0230339Y0023120D01*
X0230477Y0022819D01*
X0230607Y0022514D01*
X0230730Y0022207D01*
X0230846Y0021896D01*
X0230954Y0021583D01*
X0231054Y0021267D01*
X0231146Y0020949D01*
X0231230Y0020628D01*
X0231307Y0020306D01*
X0231376Y0019982D01*
X0231436Y0019656D01*
X0231489Y0019329D01*
X0231533Y0019001D01*
X0231570Y0018671D01*
X0231598Y0018341D01*
X0231619Y0018010D01*
X0231631Y0017679D01*
X0231635Y0017348D01*
X0231631Y0017017D01*
X0231619Y0016686D01*
X0231598Y0016355D01*
X0231570Y0016025D01*
X0231533Y0015695D01*
X0231489Y0015367D01*
X0231436Y0015040D01*
X0231376Y0014714D01*
X0231307Y0014390D01*
X0231230Y0014068D01*
X0231146Y0013747D01*
X0231054Y0013429D01*
X0230954Y0013113D01*
X0230846Y0012800D01*
X0230730Y0012489D01*
X0230607Y0012182D01*
X0230477Y0011877D01*
X0230339Y0011576D01*
X0230194Y0011278D01*
X0230041Y0010984D01*
X0229881Y0010694D01*
X0229714Y0010408D01*
X0229541Y0010126D01*
X0229360Y0009848D01*
X0229172Y0009575D01*
X0228978Y0009306D01*
X0228778Y0009042D01*
X0228571Y0008784D01*
X0228357Y0008530D01*
X0228138Y0008282D01*
X0227912Y0008039D01*
X0227681Y0007802D01*
X0227444Y0007571D01*
X0227201Y0007345D01*
X0226953Y0007126D01*
X0226699Y0006912D01*
X0226441Y0006705D01*
X0226177Y0006505D01*
X0225908Y0006311D01*
X0225635Y0006123D01*
X0225357Y0005942D01*
X0225075Y0005769D01*
X0224789Y0005602D01*
X0224499Y0005442D01*
X0224205Y0005289D01*
X0223907Y0005144D01*
X0223606Y0005006D01*
X0223301Y0004876D01*
X0222994Y0004753D01*
X0222683Y0004637D01*
X0222370Y0004529D01*
X0222054Y0004429D01*
X0221736Y0004337D01*
X0221415Y0004253D01*
X0221093Y0004176D01*
X0220769Y0004107D01*
X0220443Y0004047D01*
X0220116Y0003994D01*
X0219788Y0003950D01*
X0219458Y0003913D01*
X0219128Y0003885D01*
X0218797Y0003864D01*
X0218466Y0003852D01*
X0218135Y0003848D01*
X0217804Y0003852D01*
X0217473Y0003864D01*
X0217142Y0003885D01*
X0216812Y0003913D01*
X0216482Y0003950D01*
X0216154Y0003994D01*
X0215827Y0004047D01*
X0215501Y0004107D01*
X0215177Y0004176D01*
X0214855Y0004253D01*
X0214534Y0004337D01*
X0214216Y0004429D01*
X0213900Y0004529D01*
X0213587Y0004637D01*
X0213276Y0004753D01*
X0212969Y0004876D01*
X0212664Y0005006D01*
X0212363Y0005144D01*
X0212065Y0005289D01*
X0211771Y0005442D01*
X0211481Y0005602D01*
X0211195Y0005769D01*
X0210913Y0005942D01*
X0210635Y0006123D01*
X0210362Y0006311D01*
X0210093Y0006505D01*
X0209829Y0006705D01*
X0209571Y0006912D01*
X0209317Y0007126D01*
X0209069Y0007345D01*
X0208826Y0007571D01*
X0208589Y0007802D01*
X0208358Y0008039D01*
X0208132Y0008282D01*
X0207913Y0008530D01*
X0207699Y0008784D01*
X0207492Y0009042D01*
X0207292Y0009306D01*
X0207098Y0009575D01*
X0206910Y0009848D01*
X0206729Y0010126D01*
X0206556Y0010408D01*
X0206389Y0010694D01*
X0206229Y0010984D01*
X0206076Y0011278D01*
X0205931Y0011576D01*
X0205793Y0011877D01*
X0205663Y0012182D01*
X0205540Y0012489D01*
X0205424Y0012800D01*
X0205316Y0013113D01*
X0205216Y0013429D01*
X0205124Y0013747D01*
X0205040Y0014068D01*
X0204963Y0014390D01*
X0204894Y0014714D01*
X0204834Y0015040D01*
X0204781Y0015367D01*
X0204737Y0015695D01*
X0204700Y0016025D01*
X0204672Y0016355D01*
X0204651Y0016686D01*
X0204639Y0017017D01*
X0204635Y0017348D01*
X0066840Y0017348D02*
X0066844Y0017679D01*
X0066856Y0018010D01*
X0066877Y0018341D01*
X0066905Y0018671D01*
X0066942Y0019001D01*
X0066986Y0019329D01*
X0067039Y0019656D01*
X0067099Y0019982D01*
X0067168Y0020306D01*
X0067245Y0020628D01*
X0067329Y0020949D01*
X0067421Y0021267D01*
X0067521Y0021583D01*
X0067629Y0021896D01*
X0067745Y0022207D01*
X0067868Y0022514D01*
X0067998Y0022819D01*
X0068136Y0023120D01*
X0068281Y0023418D01*
X0068434Y0023712D01*
X0068594Y0024002D01*
X0068761Y0024288D01*
X0068934Y0024570D01*
X0069115Y0024848D01*
X0069303Y0025121D01*
X0069497Y0025390D01*
X0069697Y0025654D01*
X0069904Y0025912D01*
X0070118Y0026166D01*
X0070337Y0026414D01*
X0070563Y0026657D01*
X0070794Y0026894D01*
X0071031Y0027125D01*
X0071274Y0027351D01*
X0071522Y0027570D01*
X0071776Y0027784D01*
X0072034Y0027991D01*
X0072298Y0028191D01*
X0072567Y0028385D01*
X0072840Y0028573D01*
X0073118Y0028754D01*
X0073400Y0028927D01*
X0073686Y0029094D01*
X0073976Y0029254D01*
X0074270Y0029407D01*
X0074568Y0029552D01*
X0074869Y0029690D01*
X0075174Y0029820D01*
X0075481Y0029943D01*
X0075792Y0030059D01*
X0076105Y0030167D01*
X0076421Y0030267D01*
X0076739Y0030359D01*
X0077060Y0030443D01*
X0077382Y0030520D01*
X0077706Y0030589D01*
X0078032Y0030649D01*
X0078359Y0030702D01*
X0078687Y0030746D01*
X0079017Y0030783D01*
X0079347Y0030811D01*
X0079678Y0030832D01*
X0080009Y0030844D01*
X0080340Y0030848D01*
X0080671Y0030844D01*
X0081002Y0030832D01*
X0081333Y0030811D01*
X0081663Y0030783D01*
X0081993Y0030746D01*
X0082321Y0030702D01*
X0082648Y0030649D01*
X0082974Y0030589D01*
X0083298Y0030520D01*
X0083620Y0030443D01*
X0083941Y0030359D01*
X0084259Y0030267D01*
X0084575Y0030167D01*
X0084888Y0030059D01*
X0085199Y0029943D01*
X0085506Y0029820D01*
X0085811Y0029690D01*
X0086112Y0029552D01*
X0086410Y0029407D01*
X0086704Y0029254D01*
X0086994Y0029094D01*
X0087280Y0028927D01*
X0087562Y0028754D01*
X0087840Y0028573D01*
X0088113Y0028385D01*
X0088382Y0028191D01*
X0088646Y0027991D01*
X0088904Y0027784D01*
X0089158Y0027570D01*
X0089406Y0027351D01*
X0089649Y0027125D01*
X0089886Y0026894D01*
X0090117Y0026657D01*
X0090343Y0026414D01*
X0090562Y0026166D01*
X0090776Y0025912D01*
X0090983Y0025654D01*
X0091183Y0025390D01*
X0091377Y0025121D01*
X0091565Y0024848D01*
X0091746Y0024570D01*
X0091919Y0024288D01*
X0092086Y0024002D01*
X0092246Y0023712D01*
X0092399Y0023418D01*
X0092544Y0023120D01*
X0092682Y0022819D01*
X0092812Y0022514D01*
X0092935Y0022207D01*
X0093051Y0021896D01*
X0093159Y0021583D01*
X0093259Y0021267D01*
X0093351Y0020949D01*
X0093435Y0020628D01*
X0093512Y0020306D01*
X0093581Y0019982D01*
X0093641Y0019656D01*
X0093694Y0019329D01*
X0093738Y0019001D01*
X0093775Y0018671D01*
X0093803Y0018341D01*
X0093824Y0018010D01*
X0093836Y0017679D01*
X0093840Y0017348D01*
X0093836Y0017017D01*
X0093824Y0016686D01*
X0093803Y0016355D01*
X0093775Y0016025D01*
X0093738Y0015695D01*
X0093694Y0015367D01*
X0093641Y0015040D01*
X0093581Y0014714D01*
X0093512Y0014390D01*
X0093435Y0014068D01*
X0093351Y0013747D01*
X0093259Y0013429D01*
X0093159Y0013113D01*
X0093051Y0012800D01*
X0092935Y0012489D01*
X0092812Y0012182D01*
X0092682Y0011877D01*
X0092544Y0011576D01*
X0092399Y0011278D01*
X0092246Y0010984D01*
X0092086Y0010694D01*
X0091919Y0010408D01*
X0091746Y0010126D01*
X0091565Y0009848D01*
X0091377Y0009575D01*
X0091183Y0009306D01*
X0090983Y0009042D01*
X0090776Y0008784D01*
X0090562Y0008530D01*
X0090343Y0008282D01*
X0090117Y0008039D01*
X0089886Y0007802D01*
X0089649Y0007571D01*
X0089406Y0007345D01*
X0089158Y0007126D01*
X0088904Y0006912D01*
X0088646Y0006705D01*
X0088382Y0006505D01*
X0088113Y0006311D01*
X0087840Y0006123D01*
X0087562Y0005942D01*
X0087280Y0005769D01*
X0086994Y0005602D01*
X0086704Y0005442D01*
X0086410Y0005289D01*
X0086112Y0005144D01*
X0085811Y0005006D01*
X0085506Y0004876D01*
X0085199Y0004753D01*
X0084888Y0004637D01*
X0084575Y0004529D01*
X0084259Y0004429D01*
X0083941Y0004337D01*
X0083620Y0004253D01*
X0083298Y0004176D01*
X0082974Y0004107D01*
X0082648Y0004047D01*
X0082321Y0003994D01*
X0081993Y0003950D01*
X0081663Y0003913D01*
X0081333Y0003885D01*
X0081002Y0003864D01*
X0080671Y0003852D01*
X0080340Y0003848D01*
X0080009Y0003852D01*
X0079678Y0003864D01*
X0079347Y0003885D01*
X0079017Y0003913D01*
X0078687Y0003950D01*
X0078359Y0003994D01*
X0078032Y0004047D01*
X0077706Y0004107D01*
X0077382Y0004176D01*
X0077060Y0004253D01*
X0076739Y0004337D01*
X0076421Y0004429D01*
X0076105Y0004529D01*
X0075792Y0004637D01*
X0075481Y0004753D01*
X0075174Y0004876D01*
X0074869Y0005006D01*
X0074568Y0005144D01*
X0074270Y0005289D01*
X0073976Y0005442D01*
X0073686Y0005602D01*
X0073400Y0005769D01*
X0073118Y0005942D01*
X0072840Y0006123D01*
X0072567Y0006311D01*
X0072298Y0006505D01*
X0072034Y0006705D01*
X0071776Y0006912D01*
X0071522Y0007126D01*
X0071274Y0007345D01*
X0071031Y0007571D01*
X0070794Y0007802D01*
X0070563Y0008039D01*
X0070337Y0008282D01*
X0070118Y0008530D01*
X0069904Y0008784D01*
X0069697Y0009042D01*
X0069497Y0009306D01*
X0069303Y0009575D01*
X0069115Y0009848D01*
X0068934Y0010126D01*
X0068761Y0010408D01*
X0068594Y0010694D01*
X0068434Y0010984D01*
X0068281Y0011278D01*
X0068136Y0011576D01*
X0067998Y0011877D01*
X0067868Y0012182D01*
X0067745Y0012489D01*
X0067629Y0012800D01*
X0067521Y0013113D01*
X0067421Y0013429D01*
X0067329Y0013747D01*
X0067245Y0014068D01*
X0067168Y0014390D01*
X0067099Y0014714D01*
X0067039Y0015040D01*
X0066986Y0015367D01*
X0066942Y0015695D01*
X0066905Y0016025D01*
X0066877Y0016355D01*
X0066856Y0016686D01*
X0066844Y0017017D01*
X0066840Y0017348D01*
D15*
X0274100Y0236850D03*
D16*
X0248600Y0253698D02*
X0248600Y0279502D01*
X0234600Y0279502D01*
X0234600Y0253698D01*
X0248600Y0253698D01*
X0261482Y0270025D02*
X0261482Y0278135D01*
X0271718Y0278135D02*
X0271718Y0270025D01*
X0276482Y0270025D02*
X0276482Y0278135D01*
X0286718Y0278135D02*
X0286718Y0270025D01*
X0286718Y0300025D02*
X0286718Y0308135D01*
X0276482Y0308135D02*
X0276482Y0300025D01*
X0271718Y0300025D02*
X0271718Y0308135D01*
X0261482Y0308135D02*
X0261482Y0300025D01*
X0256718Y0300025D02*
X0256718Y0308135D01*
X0246482Y0308135D02*
X0246482Y0300025D01*
X0211442Y0351994D02*
X0211444Y0352158D01*
X0211450Y0352322D01*
X0211460Y0352486D01*
X0211474Y0352650D01*
X0211492Y0352813D01*
X0211514Y0352976D01*
X0211541Y0353138D01*
X0211571Y0353300D01*
X0211605Y0353460D01*
X0211643Y0353620D01*
X0211684Y0353779D01*
X0211730Y0353937D01*
X0211780Y0354093D01*
X0211833Y0354249D01*
X0211890Y0354403D01*
X0211951Y0354555D01*
X0212016Y0354706D01*
X0212085Y0354856D01*
X0212157Y0355003D01*
X0212232Y0355149D01*
X0212312Y0355293D01*
X0212394Y0355435D01*
X0212480Y0355575D01*
X0212570Y0355712D01*
X0212663Y0355848D01*
X0212759Y0355981D01*
X0212859Y0356112D01*
X0212961Y0356240D01*
X0213067Y0356366D01*
X0213176Y0356489D01*
X0213288Y0356609D01*
X0213402Y0356727D01*
X0213520Y0356841D01*
X0213640Y0356953D01*
X0213763Y0357062D01*
X0213889Y0357168D01*
X0214017Y0357270D01*
X0214148Y0357370D01*
X0214281Y0357466D01*
X0214417Y0357559D01*
X0214554Y0357649D01*
X0214694Y0357735D01*
X0214836Y0357817D01*
X0214980Y0357897D01*
X0215126Y0357972D01*
X0215273Y0358044D01*
X0215423Y0358113D01*
X0215574Y0358178D01*
X0215726Y0358239D01*
X0215880Y0358296D01*
X0216036Y0358349D01*
X0216192Y0358399D01*
X0216350Y0358445D01*
X0216509Y0358486D01*
X0216669Y0358524D01*
X0216829Y0358558D01*
X0216991Y0358588D01*
X0217153Y0358615D01*
X0217316Y0358637D01*
X0217479Y0358655D01*
X0217643Y0358669D01*
X0217807Y0358679D01*
X0217971Y0358685D01*
X0218135Y0358687D01*
X0218299Y0358685D01*
X0218463Y0358679D01*
X0218627Y0358669D01*
X0218791Y0358655D01*
X0218954Y0358637D01*
X0219117Y0358615D01*
X0219279Y0358588D01*
X0219441Y0358558D01*
X0219601Y0358524D01*
X0219761Y0358486D01*
X0219920Y0358445D01*
X0220078Y0358399D01*
X0220234Y0358349D01*
X0220390Y0358296D01*
X0220544Y0358239D01*
X0220696Y0358178D01*
X0220847Y0358113D01*
X0220997Y0358044D01*
X0221144Y0357972D01*
X0221290Y0357897D01*
X0221434Y0357817D01*
X0221576Y0357735D01*
X0221716Y0357649D01*
X0221853Y0357559D01*
X0221989Y0357466D01*
X0222122Y0357370D01*
X0222253Y0357270D01*
X0222381Y0357168D01*
X0222507Y0357062D01*
X0222630Y0356953D01*
X0222750Y0356841D01*
X0222868Y0356727D01*
X0222982Y0356609D01*
X0223094Y0356489D01*
X0223203Y0356366D01*
X0223309Y0356240D01*
X0223411Y0356112D01*
X0223511Y0355981D01*
X0223607Y0355848D01*
X0223700Y0355712D01*
X0223790Y0355575D01*
X0223876Y0355435D01*
X0223958Y0355293D01*
X0224038Y0355149D01*
X0224113Y0355003D01*
X0224185Y0354856D01*
X0224254Y0354706D01*
X0224319Y0354555D01*
X0224380Y0354403D01*
X0224437Y0354249D01*
X0224490Y0354093D01*
X0224540Y0353937D01*
X0224586Y0353779D01*
X0224627Y0353620D01*
X0224665Y0353460D01*
X0224699Y0353300D01*
X0224729Y0353138D01*
X0224756Y0352976D01*
X0224778Y0352813D01*
X0224796Y0352650D01*
X0224810Y0352486D01*
X0224820Y0352322D01*
X0224826Y0352158D01*
X0224828Y0351994D01*
X0224826Y0351830D01*
X0224820Y0351666D01*
X0224810Y0351502D01*
X0224796Y0351338D01*
X0224778Y0351175D01*
X0224756Y0351012D01*
X0224729Y0350850D01*
X0224699Y0350688D01*
X0224665Y0350528D01*
X0224627Y0350368D01*
X0224586Y0350209D01*
X0224540Y0350051D01*
X0224490Y0349895D01*
X0224437Y0349739D01*
X0224380Y0349585D01*
X0224319Y0349433D01*
X0224254Y0349282D01*
X0224185Y0349132D01*
X0224113Y0348985D01*
X0224038Y0348839D01*
X0223958Y0348695D01*
X0223876Y0348553D01*
X0223790Y0348413D01*
X0223700Y0348276D01*
X0223607Y0348140D01*
X0223511Y0348007D01*
X0223411Y0347876D01*
X0223309Y0347748D01*
X0223203Y0347622D01*
X0223094Y0347499D01*
X0222982Y0347379D01*
X0222868Y0347261D01*
X0222750Y0347147D01*
X0222630Y0347035D01*
X0222507Y0346926D01*
X0222381Y0346820D01*
X0222253Y0346718D01*
X0222122Y0346618D01*
X0221989Y0346522D01*
X0221853Y0346429D01*
X0221716Y0346339D01*
X0221576Y0346253D01*
X0221434Y0346171D01*
X0221290Y0346091D01*
X0221144Y0346016D01*
X0220997Y0345944D01*
X0220847Y0345875D01*
X0220696Y0345810D01*
X0220544Y0345749D01*
X0220390Y0345692D01*
X0220234Y0345639D01*
X0220078Y0345589D01*
X0219920Y0345543D01*
X0219761Y0345502D01*
X0219601Y0345464D01*
X0219441Y0345430D01*
X0219279Y0345400D01*
X0219117Y0345373D01*
X0218954Y0345351D01*
X0218791Y0345333D01*
X0218627Y0345319D01*
X0218463Y0345309D01*
X0218299Y0345303D01*
X0218135Y0345301D01*
X0217971Y0345303D01*
X0217807Y0345309D01*
X0217643Y0345319D01*
X0217479Y0345333D01*
X0217316Y0345351D01*
X0217153Y0345373D01*
X0216991Y0345400D01*
X0216829Y0345430D01*
X0216669Y0345464D01*
X0216509Y0345502D01*
X0216350Y0345543D01*
X0216192Y0345589D01*
X0216036Y0345639D01*
X0215880Y0345692D01*
X0215726Y0345749D01*
X0215574Y0345810D01*
X0215423Y0345875D01*
X0215273Y0345944D01*
X0215126Y0346016D01*
X0214980Y0346091D01*
X0214836Y0346171D01*
X0214694Y0346253D01*
X0214554Y0346339D01*
X0214417Y0346429D01*
X0214281Y0346522D01*
X0214148Y0346618D01*
X0214017Y0346718D01*
X0213889Y0346820D01*
X0213763Y0346926D01*
X0213640Y0347035D01*
X0213520Y0347147D01*
X0213402Y0347261D01*
X0213288Y0347379D01*
X0213176Y0347499D01*
X0213067Y0347622D01*
X0212961Y0347748D01*
X0212859Y0347876D01*
X0212759Y0348007D01*
X0212663Y0348140D01*
X0212570Y0348276D01*
X0212480Y0348413D01*
X0212394Y0348553D01*
X0212312Y0348695D01*
X0212232Y0348839D01*
X0212157Y0348985D01*
X0212085Y0349132D01*
X0212016Y0349282D01*
X0211951Y0349433D01*
X0211890Y0349585D01*
X0211833Y0349739D01*
X0211780Y0349895D01*
X0211730Y0350051D01*
X0211684Y0350209D01*
X0211643Y0350368D01*
X0211605Y0350528D01*
X0211571Y0350688D01*
X0211541Y0350850D01*
X0211514Y0351012D01*
X0211492Y0351175D01*
X0211474Y0351338D01*
X0211460Y0351502D01*
X0211450Y0351666D01*
X0211444Y0351830D01*
X0211442Y0351994D01*
X0218982Y0240675D02*
X0218982Y0232565D01*
X0229218Y0232565D02*
X0229218Y0240675D01*
X0073647Y0351994D02*
X0073649Y0352158D01*
X0073655Y0352322D01*
X0073665Y0352486D01*
X0073679Y0352650D01*
X0073697Y0352813D01*
X0073719Y0352976D01*
X0073746Y0353138D01*
X0073776Y0353300D01*
X0073810Y0353460D01*
X0073848Y0353620D01*
X0073889Y0353779D01*
X0073935Y0353937D01*
X0073985Y0354093D01*
X0074038Y0354249D01*
X0074095Y0354403D01*
X0074156Y0354555D01*
X0074221Y0354706D01*
X0074290Y0354856D01*
X0074362Y0355003D01*
X0074437Y0355149D01*
X0074517Y0355293D01*
X0074599Y0355435D01*
X0074685Y0355575D01*
X0074775Y0355712D01*
X0074868Y0355848D01*
X0074964Y0355981D01*
X0075064Y0356112D01*
X0075166Y0356240D01*
X0075272Y0356366D01*
X0075381Y0356489D01*
X0075493Y0356609D01*
X0075607Y0356727D01*
X0075725Y0356841D01*
X0075845Y0356953D01*
X0075968Y0357062D01*
X0076094Y0357168D01*
X0076222Y0357270D01*
X0076353Y0357370D01*
X0076486Y0357466D01*
X0076622Y0357559D01*
X0076759Y0357649D01*
X0076899Y0357735D01*
X0077041Y0357817D01*
X0077185Y0357897D01*
X0077331Y0357972D01*
X0077478Y0358044D01*
X0077628Y0358113D01*
X0077779Y0358178D01*
X0077931Y0358239D01*
X0078085Y0358296D01*
X0078241Y0358349D01*
X0078397Y0358399D01*
X0078555Y0358445D01*
X0078714Y0358486D01*
X0078874Y0358524D01*
X0079034Y0358558D01*
X0079196Y0358588D01*
X0079358Y0358615D01*
X0079521Y0358637D01*
X0079684Y0358655D01*
X0079848Y0358669D01*
X0080012Y0358679D01*
X0080176Y0358685D01*
X0080340Y0358687D01*
X0080504Y0358685D01*
X0080668Y0358679D01*
X0080832Y0358669D01*
X0080996Y0358655D01*
X0081159Y0358637D01*
X0081322Y0358615D01*
X0081484Y0358588D01*
X0081646Y0358558D01*
X0081806Y0358524D01*
X0081966Y0358486D01*
X0082125Y0358445D01*
X0082283Y0358399D01*
X0082439Y0358349D01*
X0082595Y0358296D01*
X0082749Y0358239D01*
X0082901Y0358178D01*
X0083052Y0358113D01*
X0083202Y0358044D01*
X0083349Y0357972D01*
X0083495Y0357897D01*
X0083639Y0357817D01*
X0083781Y0357735D01*
X0083921Y0357649D01*
X0084058Y0357559D01*
X0084194Y0357466D01*
X0084327Y0357370D01*
X0084458Y0357270D01*
X0084586Y0357168D01*
X0084712Y0357062D01*
X0084835Y0356953D01*
X0084955Y0356841D01*
X0085073Y0356727D01*
X0085187Y0356609D01*
X0085299Y0356489D01*
X0085408Y0356366D01*
X0085514Y0356240D01*
X0085616Y0356112D01*
X0085716Y0355981D01*
X0085812Y0355848D01*
X0085905Y0355712D01*
X0085995Y0355575D01*
X0086081Y0355435D01*
X0086163Y0355293D01*
X0086243Y0355149D01*
X0086318Y0355003D01*
X0086390Y0354856D01*
X0086459Y0354706D01*
X0086524Y0354555D01*
X0086585Y0354403D01*
X0086642Y0354249D01*
X0086695Y0354093D01*
X0086745Y0353937D01*
X0086791Y0353779D01*
X0086832Y0353620D01*
X0086870Y0353460D01*
X0086904Y0353300D01*
X0086934Y0353138D01*
X0086961Y0352976D01*
X0086983Y0352813D01*
X0087001Y0352650D01*
X0087015Y0352486D01*
X0087025Y0352322D01*
X0087031Y0352158D01*
X0087033Y0351994D01*
X0087031Y0351830D01*
X0087025Y0351666D01*
X0087015Y0351502D01*
X0087001Y0351338D01*
X0086983Y0351175D01*
X0086961Y0351012D01*
X0086934Y0350850D01*
X0086904Y0350688D01*
X0086870Y0350528D01*
X0086832Y0350368D01*
X0086791Y0350209D01*
X0086745Y0350051D01*
X0086695Y0349895D01*
X0086642Y0349739D01*
X0086585Y0349585D01*
X0086524Y0349433D01*
X0086459Y0349282D01*
X0086390Y0349132D01*
X0086318Y0348985D01*
X0086243Y0348839D01*
X0086163Y0348695D01*
X0086081Y0348553D01*
X0085995Y0348413D01*
X0085905Y0348276D01*
X0085812Y0348140D01*
X0085716Y0348007D01*
X0085616Y0347876D01*
X0085514Y0347748D01*
X0085408Y0347622D01*
X0085299Y0347499D01*
X0085187Y0347379D01*
X0085073Y0347261D01*
X0084955Y0347147D01*
X0084835Y0347035D01*
X0084712Y0346926D01*
X0084586Y0346820D01*
X0084458Y0346718D01*
X0084327Y0346618D01*
X0084194Y0346522D01*
X0084058Y0346429D01*
X0083921Y0346339D01*
X0083781Y0346253D01*
X0083639Y0346171D01*
X0083495Y0346091D01*
X0083349Y0346016D01*
X0083202Y0345944D01*
X0083052Y0345875D01*
X0082901Y0345810D01*
X0082749Y0345749D01*
X0082595Y0345692D01*
X0082439Y0345639D01*
X0082283Y0345589D01*
X0082125Y0345543D01*
X0081966Y0345502D01*
X0081806Y0345464D01*
X0081646Y0345430D01*
X0081484Y0345400D01*
X0081322Y0345373D01*
X0081159Y0345351D01*
X0080996Y0345333D01*
X0080832Y0345319D01*
X0080668Y0345309D01*
X0080504Y0345303D01*
X0080340Y0345301D01*
X0080176Y0345303D01*
X0080012Y0345309D01*
X0079848Y0345319D01*
X0079684Y0345333D01*
X0079521Y0345351D01*
X0079358Y0345373D01*
X0079196Y0345400D01*
X0079034Y0345430D01*
X0078874Y0345464D01*
X0078714Y0345502D01*
X0078555Y0345543D01*
X0078397Y0345589D01*
X0078241Y0345639D01*
X0078085Y0345692D01*
X0077931Y0345749D01*
X0077779Y0345810D01*
X0077628Y0345875D01*
X0077478Y0345944D01*
X0077331Y0346016D01*
X0077185Y0346091D01*
X0077041Y0346171D01*
X0076899Y0346253D01*
X0076759Y0346339D01*
X0076622Y0346429D01*
X0076486Y0346522D01*
X0076353Y0346618D01*
X0076222Y0346718D01*
X0076094Y0346820D01*
X0075968Y0346926D01*
X0075845Y0347035D01*
X0075725Y0347147D01*
X0075607Y0347261D01*
X0075493Y0347379D01*
X0075381Y0347499D01*
X0075272Y0347622D01*
X0075166Y0347748D01*
X0075064Y0347876D01*
X0074964Y0348007D01*
X0074868Y0348140D01*
X0074775Y0348276D01*
X0074685Y0348413D01*
X0074599Y0348553D01*
X0074517Y0348695D01*
X0074437Y0348839D01*
X0074362Y0348985D01*
X0074290Y0349132D01*
X0074221Y0349282D01*
X0074156Y0349433D01*
X0074095Y0349585D01*
X0074038Y0349739D01*
X0073985Y0349895D01*
X0073935Y0350051D01*
X0073889Y0350209D01*
X0073848Y0350368D01*
X0073810Y0350528D01*
X0073776Y0350688D01*
X0073746Y0350850D01*
X0073719Y0351012D01*
X0073697Y0351175D01*
X0073679Y0351338D01*
X0073665Y0351502D01*
X0073655Y0351666D01*
X0073649Y0351830D01*
X0073647Y0351994D01*
X0270065Y0039218D02*
X0278175Y0039218D01*
X0278175Y0028982D02*
X0270065Y0028982D01*
X0211442Y0017348D02*
X0211444Y0017512D01*
X0211450Y0017676D01*
X0211460Y0017840D01*
X0211474Y0018004D01*
X0211492Y0018167D01*
X0211514Y0018330D01*
X0211541Y0018492D01*
X0211571Y0018654D01*
X0211605Y0018814D01*
X0211643Y0018974D01*
X0211684Y0019133D01*
X0211730Y0019291D01*
X0211780Y0019447D01*
X0211833Y0019603D01*
X0211890Y0019757D01*
X0211951Y0019909D01*
X0212016Y0020060D01*
X0212085Y0020210D01*
X0212157Y0020357D01*
X0212232Y0020503D01*
X0212312Y0020647D01*
X0212394Y0020789D01*
X0212480Y0020929D01*
X0212570Y0021066D01*
X0212663Y0021202D01*
X0212759Y0021335D01*
X0212859Y0021466D01*
X0212961Y0021594D01*
X0213067Y0021720D01*
X0213176Y0021843D01*
X0213288Y0021963D01*
X0213402Y0022081D01*
X0213520Y0022195D01*
X0213640Y0022307D01*
X0213763Y0022416D01*
X0213889Y0022522D01*
X0214017Y0022624D01*
X0214148Y0022724D01*
X0214281Y0022820D01*
X0214417Y0022913D01*
X0214554Y0023003D01*
X0214694Y0023089D01*
X0214836Y0023171D01*
X0214980Y0023251D01*
X0215126Y0023326D01*
X0215273Y0023398D01*
X0215423Y0023467D01*
X0215574Y0023532D01*
X0215726Y0023593D01*
X0215880Y0023650D01*
X0216036Y0023703D01*
X0216192Y0023753D01*
X0216350Y0023799D01*
X0216509Y0023840D01*
X0216669Y0023878D01*
X0216829Y0023912D01*
X0216991Y0023942D01*
X0217153Y0023969D01*
X0217316Y0023991D01*
X0217479Y0024009D01*
X0217643Y0024023D01*
X0217807Y0024033D01*
X0217971Y0024039D01*
X0218135Y0024041D01*
X0218299Y0024039D01*
X0218463Y0024033D01*
X0218627Y0024023D01*
X0218791Y0024009D01*
X0218954Y0023991D01*
X0219117Y0023969D01*
X0219279Y0023942D01*
X0219441Y0023912D01*
X0219601Y0023878D01*
X0219761Y0023840D01*
X0219920Y0023799D01*
X0220078Y0023753D01*
X0220234Y0023703D01*
X0220390Y0023650D01*
X0220544Y0023593D01*
X0220696Y0023532D01*
X0220847Y0023467D01*
X0220997Y0023398D01*
X0221144Y0023326D01*
X0221290Y0023251D01*
X0221434Y0023171D01*
X0221576Y0023089D01*
X0221716Y0023003D01*
X0221853Y0022913D01*
X0221989Y0022820D01*
X0222122Y0022724D01*
X0222253Y0022624D01*
X0222381Y0022522D01*
X0222507Y0022416D01*
X0222630Y0022307D01*
X0222750Y0022195D01*
X0222868Y0022081D01*
X0222982Y0021963D01*
X0223094Y0021843D01*
X0223203Y0021720D01*
X0223309Y0021594D01*
X0223411Y0021466D01*
X0223511Y0021335D01*
X0223607Y0021202D01*
X0223700Y0021066D01*
X0223790Y0020929D01*
X0223876Y0020789D01*
X0223958Y0020647D01*
X0224038Y0020503D01*
X0224113Y0020357D01*
X0224185Y0020210D01*
X0224254Y0020060D01*
X0224319Y0019909D01*
X0224380Y0019757D01*
X0224437Y0019603D01*
X0224490Y0019447D01*
X0224540Y0019291D01*
X0224586Y0019133D01*
X0224627Y0018974D01*
X0224665Y0018814D01*
X0224699Y0018654D01*
X0224729Y0018492D01*
X0224756Y0018330D01*
X0224778Y0018167D01*
X0224796Y0018004D01*
X0224810Y0017840D01*
X0224820Y0017676D01*
X0224826Y0017512D01*
X0224828Y0017348D01*
X0224826Y0017184D01*
X0224820Y0017020D01*
X0224810Y0016856D01*
X0224796Y0016692D01*
X0224778Y0016529D01*
X0224756Y0016366D01*
X0224729Y0016204D01*
X0224699Y0016042D01*
X0224665Y0015882D01*
X0224627Y0015722D01*
X0224586Y0015563D01*
X0224540Y0015405D01*
X0224490Y0015249D01*
X0224437Y0015093D01*
X0224380Y0014939D01*
X0224319Y0014787D01*
X0224254Y0014636D01*
X0224185Y0014486D01*
X0224113Y0014339D01*
X0224038Y0014193D01*
X0223958Y0014049D01*
X0223876Y0013907D01*
X0223790Y0013767D01*
X0223700Y0013630D01*
X0223607Y0013494D01*
X0223511Y0013361D01*
X0223411Y0013230D01*
X0223309Y0013102D01*
X0223203Y0012976D01*
X0223094Y0012853D01*
X0222982Y0012733D01*
X0222868Y0012615D01*
X0222750Y0012501D01*
X0222630Y0012389D01*
X0222507Y0012280D01*
X0222381Y0012174D01*
X0222253Y0012072D01*
X0222122Y0011972D01*
X0221989Y0011876D01*
X0221853Y0011783D01*
X0221716Y0011693D01*
X0221576Y0011607D01*
X0221434Y0011525D01*
X0221290Y0011445D01*
X0221144Y0011370D01*
X0220997Y0011298D01*
X0220847Y0011229D01*
X0220696Y0011164D01*
X0220544Y0011103D01*
X0220390Y0011046D01*
X0220234Y0010993D01*
X0220078Y0010943D01*
X0219920Y0010897D01*
X0219761Y0010856D01*
X0219601Y0010818D01*
X0219441Y0010784D01*
X0219279Y0010754D01*
X0219117Y0010727D01*
X0218954Y0010705D01*
X0218791Y0010687D01*
X0218627Y0010673D01*
X0218463Y0010663D01*
X0218299Y0010657D01*
X0218135Y0010655D01*
X0217971Y0010657D01*
X0217807Y0010663D01*
X0217643Y0010673D01*
X0217479Y0010687D01*
X0217316Y0010705D01*
X0217153Y0010727D01*
X0216991Y0010754D01*
X0216829Y0010784D01*
X0216669Y0010818D01*
X0216509Y0010856D01*
X0216350Y0010897D01*
X0216192Y0010943D01*
X0216036Y0010993D01*
X0215880Y0011046D01*
X0215726Y0011103D01*
X0215574Y0011164D01*
X0215423Y0011229D01*
X0215273Y0011298D01*
X0215126Y0011370D01*
X0214980Y0011445D01*
X0214836Y0011525D01*
X0214694Y0011607D01*
X0214554Y0011693D01*
X0214417Y0011783D01*
X0214281Y0011876D01*
X0214148Y0011972D01*
X0214017Y0012072D01*
X0213889Y0012174D01*
X0213763Y0012280D01*
X0213640Y0012389D01*
X0213520Y0012501D01*
X0213402Y0012615D01*
X0213288Y0012733D01*
X0213176Y0012853D01*
X0213067Y0012976D01*
X0212961Y0013102D01*
X0212859Y0013230D01*
X0212759Y0013361D01*
X0212663Y0013494D01*
X0212570Y0013630D01*
X0212480Y0013767D01*
X0212394Y0013907D01*
X0212312Y0014049D01*
X0212232Y0014193D01*
X0212157Y0014339D01*
X0212085Y0014486D01*
X0212016Y0014636D01*
X0211951Y0014787D01*
X0211890Y0014939D01*
X0211833Y0015093D01*
X0211780Y0015249D01*
X0211730Y0015405D01*
X0211684Y0015563D01*
X0211643Y0015722D01*
X0211605Y0015882D01*
X0211571Y0016042D01*
X0211541Y0016204D01*
X0211514Y0016366D01*
X0211492Y0016529D01*
X0211474Y0016692D01*
X0211460Y0016856D01*
X0211450Y0017020D01*
X0211444Y0017184D01*
X0211442Y0017348D01*
X0073647Y0017348D02*
X0073649Y0017512D01*
X0073655Y0017676D01*
X0073665Y0017840D01*
X0073679Y0018004D01*
X0073697Y0018167D01*
X0073719Y0018330D01*
X0073746Y0018492D01*
X0073776Y0018654D01*
X0073810Y0018814D01*
X0073848Y0018974D01*
X0073889Y0019133D01*
X0073935Y0019291D01*
X0073985Y0019447D01*
X0074038Y0019603D01*
X0074095Y0019757D01*
X0074156Y0019909D01*
X0074221Y0020060D01*
X0074290Y0020210D01*
X0074362Y0020357D01*
X0074437Y0020503D01*
X0074517Y0020647D01*
X0074599Y0020789D01*
X0074685Y0020929D01*
X0074775Y0021066D01*
X0074868Y0021202D01*
X0074964Y0021335D01*
X0075064Y0021466D01*
X0075166Y0021594D01*
X0075272Y0021720D01*
X0075381Y0021843D01*
X0075493Y0021963D01*
X0075607Y0022081D01*
X0075725Y0022195D01*
X0075845Y0022307D01*
X0075968Y0022416D01*
X0076094Y0022522D01*
X0076222Y0022624D01*
X0076353Y0022724D01*
X0076486Y0022820D01*
X0076622Y0022913D01*
X0076759Y0023003D01*
X0076899Y0023089D01*
X0077041Y0023171D01*
X0077185Y0023251D01*
X0077331Y0023326D01*
X0077478Y0023398D01*
X0077628Y0023467D01*
X0077779Y0023532D01*
X0077931Y0023593D01*
X0078085Y0023650D01*
X0078241Y0023703D01*
X0078397Y0023753D01*
X0078555Y0023799D01*
X0078714Y0023840D01*
X0078874Y0023878D01*
X0079034Y0023912D01*
X0079196Y0023942D01*
X0079358Y0023969D01*
X0079521Y0023991D01*
X0079684Y0024009D01*
X0079848Y0024023D01*
X0080012Y0024033D01*
X0080176Y0024039D01*
X0080340Y0024041D01*
X0080504Y0024039D01*
X0080668Y0024033D01*
X0080832Y0024023D01*
X0080996Y0024009D01*
X0081159Y0023991D01*
X0081322Y0023969D01*
X0081484Y0023942D01*
X0081646Y0023912D01*
X0081806Y0023878D01*
X0081966Y0023840D01*
X0082125Y0023799D01*
X0082283Y0023753D01*
X0082439Y0023703D01*
X0082595Y0023650D01*
X0082749Y0023593D01*
X0082901Y0023532D01*
X0083052Y0023467D01*
X0083202Y0023398D01*
X0083349Y0023326D01*
X0083495Y0023251D01*
X0083639Y0023171D01*
X0083781Y0023089D01*
X0083921Y0023003D01*
X0084058Y0022913D01*
X0084194Y0022820D01*
X0084327Y0022724D01*
X0084458Y0022624D01*
X0084586Y0022522D01*
X0084712Y0022416D01*
X0084835Y0022307D01*
X0084955Y0022195D01*
X0085073Y0022081D01*
X0085187Y0021963D01*
X0085299Y0021843D01*
X0085408Y0021720D01*
X0085514Y0021594D01*
X0085616Y0021466D01*
X0085716Y0021335D01*
X0085812Y0021202D01*
X0085905Y0021066D01*
X0085995Y0020929D01*
X0086081Y0020789D01*
X0086163Y0020647D01*
X0086243Y0020503D01*
X0086318Y0020357D01*
X0086390Y0020210D01*
X0086459Y0020060D01*
X0086524Y0019909D01*
X0086585Y0019757D01*
X0086642Y0019603D01*
X0086695Y0019447D01*
X0086745Y0019291D01*
X0086791Y0019133D01*
X0086832Y0018974D01*
X0086870Y0018814D01*
X0086904Y0018654D01*
X0086934Y0018492D01*
X0086961Y0018330D01*
X0086983Y0018167D01*
X0087001Y0018004D01*
X0087015Y0017840D01*
X0087025Y0017676D01*
X0087031Y0017512D01*
X0087033Y0017348D01*
X0087031Y0017184D01*
X0087025Y0017020D01*
X0087015Y0016856D01*
X0087001Y0016692D01*
X0086983Y0016529D01*
X0086961Y0016366D01*
X0086934Y0016204D01*
X0086904Y0016042D01*
X0086870Y0015882D01*
X0086832Y0015722D01*
X0086791Y0015563D01*
X0086745Y0015405D01*
X0086695Y0015249D01*
X0086642Y0015093D01*
X0086585Y0014939D01*
X0086524Y0014787D01*
X0086459Y0014636D01*
X0086390Y0014486D01*
X0086318Y0014339D01*
X0086243Y0014193D01*
X0086163Y0014049D01*
X0086081Y0013907D01*
X0085995Y0013767D01*
X0085905Y0013630D01*
X0085812Y0013494D01*
X0085716Y0013361D01*
X0085616Y0013230D01*
X0085514Y0013102D01*
X0085408Y0012976D01*
X0085299Y0012853D01*
X0085187Y0012733D01*
X0085073Y0012615D01*
X0084955Y0012501D01*
X0084835Y0012389D01*
X0084712Y0012280D01*
X0084586Y0012174D01*
X0084458Y0012072D01*
X0084327Y0011972D01*
X0084194Y0011876D01*
X0084058Y0011783D01*
X0083921Y0011693D01*
X0083781Y0011607D01*
X0083639Y0011525D01*
X0083495Y0011445D01*
X0083349Y0011370D01*
X0083202Y0011298D01*
X0083052Y0011229D01*
X0082901Y0011164D01*
X0082749Y0011103D01*
X0082595Y0011046D01*
X0082439Y0010993D01*
X0082283Y0010943D01*
X0082125Y0010897D01*
X0081966Y0010856D01*
X0081806Y0010818D01*
X0081646Y0010784D01*
X0081484Y0010754D01*
X0081322Y0010727D01*
X0081159Y0010705D01*
X0080996Y0010687D01*
X0080832Y0010673D01*
X0080668Y0010663D01*
X0080504Y0010657D01*
X0080340Y0010655D01*
X0080176Y0010657D01*
X0080012Y0010663D01*
X0079848Y0010673D01*
X0079684Y0010687D01*
X0079521Y0010705D01*
X0079358Y0010727D01*
X0079196Y0010754D01*
X0079034Y0010784D01*
X0078874Y0010818D01*
X0078714Y0010856D01*
X0078555Y0010897D01*
X0078397Y0010943D01*
X0078241Y0010993D01*
X0078085Y0011046D01*
X0077931Y0011103D01*
X0077779Y0011164D01*
X0077628Y0011229D01*
X0077478Y0011298D01*
X0077331Y0011370D01*
X0077185Y0011445D01*
X0077041Y0011525D01*
X0076899Y0011607D01*
X0076759Y0011693D01*
X0076622Y0011783D01*
X0076486Y0011876D01*
X0076353Y0011972D01*
X0076222Y0012072D01*
X0076094Y0012174D01*
X0075968Y0012280D01*
X0075845Y0012389D01*
X0075725Y0012501D01*
X0075607Y0012615D01*
X0075493Y0012733D01*
X0075381Y0012853D01*
X0075272Y0012976D01*
X0075166Y0013102D01*
X0075064Y0013230D01*
X0074964Y0013361D01*
X0074868Y0013494D01*
X0074775Y0013630D01*
X0074685Y0013767D01*
X0074599Y0013907D01*
X0074517Y0014049D01*
X0074437Y0014193D01*
X0074362Y0014339D01*
X0074290Y0014486D01*
X0074221Y0014636D01*
X0074156Y0014787D01*
X0074095Y0014939D01*
X0074038Y0015093D01*
X0073985Y0015249D01*
X0073935Y0015405D01*
X0073889Y0015563D01*
X0073848Y0015722D01*
X0073810Y0015882D01*
X0073776Y0016042D01*
X0073746Y0016204D01*
X0073719Y0016366D01*
X0073697Y0016529D01*
X0073679Y0016692D01*
X0073665Y0016856D01*
X0073655Y0017020D01*
X0073649Y0017184D01*
X0073647Y0017348D01*
D17*
X0224100Y0239464D03*
X0266600Y0271236D03*
X0281600Y0271236D03*
X0281600Y0301236D03*
X0266600Y0301236D03*
X0251600Y0301236D03*
D18*
X0276964Y0034100D03*
D19*
X0269100Y0049100D02*
X0269100Y0069100D01*
X0286600Y0069100D01*
X0286600Y0049100D01*
X0269100Y0049100D01*
X0286600Y0049100D02*
X0294100Y0049100D01*
X0294100Y0069100D01*
X0286600Y0069100D01*
X0164100Y0029100D02*
X0164100Y0011600D01*
X0134100Y0011600D01*
X0134100Y0029100D01*
X0164100Y0029100D01*
X0164100Y0011600D02*
X0164100Y0004100D01*
X0134100Y0004100D01*
X0134100Y0011600D01*
X0246600Y0336600D02*
X0246600Y0344100D01*
X0286600Y0344100D01*
X0286600Y0336600D01*
X0246600Y0336600D01*
X0246600Y0344100D02*
X0246600Y0361600D01*
X0286600Y0361600D01*
X0286600Y0344100D01*
D20*
X0185655Y0334100D02*
X0185655Y0324415D01*
X0146285Y0324415D01*
X0146285Y0334100D01*
X0185655Y0334100D01*
X0185655Y0363785D01*
X0146285Y0363785D01*
X0146285Y0334100D01*
X0106915Y0334100D01*
X0106915Y0324415D01*
X0146285Y0324415D01*
X0146285Y0334100D01*
X0146285Y0363785D01*
X0106915Y0363785D01*
X0106915Y0334100D01*
X0053785Y0334100D02*
X0053785Y0324415D01*
X0014415Y0324415D01*
X0014415Y0334100D01*
X0053785Y0334100D01*
X0053785Y0363785D01*
X0014415Y0363785D01*
X0014415Y0334100D01*
X0011915Y0307171D02*
X0043411Y0307171D01*
X0043411Y0294966D01*
X0034750Y0294966D01*
X0034750Y0253234D01*
X0043411Y0253234D01*
X0043411Y0241029D01*
X0011915Y0241029D01*
X0011915Y0253234D01*
X0028450Y0253234D01*
X0028450Y0294966D01*
X0011915Y0294966D01*
X0011915Y0307171D01*
X0135600Y0186600D02*
X0135602Y0186663D01*
X0135608Y0186725D01*
X0135618Y0186787D01*
X0135631Y0186849D01*
X0135649Y0186909D01*
X0135670Y0186968D01*
X0135695Y0187026D01*
X0135724Y0187082D01*
X0135756Y0187136D01*
X0135791Y0187188D01*
X0135829Y0187237D01*
X0135871Y0187285D01*
X0135915Y0187329D01*
X0135963Y0187371D01*
X0136012Y0187409D01*
X0136064Y0187444D01*
X0136118Y0187476D01*
X0136174Y0187505D01*
X0136232Y0187530D01*
X0136291Y0187551D01*
X0136351Y0187569D01*
X0136413Y0187582D01*
X0136475Y0187592D01*
X0136537Y0187598D01*
X0136600Y0187600D01*
X0136663Y0187598D01*
X0136725Y0187592D01*
X0136787Y0187582D01*
X0136849Y0187569D01*
X0136909Y0187551D01*
X0136968Y0187530D01*
X0137026Y0187505D01*
X0137082Y0187476D01*
X0137136Y0187444D01*
X0137188Y0187409D01*
X0137237Y0187371D01*
X0137285Y0187329D01*
X0137329Y0187285D01*
X0137371Y0187237D01*
X0137409Y0187188D01*
X0137444Y0187136D01*
X0137476Y0187082D01*
X0137505Y0187026D01*
X0137530Y0186968D01*
X0137551Y0186909D01*
X0137569Y0186849D01*
X0137582Y0186787D01*
X0137592Y0186725D01*
X0137598Y0186663D01*
X0137600Y0186600D01*
X0137598Y0186537D01*
X0137592Y0186475D01*
X0137582Y0186413D01*
X0137569Y0186351D01*
X0137551Y0186291D01*
X0137530Y0186232D01*
X0137505Y0186174D01*
X0137476Y0186118D01*
X0137444Y0186064D01*
X0137409Y0186012D01*
X0137371Y0185963D01*
X0137329Y0185915D01*
X0137285Y0185871D01*
X0137237Y0185829D01*
X0137188Y0185791D01*
X0137136Y0185756D01*
X0137082Y0185724D01*
X0137026Y0185695D01*
X0136968Y0185670D01*
X0136909Y0185649D01*
X0136849Y0185631D01*
X0136787Y0185618D01*
X0136725Y0185608D01*
X0136663Y0185602D01*
X0136600Y0185600D01*
X0136537Y0185602D01*
X0136475Y0185608D01*
X0136413Y0185618D01*
X0136351Y0185631D01*
X0136291Y0185649D01*
X0136232Y0185670D01*
X0136174Y0185695D01*
X0136118Y0185724D01*
X0136064Y0185756D01*
X0136012Y0185791D01*
X0135963Y0185829D01*
X0135915Y0185871D01*
X0135871Y0185915D01*
X0135829Y0185963D01*
X0135791Y0186012D01*
X0135756Y0186064D01*
X0135724Y0186118D01*
X0135695Y0186174D01*
X0135670Y0186232D01*
X0135649Y0186291D01*
X0135631Y0186351D01*
X0135618Y0186413D01*
X0135608Y0186475D01*
X0135602Y0186537D01*
X0135600Y0186600D01*
X0139100Y0191600D02*
X0141600Y0189100D01*
X0164100Y0189100D01*
X0164100Y0214100D01*
X0139100Y0214100D01*
X0139100Y0191600D01*
X0166167Y0133883D02*
X0166167Y0081915D01*
X0214986Y0081915D01*
X0214986Y0133883D01*
X0166167Y0133883D01*
X0178765Y0107899D02*
X0178769Y0108189D01*
X0178779Y0108479D01*
X0178797Y0108768D01*
X0178822Y0109057D01*
X0178854Y0109345D01*
X0178893Y0109632D01*
X0178939Y0109918D01*
X0178992Y0110203D01*
X0179052Y0110487D01*
X0179119Y0110769D01*
X0179193Y0111049D01*
X0179274Y0111328D01*
X0179361Y0111604D01*
X0179455Y0111878D01*
X0179556Y0112150D01*
X0179664Y0112419D01*
X0179778Y0112685D01*
X0179899Y0112949D01*
X0180026Y0113209D01*
X0180160Y0113467D01*
X0180299Y0113721D01*
X0180445Y0113971D01*
X0180597Y0114218D01*
X0180756Y0114461D01*
X0180920Y0114700D01*
X0181089Y0114935D01*
X0181265Y0115166D01*
X0181446Y0115392D01*
X0181633Y0115614D01*
X0181825Y0115831D01*
X0182022Y0116043D01*
X0182224Y0116251D01*
X0182432Y0116453D01*
X0182644Y0116650D01*
X0182861Y0116842D01*
X0183083Y0117029D01*
X0183309Y0117210D01*
X0183540Y0117386D01*
X0183775Y0117555D01*
X0184014Y0117719D01*
X0184257Y0117878D01*
X0184504Y0118030D01*
X0184754Y0118176D01*
X0185008Y0118315D01*
X0185266Y0118449D01*
X0185526Y0118576D01*
X0185790Y0118697D01*
X0186056Y0118811D01*
X0186325Y0118919D01*
X0186597Y0119020D01*
X0186871Y0119114D01*
X0187147Y0119201D01*
X0187426Y0119282D01*
X0187706Y0119356D01*
X0187988Y0119423D01*
X0188272Y0119483D01*
X0188557Y0119536D01*
X0188843Y0119582D01*
X0189130Y0119621D01*
X0189418Y0119653D01*
X0189707Y0119678D01*
X0189996Y0119696D01*
X0190286Y0119706D01*
X0190576Y0119710D01*
X0190866Y0119706D01*
X0191156Y0119696D01*
X0191445Y0119678D01*
X0191734Y0119653D01*
X0192022Y0119621D01*
X0192309Y0119582D01*
X0192595Y0119536D01*
X0192880Y0119483D01*
X0193164Y0119423D01*
X0193446Y0119356D01*
X0193726Y0119282D01*
X0194005Y0119201D01*
X0194281Y0119114D01*
X0194555Y0119020D01*
X0194827Y0118919D01*
X0195096Y0118811D01*
X0195362Y0118697D01*
X0195626Y0118576D01*
X0195886Y0118449D01*
X0196144Y0118315D01*
X0196398Y0118176D01*
X0196648Y0118030D01*
X0196895Y0117878D01*
X0197138Y0117719D01*
X0197377Y0117555D01*
X0197612Y0117386D01*
X0197843Y0117210D01*
X0198069Y0117029D01*
X0198291Y0116842D01*
X0198508Y0116650D01*
X0198720Y0116453D01*
X0198928Y0116251D01*
X0199130Y0116043D01*
X0199327Y0115831D01*
X0199519Y0115614D01*
X0199706Y0115392D01*
X0199887Y0115166D01*
X0200063Y0114935D01*
X0200232Y0114700D01*
X0200396Y0114461D01*
X0200555Y0114218D01*
X0200707Y0113971D01*
X0200853Y0113721D01*
X0200992Y0113467D01*
X0201126Y0113209D01*
X0201253Y0112949D01*
X0201374Y0112685D01*
X0201488Y0112419D01*
X0201596Y0112150D01*
X0201697Y0111878D01*
X0201791Y0111604D01*
X0201878Y0111328D01*
X0201959Y0111049D01*
X0202033Y0110769D01*
X0202100Y0110487D01*
X0202160Y0110203D01*
X0202213Y0109918D01*
X0202259Y0109632D01*
X0202298Y0109345D01*
X0202330Y0109057D01*
X0202355Y0108768D01*
X0202373Y0108479D01*
X0202383Y0108189D01*
X0202387Y0107899D01*
X0202383Y0107609D01*
X0202373Y0107319D01*
X0202355Y0107030D01*
X0202330Y0106741D01*
X0202298Y0106453D01*
X0202259Y0106166D01*
X0202213Y0105880D01*
X0202160Y0105595D01*
X0202100Y0105311D01*
X0202033Y0105029D01*
X0201959Y0104749D01*
X0201878Y0104470D01*
X0201791Y0104194D01*
X0201697Y0103920D01*
X0201596Y0103648D01*
X0201488Y0103379D01*
X0201374Y0103113D01*
X0201253Y0102849D01*
X0201126Y0102589D01*
X0200992Y0102331D01*
X0200853Y0102077D01*
X0200707Y0101827D01*
X0200555Y0101580D01*
X0200396Y0101337D01*
X0200232Y0101098D01*
X0200063Y0100863D01*
X0199887Y0100632D01*
X0199706Y0100406D01*
X0199519Y0100184D01*
X0199327Y0099967D01*
X0199130Y0099755D01*
X0198928Y0099547D01*
X0198720Y0099345D01*
X0198508Y0099148D01*
X0198291Y0098956D01*
X0198069Y0098769D01*
X0197843Y0098588D01*
X0197612Y0098412D01*
X0197377Y0098243D01*
X0197138Y0098079D01*
X0196895Y0097920D01*
X0196648Y0097768D01*
X0196398Y0097622D01*
X0196144Y0097483D01*
X0195886Y0097349D01*
X0195626Y0097222D01*
X0195362Y0097101D01*
X0195096Y0096987D01*
X0194827Y0096879D01*
X0194555Y0096778D01*
X0194281Y0096684D01*
X0194005Y0096597D01*
X0193726Y0096516D01*
X0193446Y0096442D01*
X0193164Y0096375D01*
X0192880Y0096315D01*
X0192595Y0096262D01*
X0192309Y0096216D01*
X0192022Y0096177D01*
X0191734Y0096145D01*
X0191445Y0096120D01*
X0191156Y0096102D01*
X0190866Y0096092D01*
X0190576Y0096088D01*
X0190286Y0096092D01*
X0189996Y0096102D01*
X0189707Y0096120D01*
X0189418Y0096145D01*
X0189130Y0096177D01*
X0188843Y0096216D01*
X0188557Y0096262D01*
X0188272Y0096315D01*
X0187988Y0096375D01*
X0187706Y0096442D01*
X0187426Y0096516D01*
X0187147Y0096597D01*
X0186871Y0096684D01*
X0186597Y0096778D01*
X0186325Y0096879D01*
X0186056Y0096987D01*
X0185790Y0097101D01*
X0185526Y0097222D01*
X0185266Y0097349D01*
X0185008Y0097483D01*
X0184754Y0097622D01*
X0184504Y0097768D01*
X0184257Y0097920D01*
X0184014Y0098079D01*
X0183775Y0098243D01*
X0183540Y0098412D01*
X0183309Y0098588D01*
X0183083Y0098769D01*
X0182861Y0098956D01*
X0182644Y0099148D01*
X0182432Y0099345D01*
X0182224Y0099547D01*
X0182022Y0099755D01*
X0181825Y0099967D01*
X0181633Y0100184D01*
X0181446Y0100406D01*
X0181265Y0100632D01*
X0181089Y0100863D01*
X0180920Y0101098D01*
X0180756Y0101337D01*
X0180597Y0101580D01*
X0180445Y0101827D01*
X0180299Y0102077D01*
X0180160Y0102331D01*
X0180026Y0102589D01*
X0179899Y0102849D01*
X0179778Y0103113D01*
X0179664Y0103379D01*
X0179556Y0103648D01*
X0179455Y0103920D01*
X0179361Y0104194D01*
X0179274Y0104470D01*
X0179193Y0104749D01*
X0179119Y0105029D01*
X0179052Y0105311D01*
X0178992Y0105595D01*
X0178939Y0105880D01*
X0178893Y0106166D01*
X0178854Y0106453D01*
X0178822Y0106741D01*
X0178797Y0107030D01*
X0178779Y0107319D01*
X0178769Y0107609D01*
X0178765Y0107899D01*
X0180340Y0101994D02*
X0200813Y0101994D01*
D21*
X0014500Y0291800D03*
D22*
X0027600Y0274100D03*
D23*
X0025100Y0256850D03*
X0025100Y0291350D03*
D24*
X0025100Y0279100D03*
X0025100Y0269100D03*
D25*
X0155439Y0177840D02*
X0155439Y0170360D01*
X0172761Y0170360D02*
X0172761Y0177840D01*
M02*
