G75*
%MOIN*%
%OFA0B0*%
%FSLAX25Y25*%
%IPPOS*%
%LPD*%
%AMOC8*
5,1,8,0,0,1.08239X$1,22.5*
%
%ADD10C,0.00000*%
%ADD11C,0.00500*%
%ADD12C,0.00600*%
%ADD13C,0.00200*%
%ADD14R,0.02000X0.08500*%
D10*
X0001600Y0001600D02*
X0001600Y0367742D01*
X0296876Y0367742D01*
X0296876Y0001600D01*
X0001600Y0001600D01*
X0035468Y0068529D02*
X0035470Y0068648D01*
X0035476Y0068766D01*
X0035486Y0068884D01*
X0035500Y0069002D01*
X0035517Y0069119D01*
X0035539Y0069236D01*
X0035565Y0069352D01*
X0035594Y0069467D01*
X0035627Y0069581D01*
X0035664Y0069693D01*
X0035705Y0069805D01*
X0035750Y0069915D01*
X0035798Y0070023D01*
X0035850Y0070130D01*
X0035905Y0070235D01*
X0035964Y0070338D01*
X0036026Y0070439D01*
X0036091Y0070538D01*
X0036160Y0070635D01*
X0036232Y0070729D01*
X0036307Y0070821D01*
X0036385Y0070910D01*
X0036466Y0070997D01*
X0036550Y0071081D01*
X0036637Y0071162D01*
X0036726Y0071240D01*
X0036818Y0071315D01*
X0036912Y0071387D01*
X0037009Y0071456D01*
X0037108Y0071521D01*
X0037209Y0071583D01*
X0037312Y0071642D01*
X0037417Y0071697D01*
X0037524Y0071749D01*
X0037632Y0071797D01*
X0037742Y0071842D01*
X0037854Y0071883D01*
X0037966Y0071920D01*
X0038080Y0071953D01*
X0038195Y0071982D01*
X0038311Y0072008D01*
X0038428Y0072030D01*
X0038545Y0072047D01*
X0038663Y0072061D01*
X0038781Y0072071D01*
X0038899Y0072077D01*
X0039018Y0072079D01*
X0039137Y0072077D01*
X0039255Y0072071D01*
X0039373Y0072061D01*
X0039491Y0072047D01*
X0039608Y0072030D01*
X0039725Y0072008D01*
X0039841Y0071982D01*
X0039956Y0071953D01*
X0040070Y0071920D01*
X0040182Y0071883D01*
X0040294Y0071842D01*
X0040404Y0071797D01*
X0040512Y0071749D01*
X0040619Y0071697D01*
X0040724Y0071642D01*
X0040827Y0071583D01*
X0040928Y0071521D01*
X0041027Y0071456D01*
X0041124Y0071387D01*
X0041218Y0071315D01*
X0041310Y0071240D01*
X0041399Y0071162D01*
X0041486Y0071081D01*
X0041570Y0070997D01*
X0041651Y0070910D01*
X0041729Y0070821D01*
X0041804Y0070729D01*
X0041876Y0070635D01*
X0041945Y0070538D01*
X0042010Y0070439D01*
X0042072Y0070338D01*
X0042131Y0070235D01*
X0042186Y0070130D01*
X0042238Y0070023D01*
X0042286Y0069915D01*
X0042331Y0069805D01*
X0042372Y0069693D01*
X0042409Y0069581D01*
X0042442Y0069467D01*
X0042471Y0069352D01*
X0042497Y0069236D01*
X0042519Y0069119D01*
X0042536Y0069002D01*
X0042550Y0068884D01*
X0042560Y0068766D01*
X0042566Y0068648D01*
X0042568Y0068529D01*
X0042566Y0068410D01*
X0042560Y0068292D01*
X0042550Y0068174D01*
X0042536Y0068056D01*
X0042519Y0067939D01*
X0042497Y0067822D01*
X0042471Y0067706D01*
X0042442Y0067591D01*
X0042409Y0067477D01*
X0042372Y0067365D01*
X0042331Y0067253D01*
X0042286Y0067143D01*
X0042238Y0067035D01*
X0042186Y0066928D01*
X0042131Y0066823D01*
X0042072Y0066720D01*
X0042010Y0066619D01*
X0041945Y0066520D01*
X0041876Y0066423D01*
X0041804Y0066329D01*
X0041729Y0066237D01*
X0041651Y0066148D01*
X0041570Y0066061D01*
X0041486Y0065977D01*
X0041399Y0065896D01*
X0041310Y0065818D01*
X0041218Y0065743D01*
X0041124Y0065671D01*
X0041027Y0065602D01*
X0040928Y0065537D01*
X0040827Y0065475D01*
X0040724Y0065416D01*
X0040619Y0065361D01*
X0040512Y0065309D01*
X0040404Y0065261D01*
X0040294Y0065216D01*
X0040182Y0065175D01*
X0040070Y0065138D01*
X0039956Y0065105D01*
X0039841Y0065076D01*
X0039725Y0065050D01*
X0039608Y0065028D01*
X0039491Y0065011D01*
X0039373Y0064997D01*
X0039255Y0064987D01*
X0039137Y0064981D01*
X0039018Y0064979D01*
X0038899Y0064981D01*
X0038781Y0064987D01*
X0038663Y0064997D01*
X0038545Y0065011D01*
X0038428Y0065028D01*
X0038311Y0065050D01*
X0038195Y0065076D01*
X0038080Y0065105D01*
X0037966Y0065138D01*
X0037854Y0065175D01*
X0037742Y0065216D01*
X0037632Y0065261D01*
X0037524Y0065309D01*
X0037417Y0065361D01*
X0037312Y0065416D01*
X0037209Y0065475D01*
X0037108Y0065537D01*
X0037009Y0065602D01*
X0036912Y0065671D01*
X0036818Y0065743D01*
X0036726Y0065818D01*
X0036637Y0065896D01*
X0036550Y0065977D01*
X0036466Y0066061D01*
X0036385Y0066148D01*
X0036307Y0066237D01*
X0036232Y0066329D01*
X0036160Y0066423D01*
X0036091Y0066520D01*
X0036026Y0066619D01*
X0035964Y0066720D01*
X0035905Y0066823D01*
X0035850Y0066928D01*
X0035798Y0067035D01*
X0035750Y0067143D01*
X0035705Y0067253D01*
X0035664Y0067365D01*
X0035627Y0067477D01*
X0035594Y0067591D01*
X0035565Y0067706D01*
X0035539Y0067822D01*
X0035517Y0067939D01*
X0035500Y0068056D01*
X0035486Y0068174D01*
X0035476Y0068292D01*
X0035470Y0068410D01*
X0035468Y0068529D01*
X0070868Y0068529D02*
X0070870Y0068648D01*
X0070876Y0068766D01*
X0070886Y0068884D01*
X0070900Y0069002D01*
X0070917Y0069119D01*
X0070939Y0069236D01*
X0070965Y0069352D01*
X0070994Y0069467D01*
X0071027Y0069581D01*
X0071064Y0069693D01*
X0071105Y0069805D01*
X0071150Y0069915D01*
X0071198Y0070023D01*
X0071250Y0070130D01*
X0071305Y0070235D01*
X0071364Y0070338D01*
X0071426Y0070439D01*
X0071491Y0070538D01*
X0071560Y0070635D01*
X0071632Y0070729D01*
X0071707Y0070821D01*
X0071785Y0070910D01*
X0071866Y0070997D01*
X0071950Y0071081D01*
X0072037Y0071162D01*
X0072126Y0071240D01*
X0072218Y0071315D01*
X0072312Y0071387D01*
X0072409Y0071456D01*
X0072508Y0071521D01*
X0072609Y0071583D01*
X0072712Y0071642D01*
X0072817Y0071697D01*
X0072924Y0071749D01*
X0073032Y0071797D01*
X0073142Y0071842D01*
X0073254Y0071883D01*
X0073366Y0071920D01*
X0073480Y0071953D01*
X0073595Y0071982D01*
X0073711Y0072008D01*
X0073828Y0072030D01*
X0073945Y0072047D01*
X0074063Y0072061D01*
X0074181Y0072071D01*
X0074299Y0072077D01*
X0074418Y0072079D01*
X0074537Y0072077D01*
X0074655Y0072071D01*
X0074773Y0072061D01*
X0074891Y0072047D01*
X0075008Y0072030D01*
X0075125Y0072008D01*
X0075241Y0071982D01*
X0075356Y0071953D01*
X0075470Y0071920D01*
X0075582Y0071883D01*
X0075694Y0071842D01*
X0075804Y0071797D01*
X0075912Y0071749D01*
X0076019Y0071697D01*
X0076124Y0071642D01*
X0076227Y0071583D01*
X0076328Y0071521D01*
X0076427Y0071456D01*
X0076524Y0071387D01*
X0076618Y0071315D01*
X0076710Y0071240D01*
X0076799Y0071162D01*
X0076886Y0071081D01*
X0076970Y0070997D01*
X0077051Y0070910D01*
X0077129Y0070821D01*
X0077204Y0070729D01*
X0077276Y0070635D01*
X0077345Y0070538D01*
X0077410Y0070439D01*
X0077472Y0070338D01*
X0077531Y0070235D01*
X0077586Y0070130D01*
X0077638Y0070023D01*
X0077686Y0069915D01*
X0077731Y0069805D01*
X0077772Y0069693D01*
X0077809Y0069581D01*
X0077842Y0069467D01*
X0077871Y0069352D01*
X0077897Y0069236D01*
X0077919Y0069119D01*
X0077936Y0069002D01*
X0077950Y0068884D01*
X0077960Y0068766D01*
X0077966Y0068648D01*
X0077968Y0068529D01*
X0077966Y0068410D01*
X0077960Y0068292D01*
X0077950Y0068174D01*
X0077936Y0068056D01*
X0077919Y0067939D01*
X0077897Y0067822D01*
X0077871Y0067706D01*
X0077842Y0067591D01*
X0077809Y0067477D01*
X0077772Y0067365D01*
X0077731Y0067253D01*
X0077686Y0067143D01*
X0077638Y0067035D01*
X0077586Y0066928D01*
X0077531Y0066823D01*
X0077472Y0066720D01*
X0077410Y0066619D01*
X0077345Y0066520D01*
X0077276Y0066423D01*
X0077204Y0066329D01*
X0077129Y0066237D01*
X0077051Y0066148D01*
X0076970Y0066061D01*
X0076886Y0065977D01*
X0076799Y0065896D01*
X0076710Y0065818D01*
X0076618Y0065743D01*
X0076524Y0065671D01*
X0076427Y0065602D01*
X0076328Y0065537D01*
X0076227Y0065475D01*
X0076124Y0065416D01*
X0076019Y0065361D01*
X0075912Y0065309D01*
X0075804Y0065261D01*
X0075694Y0065216D01*
X0075582Y0065175D01*
X0075470Y0065138D01*
X0075356Y0065105D01*
X0075241Y0065076D01*
X0075125Y0065050D01*
X0075008Y0065028D01*
X0074891Y0065011D01*
X0074773Y0064997D01*
X0074655Y0064987D01*
X0074537Y0064981D01*
X0074418Y0064979D01*
X0074299Y0064981D01*
X0074181Y0064987D01*
X0074063Y0064997D01*
X0073945Y0065011D01*
X0073828Y0065028D01*
X0073711Y0065050D01*
X0073595Y0065076D01*
X0073480Y0065105D01*
X0073366Y0065138D01*
X0073254Y0065175D01*
X0073142Y0065216D01*
X0073032Y0065261D01*
X0072924Y0065309D01*
X0072817Y0065361D01*
X0072712Y0065416D01*
X0072609Y0065475D01*
X0072508Y0065537D01*
X0072409Y0065602D01*
X0072312Y0065671D01*
X0072218Y0065743D01*
X0072126Y0065818D01*
X0072037Y0065896D01*
X0071950Y0065977D01*
X0071866Y0066061D01*
X0071785Y0066148D01*
X0071707Y0066237D01*
X0071632Y0066329D01*
X0071560Y0066423D01*
X0071491Y0066520D01*
X0071426Y0066619D01*
X0071364Y0066720D01*
X0071305Y0066823D01*
X0071250Y0066928D01*
X0071198Y0067035D01*
X0071150Y0067143D01*
X0071105Y0067253D01*
X0071064Y0067365D01*
X0071027Y0067477D01*
X0070994Y0067591D01*
X0070965Y0067706D01*
X0070939Y0067822D01*
X0070917Y0067939D01*
X0070900Y0068056D01*
X0070886Y0068174D01*
X0070876Y0068292D01*
X0070870Y0068410D01*
X0070868Y0068529D01*
X0074041Y0017348D02*
X0074043Y0017506D01*
X0074049Y0017664D01*
X0074059Y0017822D01*
X0074073Y0017980D01*
X0074091Y0018137D01*
X0074112Y0018294D01*
X0074138Y0018450D01*
X0074168Y0018606D01*
X0074201Y0018761D01*
X0074239Y0018914D01*
X0074280Y0019067D01*
X0074325Y0019219D01*
X0074374Y0019370D01*
X0074427Y0019519D01*
X0074483Y0019667D01*
X0074543Y0019813D01*
X0074607Y0019958D01*
X0074675Y0020101D01*
X0074746Y0020243D01*
X0074820Y0020383D01*
X0074898Y0020520D01*
X0074980Y0020656D01*
X0075064Y0020790D01*
X0075153Y0020921D01*
X0075244Y0021050D01*
X0075339Y0021177D01*
X0075436Y0021302D01*
X0075537Y0021424D01*
X0075641Y0021543D01*
X0075748Y0021660D01*
X0075858Y0021774D01*
X0075971Y0021885D01*
X0076086Y0021994D01*
X0076204Y0022099D01*
X0076325Y0022201D01*
X0076448Y0022301D01*
X0076574Y0022397D01*
X0076702Y0022490D01*
X0076832Y0022580D01*
X0076965Y0022666D01*
X0077100Y0022750D01*
X0077236Y0022829D01*
X0077375Y0022906D01*
X0077516Y0022978D01*
X0077658Y0023048D01*
X0077802Y0023113D01*
X0077948Y0023175D01*
X0078095Y0023233D01*
X0078244Y0023288D01*
X0078394Y0023339D01*
X0078545Y0023386D01*
X0078697Y0023429D01*
X0078850Y0023468D01*
X0079005Y0023504D01*
X0079160Y0023535D01*
X0079316Y0023563D01*
X0079472Y0023587D01*
X0079629Y0023607D01*
X0079787Y0023623D01*
X0079944Y0023635D01*
X0080103Y0023643D01*
X0080261Y0023647D01*
X0080419Y0023647D01*
X0080577Y0023643D01*
X0080736Y0023635D01*
X0080893Y0023623D01*
X0081051Y0023607D01*
X0081208Y0023587D01*
X0081364Y0023563D01*
X0081520Y0023535D01*
X0081675Y0023504D01*
X0081830Y0023468D01*
X0081983Y0023429D01*
X0082135Y0023386D01*
X0082286Y0023339D01*
X0082436Y0023288D01*
X0082585Y0023233D01*
X0082732Y0023175D01*
X0082878Y0023113D01*
X0083022Y0023048D01*
X0083164Y0022978D01*
X0083305Y0022906D01*
X0083444Y0022829D01*
X0083580Y0022750D01*
X0083715Y0022666D01*
X0083848Y0022580D01*
X0083978Y0022490D01*
X0084106Y0022397D01*
X0084232Y0022301D01*
X0084355Y0022201D01*
X0084476Y0022099D01*
X0084594Y0021994D01*
X0084709Y0021885D01*
X0084822Y0021774D01*
X0084932Y0021660D01*
X0085039Y0021543D01*
X0085143Y0021424D01*
X0085244Y0021302D01*
X0085341Y0021177D01*
X0085436Y0021050D01*
X0085527Y0020921D01*
X0085616Y0020790D01*
X0085700Y0020656D01*
X0085782Y0020520D01*
X0085860Y0020383D01*
X0085934Y0020243D01*
X0086005Y0020101D01*
X0086073Y0019958D01*
X0086137Y0019813D01*
X0086197Y0019667D01*
X0086253Y0019519D01*
X0086306Y0019370D01*
X0086355Y0019219D01*
X0086400Y0019067D01*
X0086441Y0018914D01*
X0086479Y0018761D01*
X0086512Y0018606D01*
X0086542Y0018450D01*
X0086568Y0018294D01*
X0086589Y0018137D01*
X0086607Y0017980D01*
X0086621Y0017822D01*
X0086631Y0017664D01*
X0086637Y0017506D01*
X0086639Y0017348D01*
X0086637Y0017190D01*
X0086631Y0017032D01*
X0086621Y0016874D01*
X0086607Y0016716D01*
X0086589Y0016559D01*
X0086568Y0016402D01*
X0086542Y0016246D01*
X0086512Y0016090D01*
X0086479Y0015935D01*
X0086441Y0015782D01*
X0086400Y0015629D01*
X0086355Y0015477D01*
X0086306Y0015326D01*
X0086253Y0015177D01*
X0086197Y0015029D01*
X0086137Y0014883D01*
X0086073Y0014738D01*
X0086005Y0014595D01*
X0085934Y0014453D01*
X0085860Y0014313D01*
X0085782Y0014176D01*
X0085700Y0014040D01*
X0085616Y0013906D01*
X0085527Y0013775D01*
X0085436Y0013646D01*
X0085341Y0013519D01*
X0085244Y0013394D01*
X0085143Y0013272D01*
X0085039Y0013153D01*
X0084932Y0013036D01*
X0084822Y0012922D01*
X0084709Y0012811D01*
X0084594Y0012702D01*
X0084476Y0012597D01*
X0084355Y0012495D01*
X0084232Y0012395D01*
X0084106Y0012299D01*
X0083978Y0012206D01*
X0083848Y0012116D01*
X0083715Y0012030D01*
X0083580Y0011946D01*
X0083444Y0011867D01*
X0083305Y0011790D01*
X0083164Y0011718D01*
X0083022Y0011648D01*
X0082878Y0011583D01*
X0082732Y0011521D01*
X0082585Y0011463D01*
X0082436Y0011408D01*
X0082286Y0011357D01*
X0082135Y0011310D01*
X0081983Y0011267D01*
X0081830Y0011228D01*
X0081675Y0011192D01*
X0081520Y0011161D01*
X0081364Y0011133D01*
X0081208Y0011109D01*
X0081051Y0011089D01*
X0080893Y0011073D01*
X0080736Y0011061D01*
X0080577Y0011053D01*
X0080419Y0011049D01*
X0080261Y0011049D01*
X0080103Y0011053D01*
X0079944Y0011061D01*
X0079787Y0011073D01*
X0079629Y0011089D01*
X0079472Y0011109D01*
X0079316Y0011133D01*
X0079160Y0011161D01*
X0079005Y0011192D01*
X0078850Y0011228D01*
X0078697Y0011267D01*
X0078545Y0011310D01*
X0078394Y0011357D01*
X0078244Y0011408D01*
X0078095Y0011463D01*
X0077948Y0011521D01*
X0077802Y0011583D01*
X0077658Y0011648D01*
X0077516Y0011718D01*
X0077375Y0011790D01*
X0077236Y0011867D01*
X0077100Y0011946D01*
X0076965Y0012030D01*
X0076832Y0012116D01*
X0076702Y0012206D01*
X0076574Y0012299D01*
X0076448Y0012395D01*
X0076325Y0012495D01*
X0076204Y0012597D01*
X0076086Y0012702D01*
X0075971Y0012811D01*
X0075858Y0012922D01*
X0075748Y0013036D01*
X0075641Y0013153D01*
X0075537Y0013272D01*
X0075436Y0013394D01*
X0075339Y0013519D01*
X0075244Y0013646D01*
X0075153Y0013775D01*
X0075064Y0013906D01*
X0074980Y0014040D01*
X0074898Y0014176D01*
X0074820Y0014313D01*
X0074746Y0014453D01*
X0074675Y0014595D01*
X0074607Y0014738D01*
X0074543Y0014883D01*
X0074483Y0015029D01*
X0074427Y0015177D01*
X0074374Y0015326D01*
X0074325Y0015477D01*
X0074280Y0015629D01*
X0074239Y0015782D01*
X0074201Y0015935D01*
X0074168Y0016090D01*
X0074138Y0016246D01*
X0074112Y0016402D01*
X0074091Y0016559D01*
X0074073Y0016716D01*
X0074059Y0016874D01*
X0074049Y0017032D01*
X0074043Y0017190D01*
X0074041Y0017348D01*
X0070868Y0147269D02*
X0070870Y0147388D01*
X0070876Y0147506D01*
X0070886Y0147624D01*
X0070900Y0147742D01*
X0070917Y0147859D01*
X0070939Y0147976D01*
X0070965Y0148092D01*
X0070994Y0148207D01*
X0071027Y0148321D01*
X0071064Y0148433D01*
X0071105Y0148545D01*
X0071150Y0148655D01*
X0071198Y0148763D01*
X0071250Y0148870D01*
X0071305Y0148975D01*
X0071364Y0149078D01*
X0071426Y0149179D01*
X0071491Y0149278D01*
X0071560Y0149375D01*
X0071632Y0149469D01*
X0071707Y0149561D01*
X0071785Y0149650D01*
X0071866Y0149737D01*
X0071950Y0149821D01*
X0072037Y0149902D01*
X0072126Y0149980D01*
X0072218Y0150055D01*
X0072312Y0150127D01*
X0072409Y0150196D01*
X0072508Y0150261D01*
X0072609Y0150323D01*
X0072712Y0150382D01*
X0072817Y0150437D01*
X0072924Y0150489D01*
X0073032Y0150537D01*
X0073142Y0150582D01*
X0073254Y0150623D01*
X0073366Y0150660D01*
X0073480Y0150693D01*
X0073595Y0150722D01*
X0073711Y0150748D01*
X0073828Y0150770D01*
X0073945Y0150787D01*
X0074063Y0150801D01*
X0074181Y0150811D01*
X0074299Y0150817D01*
X0074418Y0150819D01*
X0074537Y0150817D01*
X0074655Y0150811D01*
X0074773Y0150801D01*
X0074891Y0150787D01*
X0075008Y0150770D01*
X0075125Y0150748D01*
X0075241Y0150722D01*
X0075356Y0150693D01*
X0075470Y0150660D01*
X0075582Y0150623D01*
X0075694Y0150582D01*
X0075804Y0150537D01*
X0075912Y0150489D01*
X0076019Y0150437D01*
X0076124Y0150382D01*
X0076227Y0150323D01*
X0076328Y0150261D01*
X0076427Y0150196D01*
X0076524Y0150127D01*
X0076618Y0150055D01*
X0076710Y0149980D01*
X0076799Y0149902D01*
X0076886Y0149821D01*
X0076970Y0149737D01*
X0077051Y0149650D01*
X0077129Y0149561D01*
X0077204Y0149469D01*
X0077276Y0149375D01*
X0077345Y0149278D01*
X0077410Y0149179D01*
X0077472Y0149078D01*
X0077531Y0148975D01*
X0077586Y0148870D01*
X0077638Y0148763D01*
X0077686Y0148655D01*
X0077731Y0148545D01*
X0077772Y0148433D01*
X0077809Y0148321D01*
X0077842Y0148207D01*
X0077871Y0148092D01*
X0077897Y0147976D01*
X0077919Y0147859D01*
X0077936Y0147742D01*
X0077950Y0147624D01*
X0077960Y0147506D01*
X0077966Y0147388D01*
X0077968Y0147269D01*
X0077966Y0147150D01*
X0077960Y0147032D01*
X0077950Y0146914D01*
X0077936Y0146796D01*
X0077919Y0146679D01*
X0077897Y0146562D01*
X0077871Y0146446D01*
X0077842Y0146331D01*
X0077809Y0146217D01*
X0077772Y0146105D01*
X0077731Y0145993D01*
X0077686Y0145883D01*
X0077638Y0145775D01*
X0077586Y0145668D01*
X0077531Y0145563D01*
X0077472Y0145460D01*
X0077410Y0145359D01*
X0077345Y0145260D01*
X0077276Y0145163D01*
X0077204Y0145069D01*
X0077129Y0144977D01*
X0077051Y0144888D01*
X0076970Y0144801D01*
X0076886Y0144717D01*
X0076799Y0144636D01*
X0076710Y0144558D01*
X0076618Y0144483D01*
X0076524Y0144411D01*
X0076427Y0144342D01*
X0076328Y0144277D01*
X0076227Y0144215D01*
X0076124Y0144156D01*
X0076019Y0144101D01*
X0075912Y0144049D01*
X0075804Y0144001D01*
X0075694Y0143956D01*
X0075582Y0143915D01*
X0075470Y0143878D01*
X0075356Y0143845D01*
X0075241Y0143816D01*
X0075125Y0143790D01*
X0075008Y0143768D01*
X0074891Y0143751D01*
X0074773Y0143737D01*
X0074655Y0143727D01*
X0074537Y0143721D01*
X0074418Y0143719D01*
X0074299Y0143721D01*
X0074181Y0143727D01*
X0074063Y0143737D01*
X0073945Y0143751D01*
X0073828Y0143768D01*
X0073711Y0143790D01*
X0073595Y0143816D01*
X0073480Y0143845D01*
X0073366Y0143878D01*
X0073254Y0143915D01*
X0073142Y0143956D01*
X0073032Y0144001D01*
X0072924Y0144049D01*
X0072817Y0144101D01*
X0072712Y0144156D01*
X0072609Y0144215D01*
X0072508Y0144277D01*
X0072409Y0144342D01*
X0072312Y0144411D01*
X0072218Y0144483D01*
X0072126Y0144558D01*
X0072037Y0144636D01*
X0071950Y0144717D01*
X0071866Y0144801D01*
X0071785Y0144888D01*
X0071707Y0144977D01*
X0071632Y0145069D01*
X0071560Y0145163D01*
X0071491Y0145260D01*
X0071426Y0145359D01*
X0071364Y0145460D01*
X0071305Y0145563D01*
X0071250Y0145668D01*
X0071198Y0145775D01*
X0071150Y0145883D01*
X0071105Y0145993D01*
X0071064Y0146105D01*
X0071027Y0146217D01*
X0070994Y0146331D01*
X0070965Y0146446D01*
X0070939Y0146562D01*
X0070917Y0146679D01*
X0070900Y0146796D01*
X0070886Y0146914D01*
X0070876Y0147032D01*
X0070870Y0147150D01*
X0070868Y0147269D01*
X0035468Y0147269D02*
X0035470Y0147388D01*
X0035476Y0147506D01*
X0035486Y0147624D01*
X0035500Y0147742D01*
X0035517Y0147859D01*
X0035539Y0147976D01*
X0035565Y0148092D01*
X0035594Y0148207D01*
X0035627Y0148321D01*
X0035664Y0148433D01*
X0035705Y0148545D01*
X0035750Y0148655D01*
X0035798Y0148763D01*
X0035850Y0148870D01*
X0035905Y0148975D01*
X0035964Y0149078D01*
X0036026Y0149179D01*
X0036091Y0149278D01*
X0036160Y0149375D01*
X0036232Y0149469D01*
X0036307Y0149561D01*
X0036385Y0149650D01*
X0036466Y0149737D01*
X0036550Y0149821D01*
X0036637Y0149902D01*
X0036726Y0149980D01*
X0036818Y0150055D01*
X0036912Y0150127D01*
X0037009Y0150196D01*
X0037108Y0150261D01*
X0037209Y0150323D01*
X0037312Y0150382D01*
X0037417Y0150437D01*
X0037524Y0150489D01*
X0037632Y0150537D01*
X0037742Y0150582D01*
X0037854Y0150623D01*
X0037966Y0150660D01*
X0038080Y0150693D01*
X0038195Y0150722D01*
X0038311Y0150748D01*
X0038428Y0150770D01*
X0038545Y0150787D01*
X0038663Y0150801D01*
X0038781Y0150811D01*
X0038899Y0150817D01*
X0039018Y0150819D01*
X0039137Y0150817D01*
X0039255Y0150811D01*
X0039373Y0150801D01*
X0039491Y0150787D01*
X0039608Y0150770D01*
X0039725Y0150748D01*
X0039841Y0150722D01*
X0039956Y0150693D01*
X0040070Y0150660D01*
X0040182Y0150623D01*
X0040294Y0150582D01*
X0040404Y0150537D01*
X0040512Y0150489D01*
X0040619Y0150437D01*
X0040724Y0150382D01*
X0040827Y0150323D01*
X0040928Y0150261D01*
X0041027Y0150196D01*
X0041124Y0150127D01*
X0041218Y0150055D01*
X0041310Y0149980D01*
X0041399Y0149902D01*
X0041486Y0149821D01*
X0041570Y0149737D01*
X0041651Y0149650D01*
X0041729Y0149561D01*
X0041804Y0149469D01*
X0041876Y0149375D01*
X0041945Y0149278D01*
X0042010Y0149179D01*
X0042072Y0149078D01*
X0042131Y0148975D01*
X0042186Y0148870D01*
X0042238Y0148763D01*
X0042286Y0148655D01*
X0042331Y0148545D01*
X0042372Y0148433D01*
X0042409Y0148321D01*
X0042442Y0148207D01*
X0042471Y0148092D01*
X0042497Y0147976D01*
X0042519Y0147859D01*
X0042536Y0147742D01*
X0042550Y0147624D01*
X0042560Y0147506D01*
X0042566Y0147388D01*
X0042568Y0147269D01*
X0042566Y0147150D01*
X0042560Y0147032D01*
X0042550Y0146914D01*
X0042536Y0146796D01*
X0042519Y0146679D01*
X0042497Y0146562D01*
X0042471Y0146446D01*
X0042442Y0146331D01*
X0042409Y0146217D01*
X0042372Y0146105D01*
X0042331Y0145993D01*
X0042286Y0145883D01*
X0042238Y0145775D01*
X0042186Y0145668D01*
X0042131Y0145563D01*
X0042072Y0145460D01*
X0042010Y0145359D01*
X0041945Y0145260D01*
X0041876Y0145163D01*
X0041804Y0145069D01*
X0041729Y0144977D01*
X0041651Y0144888D01*
X0041570Y0144801D01*
X0041486Y0144717D01*
X0041399Y0144636D01*
X0041310Y0144558D01*
X0041218Y0144483D01*
X0041124Y0144411D01*
X0041027Y0144342D01*
X0040928Y0144277D01*
X0040827Y0144215D01*
X0040724Y0144156D01*
X0040619Y0144101D01*
X0040512Y0144049D01*
X0040404Y0144001D01*
X0040294Y0143956D01*
X0040182Y0143915D01*
X0040070Y0143878D01*
X0039956Y0143845D01*
X0039841Y0143816D01*
X0039725Y0143790D01*
X0039608Y0143768D01*
X0039491Y0143751D01*
X0039373Y0143737D01*
X0039255Y0143727D01*
X0039137Y0143721D01*
X0039018Y0143719D01*
X0038899Y0143721D01*
X0038781Y0143727D01*
X0038663Y0143737D01*
X0038545Y0143751D01*
X0038428Y0143768D01*
X0038311Y0143790D01*
X0038195Y0143816D01*
X0038080Y0143845D01*
X0037966Y0143878D01*
X0037854Y0143915D01*
X0037742Y0143956D01*
X0037632Y0144001D01*
X0037524Y0144049D01*
X0037417Y0144101D01*
X0037312Y0144156D01*
X0037209Y0144215D01*
X0037108Y0144277D01*
X0037009Y0144342D01*
X0036912Y0144411D01*
X0036818Y0144483D01*
X0036726Y0144558D01*
X0036637Y0144636D01*
X0036550Y0144717D01*
X0036466Y0144801D01*
X0036385Y0144888D01*
X0036307Y0144977D01*
X0036232Y0145069D01*
X0036160Y0145163D01*
X0036091Y0145260D01*
X0036026Y0145359D01*
X0035964Y0145460D01*
X0035905Y0145563D01*
X0035850Y0145668D01*
X0035798Y0145775D01*
X0035750Y0145883D01*
X0035705Y0145993D01*
X0035664Y0146105D01*
X0035627Y0146217D01*
X0035594Y0146331D01*
X0035565Y0146446D01*
X0035539Y0146562D01*
X0035517Y0146679D01*
X0035500Y0146796D01*
X0035486Y0146914D01*
X0035476Y0147032D01*
X0035470Y0147150D01*
X0035468Y0147269D01*
X0097801Y0169474D02*
X0097803Y0169599D01*
X0097809Y0169724D01*
X0097819Y0169848D01*
X0097833Y0169972D01*
X0097850Y0170096D01*
X0097872Y0170219D01*
X0097898Y0170341D01*
X0097927Y0170463D01*
X0097960Y0170583D01*
X0097998Y0170702D01*
X0098038Y0170821D01*
X0098083Y0170937D01*
X0098131Y0171052D01*
X0098183Y0171166D01*
X0098239Y0171278D01*
X0098298Y0171388D01*
X0098360Y0171496D01*
X0098426Y0171603D01*
X0098495Y0171707D01*
X0098568Y0171808D01*
X0098643Y0171908D01*
X0098722Y0172005D01*
X0098804Y0172099D01*
X0098889Y0172191D01*
X0098976Y0172280D01*
X0099067Y0172366D01*
X0099160Y0172449D01*
X0099256Y0172530D01*
X0099354Y0172607D01*
X0099454Y0172681D01*
X0099557Y0172752D01*
X0099662Y0172819D01*
X0099770Y0172884D01*
X0099879Y0172944D01*
X0099990Y0173002D01*
X0100103Y0173055D01*
X0100217Y0173105D01*
X0100333Y0173152D01*
X0100450Y0173194D01*
X0100569Y0173233D01*
X0100689Y0173269D01*
X0100810Y0173300D01*
X0100932Y0173328D01*
X0101054Y0173351D01*
X0101178Y0173371D01*
X0101302Y0173387D01*
X0101426Y0173399D01*
X0101551Y0173407D01*
X0101676Y0173411D01*
X0101800Y0173411D01*
X0101925Y0173407D01*
X0102050Y0173399D01*
X0102174Y0173387D01*
X0102298Y0173371D01*
X0102422Y0173351D01*
X0102544Y0173328D01*
X0102666Y0173300D01*
X0102787Y0173269D01*
X0102907Y0173233D01*
X0103026Y0173194D01*
X0103143Y0173152D01*
X0103259Y0173105D01*
X0103373Y0173055D01*
X0103486Y0173002D01*
X0103597Y0172944D01*
X0103707Y0172884D01*
X0103814Y0172819D01*
X0103919Y0172752D01*
X0104022Y0172681D01*
X0104122Y0172607D01*
X0104220Y0172530D01*
X0104316Y0172449D01*
X0104409Y0172366D01*
X0104500Y0172280D01*
X0104587Y0172191D01*
X0104672Y0172099D01*
X0104754Y0172005D01*
X0104833Y0171908D01*
X0104908Y0171808D01*
X0104981Y0171707D01*
X0105050Y0171603D01*
X0105116Y0171496D01*
X0105178Y0171388D01*
X0105237Y0171278D01*
X0105293Y0171166D01*
X0105345Y0171052D01*
X0105393Y0170937D01*
X0105438Y0170821D01*
X0105478Y0170702D01*
X0105516Y0170583D01*
X0105549Y0170463D01*
X0105578Y0170341D01*
X0105604Y0170219D01*
X0105626Y0170096D01*
X0105643Y0169972D01*
X0105657Y0169848D01*
X0105667Y0169724D01*
X0105673Y0169599D01*
X0105675Y0169474D01*
X0105673Y0169349D01*
X0105667Y0169224D01*
X0105657Y0169100D01*
X0105643Y0168976D01*
X0105626Y0168852D01*
X0105604Y0168729D01*
X0105578Y0168607D01*
X0105549Y0168485D01*
X0105516Y0168365D01*
X0105478Y0168246D01*
X0105438Y0168127D01*
X0105393Y0168011D01*
X0105345Y0167896D01*
X0105293Y0167782D01*
X0105237Y0167670D01*
X0105178Y0167560D01*
X0105116Y0167452D01*
X0105050Y0167345D01*
X0104981Y0167241D01*
X0104908Y0167140D01*
X0104833Y0167040D01*
X0104754Y0166943D01*
X0104672Y0166849D01*
X0104587Y0166757D01*
X0104500Y0166668D01*
X0104409Y0166582D01*
X0104316Y0166499D01*
X0104220Y0166418D01*
X0104122Y0166341D01*
X0104022Y0166267D01*
X0103919Y0166196D01*
X0103814Y0166129D01*
X0103706Y0166064D01*
X0103597Y0166004D01*
X0103486Y0165946D01*
X0103373Y0165893D01*
X0103259Y0165843D01*
X0103143Y0165796D01*
X0103026Y0165754D01*
X0102907Y0165715D01*
X0102787Y0165679D01*
X0102666Y0165648D01*
X0102544Y0165620D01*
X0102422Y0165597D01*
X0102298Y0165577D01*
X0102174Y0165561D01*
X0102050Y0165549D01*
X0101925Y0165541D01*
X0101800Y0165537D01*
X0101676Y0165537D01*
X0101551Y0165541D01*
X0101426Y0165549D01*
X0101302Y0165561D01*
X0101178Y0165577D01*
X0101054Y0165597D01*
X0100932Y0165620D01*
X0100810Y0165648D01*
X0100689Y0165679D01*
X0100569Y0165715D01*
X0100450Y0165754D01*
X0100333Y0165796D01*
X0100217Y0165843D01*
X0100103Y0165893D01*
X0099990Y0165946D01*
X0099879Y0166004D01*
X0099769Y0166064D01*
X0099662Y0166129D01*
X0099557Y0166196D01*
X0099454Y0166267D01*
X0099354Y0166341D01*
X0099256Y0166418D01*
X0099160Y0166499D01*
X0099067Y0166582D01*
X0098976Y0166668D01*
X0098889Y0166757D01*
X0098804Y0166849D01*
X0098722Y0166943D01*
X0098643Y0167040D01*
X0098568Y0167140D01*
X0098495Y0167241D01*
X0098426Y0167345D01*
X0098360Y0167452D01*
X0098298Y0167560D01*
X0098239Y0167670D01*
X0098183Y0167782D01*
X0098131Y0167896D01*
X0098083Y0168011D01*
X0098038Y0168127D01*
X0097998Y0168246D01*
X0097960Y0168365D01*
X0097927Y0168485D01*
X0097898Y0168607D01*
X0097872Y0168729D01*
X0097850Y0168852D01*
X0097833Y0168976D01*
X0097819Y0169100D01*
X0097809Y0169224D01*
X0097803Y0169349D01*
X0097801Y0169474D01*
X0097801Y0263962D02*
X0097803Y0264087D01*
X0097809Y0264212D01*
X0097819Y0264336D01*
X0097833Y0264460D01*
X0097850Y0264584D01*
X0097872Y0264707D01*
X0097898Y0264829D01*
X0097927Y0264951D01*
X0097960Y0265071D01*
X0097998Y0265190D01*
X0098038Y0265309D01*
X0098083Y0265425D01*
X0098131Y0265540D01*
X0098183Y0265654D01*
X0098239Y0265766D01*
X0098298Y0265876D01*
X0098360Y0265984D01*
X0098426Y0266091D01*
X0098495Y0266195D01*
X0098568Y0266296D01*
X0098643Y0266396D01*
X0098722Y0266493D01*
X0098804Y0266587D01*
X0098889Y0266679D01*
X0098976Y0266768D01*
X0099067Y0266854D01*
X0099160Y0266937D01*
X0099256Y0267018D01*
X0099354Y0267095D01*
X0099454Y0267169D01*
X0099557Y0267240D01*
X0099662Y0267307D01*
X0099770Y0267372D01*
X0099879Y0267432D01*
X0099990Y0267490D01*
X0100103Y0267543D01*
X0100217Y0267593D01*
X0100333Y0267640D01*
X0100450Y0267682D01*
X0100569Y0267721D01*
X0100689Y0267757D01*
X0100810Y0267788D01*
X0100932Y0267816D01*
X0101054Y0267839D01*
X0101178Y0267859D01*
X0101302Y0267875D01*
X0101426Y0267887D01*
X0101551Y0267895D01*
X0101676Y0267899D01*
X0101800Y0267899D01*
X0101925Y0267895D01*
X0102050Y0267887D01*
X0102174Y0267875D01*
X0102298Y0267859D01*
X0102422Y0267839D01*
X0102544Y0267816D01*
X0102666Y0267788D01*
X0102787Y0267757D01*
X0102907Y0267721D01*
X0103026Y0267682D01*
X0103143Y0267640D01*
X0103259Y0267593D01*
X0103373Y0267543D01*
X0103486Y0267490D01*
X0103597Y0267432D01*
X0103707Y0267372D01*
X0103814Y0267307D01*
X0103919Y0267240D01*
X0104022Y0267169D01*
X0104122Y0267095D01*
X0104220Y0267018D01*
X0104316Y0266937D01*
X0104409Y0266854D01*
X0104500Y0266768D01*
X0104587Y0266679D01*
X0104672Y0266587D01*
X0104754Y0266493D01*
X0104833Y0266396D01*
X0104908Y0266296D01*
X0104981Y0266195D01*
X0105050Y0266091D01*
X0105116Y0265984D01*
X0105178Y0265876D01*
X0105237Y0265766D01*
X0105293Y0265654D01*
X0105345Y0265540D01*
X0105393Y0265425D01*
X0105438Y0265309D01*
X0105478Y0265190D01*
X0105516Y0265071D01*
X0105549Y0264951D01*
X0105578Y0264829D01*
X0105604Y0264707D01*
X0105626Y0264584D01*
X0105643Y0264460D01*
X0105657Y0264336D01*
X0105667Y0264212D01*
X0105673Y0264087D01*
X0105675Y0263962D01*
X0105673Y0263837D01*
X0105667Y0263712D01*
X0105657Y0263588D01*
X0105643Y0263464D01*
X0105626Y0263340D01*
X0105604Y0263217D01*
X0105578Y0263095D01*
X0105549Y0262973D01*
X0105516Y0262853D01*
X0105478Y0262734D01*
X0105438Y0262615D01*
X0105393Y0262499D01*
X0105345Y0262384D01*
X0105293Y0262270D01*
X0105237Y0262158D01*
X0105178Y0262048D01*
X0105116Y0261940D01*
X0105050Y0261833D01*
X0104981Y0261729D01*
X0104908Y0261628D01*
X0104833Y0261528D01*
X0104754Y0261431D01*
X0104672Y0261337D01*
X0104587Y0261245D01*
X0104500Y0261156D01*
X0104409Y0261070D01*
X0104316Y0260987D01*
X0104220Y0260906D01*
X0104122Y0260829D01*
X0104022Y0260755D01*
X0103919Y0260684D01*
X0103814Y0260617D01*
X0103706Y0260552D01*
X0103597Y0260492D01*
X0103486Y0260434D01*
X0103373Y0260381D01*
X0103259Y0260331D01*
X0103143Y0260284D01*
X0103026Y0260242D01*
X0102907Y0260203D01*
X0102787Y0260167D01*
X0102666Y0260136D01*
X0102544Y0260108D01*
X0102422Y0260085D01*
X0102298Y0260065D01*
X0102174Y0260049D01*
X0102050Y0260037D01*
X0101925Y0260029D01*
X0101800Y0260025D01*
X0101676Y0260025D01*
X0101551Y0260029D01*
X0101426Y0260037D01*
X0101302Y0260049D01*
X0101178Y0260065D01*
X0101054Y0260085D01*
X0100932Y0260108D01*
X0100810Y0260136D01*
X0100689Y0260167D01*
X0100569Y0260203D01*
X0100450Y0260242D01*
X0100333Y0260284D01*
X0100217Y0260331D01*
X0100103Y0260381D01*
X0099990Y0260434D01*
X0099879Y0260492D01*
X0099769Y0260552D01*
X0099662Y0260617D01*
X0099557Y0260684D01*
X0099454Y0260755D01*
X0099354Y0260829D01*
X0099256Y0260906D01*
X0099160Y0260987D01*
X0099067Y0261070D01*
X0098976Y0261156D01*
X0098889Y0261245D01*
X0098804Y0261337D01*
X0098722Y0261431D01*
X0098643Y0261528D01*
X0098568Y0261628D01*
X0098495Y0261729D01*
X0098426Y0261833D01*
X0098360Y0261940D01*
X0098298Y0262048D01*
X0098239Y0262158D01*
X0098183Y0262270D01*
X0098131Y0262384D01*
X0098083Y0262499D01*
X0098038Y0262615D01*
X0097998Y0262734D01*
X0097960Y0262853D01*
X0097927Y0262973D01*
X0097898Y0263095D01*
X0097872Y0263217D01*
X0097850Y0263340D01*
X0097833Y0263464D01*
X0097819Y0263588D01*
X0097809Y0263712D01*
X0097803Y0263837D01*
X0097801Y0263962D01*
X0074041Y0351994D02*
X0074043Y0352152D01*
X0074049Y0352310D01*
X0074059Y0352468D01*
X0074073Y0352626D01*
X0074091Y0352783D01*
X0074112Y0352940D01*
X0074138Y0353096D01*
X0074168Y0353252D01*
X0074201Y0353407D01*
X0074239Y0353560D01*
X0074280Y0353713D01*
X0074325Y0353865D01*
X0074374Y0354016D01*
X0074427Y0354165D01*
X0074483Y0354313D01*
X0074543Y0354459D01*
X0074607Y0354604D01*
X0074675Y0354747D01*
X0074746Y0354889D01*
X0074820Y0355029D01*
X0074898Y0355166D01*
X0074980Y0355302D01*
X0075064Y0355436D01*
X0075153Y0355567D01*
X0075244Y0355696D01*
X0075339Y0355823D01*
X0075436Y0355948D01*
X0075537Y0356070D01*
X0075641Y0356189D01*
X0075748Y0356306D01*
X0075858Y0356420D01*
X0075971Y0356531D01*
X0076086Y0356640D01*
X0076204Y0356745D01*
X0076325Y0356847D01*
X0076448Y0356947D01*
X0076574Y0357043D01*
X0076702Y0357136D01*
X0076832Y0357226D01*
X0076965Y0357312D01*
X0077100Y0357396D01*
X0077236Y0357475D01*
X0077375Y0357552D01*
X0077516Y0357624D01*
X0077658Y0357694D01*
X0077802Y0357759D01*
X0077948Y0357821D01*
X0078095Y0357879D01*
X0078244Y0357934D01*
X0078394Y0357985D01*
X0078545Y0358032D01*
X0078697Y0358075D01*
X0078850Y0358114D01*
X0079005Y0358150D01*
X0079160Y0358181D01*
X0079316Y0358209D01*
X0079472Y0358233D01*
X0079629Y0358253D01*
X0079787Y0358269D01*
X0079944Y0358281D01*
X0080103Y0358289D01*
X0080261Y0358293D01*
X0080419Y0358293D01*
X0080577Y0358289D01*
X0080736Y0358281D01*
X0080893Y0358269D01*
X0081051Y0358253D01*
X0081208Y0358233D01*
X0081364Y0358209D01*
X0081520Y0358181D01*
X0081675Y0358150D01*
X0081830Y0358114D01*
X0081983Y0358075D01*
X0082135Y0358032D01*
X0082286Y0357985D01*
X0082436Y0357934D01*
X0082585Y0357879D01*
X0082732Y0357821D01*
X0082878Y0357759D01*
X0083022Y0357694D01*
X0083164Y0357624D01*
X0083305Y0357552D01*
X0083444Y0357475D01*
X0083580Y0357396D01*
X0083715Y0357312D01*
X0083848Y0357226D01*
X0083978Y0357136D01*
X0084106Y0357043D01*
X0084232Y0356947D01*
X0084355Y0356847D01*
X0084476Y0356745D01*
X0084594Y0356640D01*
X0084709Y0356531D01*
X0084822Y0356420D01*
X0084932Y0356306D01*
X0085039Y0356189D01*
X0085143Y0356070D01*
X0085244Y0355948D01*
X0085341Y0355823D01*
X0085436Y0355696D01*
X0085527Y0355567D01*
X0085616Y0355436D01*
X0085700Y0355302D01*
X0085782Y0355166D01*
X0085860Y0355029D01*
X0085934Y0354889D01*
X0086005Y0354747D01*
X0086073Y0354604D01*
X0086137Y0354459D01*
X0086197Y0354313D01*
X0086253Y0354165D01*
X0086306Y0354016D01*
X0086355Y0353865D01*
X0086400Y0353713D01*
X0086441Y0353560D01*
X0086479Y0353407D01*
X0086512Y0353252D01*
X0086542Y0353096D01*
X0086568Y0352940D01*
X0086589Y0352783D01*
X0086607Y0352626D01*
X0086621Y0352468D01*
X0086631Y0352310D01*
X0086637Y0352152D01*
X0086639Y0351994D01*
X0086637Y0351836D01*
X0086631Y0351678D01*
X0086621Y0351520D01*
X0086607Y0351362D01*
X0086589Y0351205D01*
X0086568Y0351048D01*
X0086542Y0350892D01*
X0086512Y0350736D01*
X0086479Y0350581D01*
X0086441Y0350428D01*
X0086400Y0350275D01*
X0086355Y0350123D01*
X0086306Y0349972D01*
X0086253Y0349823D01*
X0086197Y0349675D01*
X0086137Y0349529D01*
X0086073Y0349384D01*
X0086005Y0349241D01*
X0085934Y0349099D01*
X0085860Y0348959D01*
X0085782Y0348822D01*
X0085700Y0348686D01*
X0085616Y0348552D01*
X0085527Y0348421D01*
X0085436Y0348292D01*
X0085341Y0348165D01*
X0085244Y0348040D01*
X0085143Y0347918D01*
X0085039Y0347799D01*
X0084932Y0347682D01*
X0084822Y0347568D01*
X0084709Y0347457D01*
X0084594Y0347348D01*
X0084476Y0347243D01*
X0084355Y0347141D01*
X0084232Y0347041D01*
X0084106Y0346945D01*
X0083978Y0346852D01*
X0083848Y0346762D01*
X0083715Y0346676D01*
X0083580Y0346592D01*
X0083444Y0346513D01*
X0083305Y0346436D01*
X0083164Y0346364D01*
X0083022Y0346294D01*
X0082878Y0346229D01*
X0082732Y0346167D01*
X0082585Y0346109D01*
X0082436Y0346054D01*
X0082286Y0346003D01*
X0082135Y0345956D01*
X0081983Y0345913D01*
X0081830Y0345874D01*
X0081675Y0345838D01*
X0081520Y0345807D01*
X0081364Y0345779D01*
X0081208Y0345755D01*
X0081051Y0345735D01*
X0080893Y0345719D01*
X0080736Y0345707D01*
X0080577Y0345699D01*
X0080419Y0345695D01*
X0080261Y0345695D01*
X0080103Y0345699D01*
X0079944Y0345707D01*
X0079787Y0345719D01*
X0079629Y0345735D01*
X0079472Y0345755D01*
X0079316Y0345779D01*
X0079160Y0345807D01*
X0079005Y0345838D01*
X0078850Y0345874D01*
X0078697Y0345913D01*
X0078545Y0345956D01*
X0078394Y0346003D01*
X0078244Y0346054D01*
X0078095Y0346109D01*
X0077948Y0346167D01*
X0077802Y0346229D01*
X0077658Y0346294D01*
X0077516Y0346364D01*
X0077375Y0346436D01*
X0077236Y0346513D01*
X0077100Y0346592D01*
X0076965Y0346676D01*
X0076832Y0346762D01*
X0076702Y0346852D01*
X0076574Y0346945D01*
X0076448Y0347041D01*
X0076325Y0347141D01*
X0076204Y0347243D01*
X0076086Y0347348D01*
X0075971Y0347457D01*
X0075858Y0347568D01*
X0075748Y0347682D01*
X0075641Y0347799D01*
X0075537Y0347918D01*
X0075436Y0348040D01*
X0075339Y0348165D01*
X0075244Y0348292D01*
X0075153Y0348421D01*
X0075064Y0348552D01*
X0074980Y0348686D01*
X0074898Y0348822D01*
X0074820Y0348959D01*
X0074746Y0349099D01*
X0074675Y0349241D01*
X0074607Y0349384D01*
X0074543Y0349529D01*
X0074483Y0349675D01*
X0074427Y0349823D01*
X0074374Y0349972D01*
X0074325Y0350123D01*
X0074280Y0350275D01*
X0074239Y0350428D01*
X0074201Y0350581D01*
X0074168Y0350736D01*
X0074138Y0350892D01*
X0074112Y0351048D01*
X0074091Y0351205D01*
X0074073Y0351362D01*
X0074059Y0351520D01*
X0074049Y0351678D01*
X0074043Y0351836D01*
X0074041Y0351994D01*
X0192289Y0263962D02*
X0192291Y0264087D01*
X0192297Y0264212D01*
X0192307Y0264336D01*
X0192321Y0264460D01*
X0192338Y0264584D01*
X0192360Y0264707D01*
X0192386Y0264829D01*
X0192415Y0264951D01*
X0192448Y0265071D01*
X0192486Y0265190D01*
X0192526Y0265309D01*
X0192571Y0265425D01*
X0192619Y0265540D01*
X0192671Y0265654D01*
X0192727Y0265766D01*
X0192786Y0265876D01*
X0192848Y0265984D01*
X0192914Y0266091D01*
X0192983Y0266195D01*
X0193056Y0266296D01*
X0193131Y0266396D01*
X0193210Y0266493D01*
X0193292Y0266587D01*
X0193377Y0266679D01*
X0193464Y0266768D01*
X0193555Y0266854D01*
X0193648Y0266937D01*
X0193744Y0267018D01*
X0193842Y0267095D01*
X0193942Y0267169D01*
X0194045Y0267240D01*
X0194150Y0267307D01*
X0194258Y0267372D01*
X0194367Y0267432D01*
X0194478Y0267490D01*
X0194591Y0267543D01*
X0194705Y0267593D01*
X0194821Y0267640D01*
X0194938Y0267682D01*
X0195057Y0267721D01*
X0195177Y0267757D01*
X0195298Y0267788D01*
X0195420Y0267816D01*
X0195542Y0267839D01*
X0195666Y0267859D01*
X0195790Y0267875D01*
X0195914Y0267887D01*
X0196039Y0267895D01*
X0196164Y0267899D01*
X0196288Y0267899D01*
X0196413Y0267895D01*
X0196538Y0267887D01*
X0196662Y0267875D01*
X0196786Y0267859D01*
X0196910Y0267839D01*
X0197032Y0267816D01*
X0197154Y0267788D01*
X0197275Y0267757D01*
X0197395Y0267721D01*
X0197514Y0267682D01*
X0197631Y0267640D01*
X0197747Y0267593D01*
X0197861Y0267543D01*
X0197974Y0267490D01*
X0198085Y0267432D01*
X0198195Y0267372D01*
X0198302Y0267307D01*
X0198407Y0267240D01*
X0198510Y0267169D01*
X0198610Y0267095D01*
X0198708Y0267018D01*
X0198804Y0266937D01*
X0198897Y0266854D01*
X0198988Y0266768D01*
X0199075Y0266679D01*
X0199160Y0266587D01*
X0199242Y0266493D01*
X0199321Y0266396D01*
X0199396Y0266296D01*
X0199469Y0266195D01*
X0199538Y0266091D01*
X0199604Y0265984D01*
X0199666Y0265876D01*
X0199725Y0265766D01*
X0199781Y0265654D01*
X0199833Y0265540D01*
X0199881Y0265425D01*
X0199926Y0265309D01*
X0199966Y0265190D01*
X0200004Y0265071D01*
X0200037Y0264951D01*
X0200066Y0264829D01*
X0200092Y0264707D01*
X0200114Y0264584D01*
X0200131Y0264460D01*
X0200145Y0264336D01*
X0200155Y0264212D01*
X0200161Y0264087D01*
X0200163Y0263962D01*
X0200161Y0263837D01*
X0200155Y0263712D01*
X0200145Y0263588D01*
X0200131Y0263464D01*
X0200114Y0263340D01*
X0200092Y0263217D01*
X0200066Y0263095D01*
X0200037Y0262973D01*
X0200004Y0262853D01*
X0199966Y0262734D01*
X0199926Y0262615D01*
X0199881Y0262499D01*
X0199833Y0262384D01*
X0199781Y0262270D01*
X0199725Y0262158D01*
X0199666Y0262048D01*
X0199604Y0261940D01*
X0199538Y0261833D01*
X0199469Y0261729D01*
X0199396Y0261628D01*
X0199321Y0261528D01*
X0199242Y0261431D01*
X0199160Y0261337D01*
X0199075Y0261245D01*
X0198988Y0261156D01*
X0198897Y0261070D01*
X0198804Y0260987D01*
X0198708Y0260906D01*
X0198610Y0260829D01*
X0198510Y0260755D01*
X0198407Y0260684D01*
X0198302Y0260617D01*
X0198194Y0260552D01*
X0198085Y0260492D01*
X0197974Y0260434D01*
X0197861Y0260381D01*
X0197747Y0260331D01*
X0197631Y0260284D01*
X0197514Y0260242D01*
X0197395Y0260203D01*
X0197275Y0260167D01*
X0197154Y0260136D01*
X0197032Y0260108D01*
X0196910Y0260085D01*
X0196786Y0260065D01*
X0196662Y0260049D01*
X0196538Y0260037D01*
X0196413Y0260029D01*
X0196288Y0260025D01*
X0196164Y0260025D01*
X0196039Y0260029D01*
X0195914Y0260037D01*
X0195790Y0260049D01*
X0195666Y0260065D01*
X0195542Y0260085D01*
X0195420Y0260108D01*
X0195298Y0260136D01*
X0195177Y0260167D01*
X0195057Y0260203D01*
X0194938Y0260242D01*
X0194821Y0260284D01*
X0194705Y0260331D01*
X0194591Y0260381D01*
X0194478Y0260434D01*
X0194367Y0260492D01*
X0194257Y0260552D01*
X0194150Y0260617D01*
X0194045Y0260684D01*
X0193942Y0260755D01*
X0193842Y0260829D01*
X0193744Y0260906D01*
X0193648Y0260987D01*
X0193555Y0261070D01*
X0193464Y0261156D01*
X0193377Y0261245D01*
X0193292Y0261337D01*
X0193210Y0261431D01*
X0193131Y0261528D01*
X0193056Y0261628D01*
X0192983Y0261729D01*
X0192914Y0261833D01*
X0192848Y0261940D01*
X0192786Y0262048D01*
X0192727Y0262158D01*
X0192671Y0262270D01*
X0192619Y0262384D01*
X0192571Y0262499D01*
X0192526Y0262615D01*
X0192486Y0262734D01*
X0192448Y0262853D01*
X0192415Y0262973D01*
X0192386Y0263095D01*
X0192360Y0263217D01*
X0192338Y0263340D01*
X0192321Y0263464D01*
X0192307Y0263588D01*
X0192297Y0263712D01*
X0192291Y0263837D01*
X0192289Y0263962D01*
X0211836Y0351994D02*
X0211838Y0352152D01*
X0211844Y0352310D01*
X0211854Y0352468D01*
X0211868Y0352626D01*
X0211886Y0352783D01*
X0211907Y0352940D01*
X0211933Y0353096D01*
X0211963Y0353252D01*
X0211996Y0353407D01*
X0212034Y0353560D01*
X0212075Y0353713D01*
X0212120Y0353865D01*
X0212169Y0354016D01*
X0212222Y0354165D01*
X0212278Y0354313D01*
X0212338Y0354459D01*
X0212402Y0354604D01*
X0212470Y0354747D01*
X0212541Y0354889D01*
X0212615Y0355029D01*
X0212693Y0355166D01*
X0212775Y0355302D01*
X0212859Y0355436D01*
X0212948Y0355567D01*
X0213039Y0355696D01*
X0213134Y0355823D01*
X0213231Y0355948D01*
X0213332Y0356070D01*
X0213436Y0356189D01*
X0213543Y0356306D01*
X0213653Y0356420D01*
X0213766Y0356531D01*
X0213881Y0356640D01*
X0213999Y0356745D01*
X0214120Y0356847D01*
X0214243Y0356947D01*
X0214369Y0357043D01*
X0214497Y0357136D01*
X0214627Y0357226D01*
X0214760Y0357312D01*
X0214895Y0357396D01*
X0215031Y0357475D01*
X0215170Y0357552D01*
X0215311Y0357624D01*
X0215453Y0357694D01*
X0215597Y0357759D01*
X0215743Y0357821D01*
X0215890Y0357879D01*
X0216039Y0357934D01*
X0216189Y0357985D01*
X0216340Y0358032D01*
X0216492Y0358075D01*
X0216645Y0358114D01*
X0216800Y0358150D01*
X0216955Y0358181D01*
X0217111Y0358209D01*
X0217267Y0358233D01*
X0217424Y0358253D01*
X0217582Y0358269D01*
X0217739Y0358281D01*
X0217898Y0358289D01*
X0218056Y0358293D01*
X0218214Y0358293D01*
X0218372Y0358289D01*
X0218531Y0358281D01*
X0218688Y0358269D01*
X0218846Y0358253D01*
X0219003Y0358233D01*
X0219159Y0358209D01*
X0219315Y0358181D01*
X0219470Y0358150D01*
X0219625Y0358114D01*
X0219778Y0358075D01*
X0219930Y0358032D01*
X0220081Y0357985D01*
X0220231Y0357934D01*
X0220380Y0357879D01*
X0220527Y0357821D01*
X0220673Y0357759D01*
X0220817Y0357694D01*
X0220959Y0357624D01*
X0221100Y0357552D01*
X0221239Y0357475D01*
X0221375Y0357396D01*
X0221510Y0357312D01*
X0221643Y0357226D01*
X0221773Y0357136D01*
X0221901Y0357043D01*
X0222027Y0356947D01*
X0222150Y0356847D01*
X0222271Y0356745D01*
X0222389Y0356640D01*
X0222504Y0356531D01*
X0222617Y0356420D01*
X0222727Y0356306D01*
X0222834Y0356189D01*
X0222938Y0356070D01*
X0223039Y0355948D01*
X0223136Y0355823D01*
X0223231Y0355696D01*
X0223322Y0355567D01*
X0223411Y0355436D01*
X0223495Y0355302D01*
X0223577Y0355166D01*
X0223655Y0355029D01*
X0223729Y0354889D01*
X0223800Y0354747D01*
X0223868Y0354604D01*
X0223932Y0354459D01*
X0223992Y0354313D01*
X0224048Y0354165D01*
X0224101Y0354016D01*
X0224150Y0353865D01*
X0224195Y0353713D01*
X0224236Y0353560D01*
X0224274Y0353407D01*
X0224307Y0353252D01*
X0224337Y0353096D01*
X0224363Y0352940D01*
X0224384Y0352783D01*
X0224402Y0352626D01*
X0224416Y0352468D01*
X0224426Y0352310D01*
X0224432Y0352152D01*
X0224434Y0351994D01*
X0224432Y0351836D01*
X0224426Y0351678D01*
X0224416Y0351520D01*
X0224402Y0351362D01*
X0224384Y0351205D01*
X0224363Y0351048D01*
X0224337Y0350892D01*
X0224307Y0350736D01*
X0224274Y0350581D01*
X0224236Y0350428D01*
X0224195Y0350275D01*
X0224150Y0350123D01*
X0224101Y0349972D01*
X0224048Y0349823D01*
X0223992Y0349675D01*
X0223932Y0349529D01*
X0223868Y0349384D01*
X0223800Y0349241D01*
X0223729Y0349099D01*
X0223655Y0348959D01*
X0223577Y0348822D01*
X0223495Y0348686D01*
X0223411Y0348552D01*
X0223322Y0348421D01*
X0223231Y0348292D01*
X0223136Y0348165D01*
X0223039Y0348040D01*
X0222938Y0347918D01*
X0222834Y0347799D01*
X0222727Y0347682D01*
X0222617Y0347568D01*
X0222504Y0347457D01*
X0222389Y0347348D01*
X0222271Y0347243D01*
X0222150Y0347141D01*
X0222027Y0347041D01*
X0221901Y0346945D01*
X0221773Y0346852D01*
X0221643Y0346762D01*
X0221510Y0346676D01*
X0221375Y0346592D01*
X0221239Y0346513D01*
X0221100Y0346436D01*
X0220959Y0346364D01*
X0220817Y0346294D01*
X0220673Y0346229D01*
X0220527Y0346167D01*
X0220380Y0346109D01*
X0220231Y0346054D01*
X0220081Y0346003D01*
X0219930Y0345956D01*
X0219778Y0345913D01*
X0219625Y0345874D01*
X0219470Y0345838D01*
X0219315Y0345807D01*
X0219159Y0345779D01*
X0219003Y0345755D01*
X0218846Y0345735D01*
X0218688Y0345719D01*
X0218531Y0345707D01*
X0218372Y0345699D01*
X0218214Y0345695D01*
X0218056Y0345695D01*
X0217898Y0345699D01*
X0217739Y0345707D01*
X0217582Y0345719D01*
X0217424Y0345735D01*
X0217267Y0345755D01*
X0217111Y0345779D01*
X0216955Y0345807D01*
X0216800Y0345838D01*
X0216645Y0345874D01*
X0216492Y0345913D01*
X0216340Y0345956D01*
X0216189Y0346003D01*
X0216039Y0346054D01*
X0215890Y0346109D01*
X0215743Y0346167D01*
X0215597Y0346229D01*
X0215453Y0346294D01*
X0215311Y0346364D01*
X0215170Y0346436D01*
X0215031Y0346513D01*
X0214895Y0346592D01*
X0214760Y0346676D01*
X0214627Y0346762D01*
X0214497Y0346852D01*
X0214369Y0346945D01*
X0214243Y0347041D01*
X0214120Y0347141D01*
X0213999Y0347243D01*
X0213881Y0347348D01*
X0213766Y0347457D01*
X0213653Y0347568D01*
X0213543Y0347682D01*
X0213436Y0347799D01*
X0213332Y0347918D01*
X0213231Y0348040D01*
X0213134Y0348165D01*
X0213039Y0348292D01*
X0212948Y0348421D01*
X0212859Y0348552D01*
X0212775Y0348686D01*
X0212693Y0348822D01*
X0212615Y0348959D01*
X0212541Y0349099D01*
X0212470Y0349241D01*
X0212402Y0349384D01*
X0212338Y0349529D01*
X0212278Y0349675D01*
X0212222Y0349823D01*
X0212169Y0349972D01*
X0212120Y0350123D01*
X0212075Y0350275D01*
X0212034Y0350428D01*
X0211996Y0350581D01*
X0211963Y0350736D01*
X0211933Y0350892D01*
X0211907Y0351048D01*
X0211886Y0351205D01*
X0211868Y0351362D01*
X0211854Y0351520D01*
X0211844Y0351678D01*
X0211838Y0351836D01*
X0211836Y0351994D01*
X0192289Y0169474D02*
X0192291Y0169599D01*
X0192297Y0169724D01*
X0192307Y0169848D01*
X0192321Y0169972D01*
X0192338Y0170096D01*
X0192360Y0170219D01*
X0192386Y0170341D01*
X0192415Y0170463D01*
X0192448Y0170583D01*
X0192486Y0170702D01*
X0192526Y0170821D01*
X0192571Y0170937D01*
X0192619Y0171052D01*
X0192671Y0171166D01*
X0192727Y0171278D01*
X0192786Y0171388D01*
X0192848Y0171496D01*
X0192914Y0171603D01*
X0192983Y0171707D01*
X0193056Y0171808D01*
X0193131Y0171908D01*
X0193210Y0172005D01*
X0193292Y0172099D01*
X0193377Y0172191D01*
X0193464Y0172280D01*
X0193555Y0172366D01*
X0193648Y0172449D01*
X0193744Y0172530D01*
X0193842Y0172607D01*
X0193942Y0172681D01*
X0194045Y0172752D01*
X0194150Y0172819D01*
X0194258Y0172884D01*
X0194367Y0172944D01*
X0194478Y0173002D01*
X0194591Y0173055D01*
X0194705Y0173105D01*
X0194821Y0173152D01*
X0194938Y0173194D01*
X0195057Y0173233D01*
X0195177Y0173269D01*
X0195298Y0173300D01*
X0195420Y0173328D01*
X0195542Y0173351D01*
X0195666Y0173371D01*
X0195790Y0173387D01*
X0195914Y0173399D01*
X0196039Y0173407D01*
X0196164Y0173411D01*
X0196288Y0173411D01*
X0196413Y0173407D01*
X0196538Y0173399D01*
X0196662Y0173387D01*
X0196786Y0173371D01*
X0196910Y0173351D01*
X0197032Y0173328D01*
X0197154Y0173300D01*
X0197275Y0173269D01*
X0197395Y0173233D01*
X0197514Y0173194D01*
X0197631Y0173152D01*
X0197747Y0173105D01*
X0197861Y0173055D01*
X0197974Y0173002D01*
X0198085Y0172944D01*
X0198195Y0172884D01*
X0198302Y0172819D01*
X0198407Y0172752D01*
X0198510Y0172681D01*
X0198610Y0172607D01*
X0198708Y0172530D01*
X0198804Y0172449D01*
X0198897Y0172366D01*
X0198988Y0172280D01*
X0199075Y0172191D01*
X0199160Y0172099D01*
X0199242Y0172005D01*
X0199321Y0171908D01*
X0199396Y0171808D01*
X0199469Y0171707D01*
X0199538Y0171603D01*
X0199604Y0171496D01*
X0199666Y0171388D01*
X0199725Y0171278D01*
X0199781Y0171166D01*
X0199833Y0171052D01*
X0199881Y0170937D01*
X0199926Y0170821D01*
X0199966Y0170702D01*
X0200004Y0170583D01*
X0200037Y0170463D01*
X0200066Y0170341D01*
X0200092Y0170219D01*
X0200114Y0170096D01*
X0200131Y0169972D01*
X0200145Y0169848D01*
X0200155Y0169724D01*
X0200161Y0169599D01*
X0200163Y0169474D01*
X0200161Y0169349D01*
X0200155Y0169224D01*
X0200145Y0169100D01*
X0200131Y0168976D01*
X0200114Y0168852D01*
X0200092Y0168729D01*
X0200066Y0168607D01*
X0200037Y0168485D01*
X0200004Y0168365D01*
X0199966Y0168246D01*
X0199926Y0168127D01*
X0199881Y0168011D01*
X0199833Y0167896D01*
X0199781Y0167782D01*
X0199725Y0167670D01*
X0199666Y0167560D01*
X0199604Y0167452D01*
X0199538Y0167345D01*
X0199469Y0167241D01*
X0199396Y0167140D01*
X0199321Y0167040D01*
X0199242Y0166943D01*
X0199160Y0166849D01*
X0199075Y0166757D01*
X0198988Y0166668D01*
X0198897Y0166582D01*
X0198804Y0166499D01*
X0198708Y0166418D01*
X0198610Y0166341D01*
X0198510Y0166267D01*
X0198407Y0166196D01*
X0198302Y0166129D01*
X0198194Y0166064D01*
X0198085Y0166004D01*
X0197974Y0165946D01*
X0197861Y0165893D01*
X0197747Y0165843D01*
X0197631Y0165796D01*
X0197514Y0165754D01*
X0197395Y0165715D01*
X0197275Y0165679D01*
X0197154Y0165648D01*
X0197032Y0165620D01*
X0196910Y0165597D01*
X0196786Y0165577D01*
X0196662Y0165561D01*
X0196538Y0165549D01*
X0196413Y0165541D01*
X0196288Y0165537D01*
X0196164Y0165537D01*
X0196039Y0165541D01*
X0195914Y0165549D01*
X0195790Y0165561D01*
X0195666Y0165577D01*
X0195542Y0165597D01*
X0195420Y0165620D01*
X0195298Y0165648D01*
X0195177Y0165679D01*
X0195057Y0165715D01*
X0194938Y0165754D01*
X0194821Y0165796D01*
X0194705Y0165843D01*
X0194591Y0165893D01*
X0194478Y0165946D01*
X0194367Y0166004D01*
X0194257Y0166064D01*
X0194150Y0166129D01*
X0194045Y0166196D01*
X0193942Y0166267D01*
X0193842Y0166341D01*
X0193744Y0166418D01*
X0193648Y0166499D01*
X0193555Y0166582D01*
X0193464Y0166668D01*
X0193377Y0166757D01*
X0193292Y0166849D01*
X0193210Y0166943D01*
X0193131Y0167040D01*
X0193056Y0167140D01*
X0192983Y0167241D01*
X0192914Y0167345D01*
X0192848Y0167452D01*
X0192786Y0167560D01*
X0192727Y0167670D01*
X0192671Y0167782D01*
X0192619Y0167896D01*
X0192571Y0168011D01*
X0192526Y0168127D01*
X0192486Y0168246D01*
X0192448Y0168365D01*
X0192415Y0168485D01*
X0192386Y0168607D01*
X0192360Y0168729D01*
X0192338Y0168852D01*
X0192321Y0168976D01*
X0192307Y0169100D01*
X0192297Y0169224D01*
X0192291Y0169349D01*
X0192289Y0169474D01*
X0211836Y0017348D02*
X0211838Y0017506D01*
X0211844Y0017664D01*
X0211854Y0017822D01*
X0211868Y0017980D01*
X0211886Y0018137D01*
X0211907Y0018294D01*
X0211933Y0018450D01*
X0211963Y0018606D01*
X0211996Y0018761D01*
X0212034Y0018914D01*
X0212075Y0019067D01*
X0212120Y0019219D01*
X0212169Y0019370D01*
X0212222Y0019519D01*
X0212278Y0019667D01*
X0212338Y0019813D01*
X0212402Y0019958D01*
X0212470Y0020101D01*
X0212541Y0020243D01*
X0212615Y0020383D01*
X0212693Y0020520D01*
X0212775Y0020656D01*
X0212859Y0020790D01*
X0212948Y0020921D01*
X0213039Y0021050D01*
X0213134Y0021177D01*
X0213231Y0021302D01*
X0213332Y0021424D01*
X0213436Y0021543D01*
X0213543Y0021660D01*
X0213653Y0021774D01*
X0213766Y0021885D01*
X0213881Y0021994D01*
X0213999Y0022099D01*
X0214120Y0022201D01*
X0214243Y0022301D01*
X0214369Y0022397D01*
X0214497Y0022490D01*
X0214627Y0022580D01*
X0214760Y0022666D01*
X0214895Y0022750D01*
X0215031Y0022829D01*
X0215170Y0022906D01*
X0215311Y0022978D01*
X0215453Y0023048D01*
X0215597Y0023113D01*
X0215743Y0023175D01*
X0215890Y0023233D01*
X0216039Y0023288D01*
X0216189Y0023339D01*
X0216340Y0023386D01*
X0216492Y0023429D01*
X0216645Y0023468D01*
X0216800Y0023504D01*
X0216955Y0023535D01*
X0217111Y0023563D01*
X0217267Y0023587D01*
X0217424Y0023607D01*
X0217582Y0023623D01*
X0217739Y0023635D01*
X0217898Y0023643D01*
X0218056Y0023647D01*
X0218214Y0023647D01*
X0218372Y0023643D01*
X0218531Y0023635D01*
X0218688Y0023623D01*
X0218846Y0023607D01*
X0219003Y0023587D01*
X0219159Y0023563D01*
X0219315Y0023535D01*
X0219470Y0023504D01*
X0219625Y0023468D01*
X0219778Y0023429D01*
X0219930Y0023386D01*
X0220081Y0023339D01*
X0220231Y0023288D01*
X0220380Y0023233D01*
X0220527Y0023175D01*
X0220673Y0023113D01*
X0220817Y0023048D01*
X0220959Y0022978D01*
X0221100Y0022906D01*
X0221239Y0022829D01*
X0221375Y0022750D01*
X0221510Y0022666D01*
X0221643Y0022580D01*
X0221773Y0022490D01*
X0221901Y0022397D01*
X0222027Y0022301D01*
X0222150Y0022201D01*
X0222271Y0022099D01*
X0222389Y0021994D01*
X0222504Y0021885D01*
X0222617Y0021774D01*
X0222727Y0021660D01*
X0222834Y0021543D01*
X0222938Y0021424D01*
X0223039Y0021302D01*
X0223136Y0021177D01*
X0223231Y0021050D01*
X0223322Y0020921D01*
X0223411Y0020790D01*
X0223495Y0020656D01*
X0223577Y0020520D01*
X0223655Y0020383D01*
X0223729Y0020243D01*
X0223800Y0020101D01*
X0223868Y0019958D01*
X0223932Y0019813D01*
X0223992Y0019667D01*
X0224048Y0019519D01*
X0224101Y0019370D01*
X0224150Y0019219D01*
X0224195Y0019067D01*
X0224236Y0018914D01*
X0224274Y0018761D01*
X0224307Y0018606D01*
X0224337Y0018450D01*
X0224363Y0018294D01*
X0224384Y0018137D01*
X0224402Y0017980D01*
X0224416Y0017822D01*
X0224426Y0017664D01*
X0224432Y0017506D01*
X0224434Y0017348D01*
X0224432Y0017190D01*
X0224426Y0017032D01*
X0224416Y0016874D01*
X0224402Y0016716D01*
X0224384Y0016559D01*
X0224363Y0016402D01*
X0224337Y0016246D01*
X0224307Y0016090D01*
X0224274Y0015935D01*
X0224236Y0015782D01*
X0224195Y0015629D01*
X0224150Y0015477D01*
X0224101Y0015326D01*
X0224048Y0015177D01*
X0223992Y0015029D01*
X0223932Y0014883D01*
X0223868Y0014738D01*
X0223800Y0014595D01*
X0223729Y0014453D01*
X0223655Y0014313D01*
X0223577Y0014176D01*
X0223495Y0014040D01*
X0223411Y0013906D01*
X0223322Y0013775D01*
X0223231Y0013646D01*
X0223136Y0013519D01*
X0223039Y0013394D01*
X0222938Y0013272D01*
X0222834Y0013153D01*
X0222727Y0013036D01*
X0222617Y0012922D01*
X0222504Y0012811D01*
X0222389Y0012702D01*
X0222271Y0012597D01*
X0222150Y0012495D01*
X0222027Y0012395D01*
X0221901Y0012299D01*
X0221773Y0012206D01*
X0221643Y0012116D01*
X0221510Y0012030D01*
X0221375Y0011946D01*
X0221239Y0011867D01*
X0221100Y0011790D01*
X0220959Y0011718D01*
X0220817Y0011648D01*
X0220673Y0011583D01*
X0220527Y0011521D01*
X0220380Y0011463D01*
X0220231Y0011408D01*
X0220081Y0011357D01*
X0219930Y0011310D01*
X0219778Y0011267D01*
X0219625Y0011228D01*
X0219470Y0011192D01*
X0219315Y0011161D01*
X0219159Y0011133D01*
X0219003Y0011109D01*
X0218846Y0011089D01*
X0218688Y0011073D01*
X0218531Y0011061D01*
X0218372Y0011053D01*
X0218214Y0011049D01*
X0218056Y0011049D01*
X0217898Y0011053D01*
X0217739Y0011061D01*
X0217582Y0011073D01*
X0217424Y0011089D01*
X0217267Y0011109D01*
X0217111Y0011133D01*
X0216955Y0011161D01*
X0216800Y0011192D01*
X0216645Y0011228D01*
X0216492Y0011267D01*
X0216340Y0011310D01*
X0216189Y0011357D01*
X0216039Y0011408D01*
X0215890Y0011463D01*
X0215743Y0011521D01*
X0215597Y0011583D01*
X0215453Y0011648D01*
X0215311Y0011718D01*
X0215170Y0011790D01*
X0215031Y0011867D01*
X0214895Y0011946D01*
X0214760Y0012030D01*
X0214627Y0012116D01*
X0214497Y0012206D01*
X0214369Y0012299D01*
X0214243Y0012395D01*
X0214120Y0012495D01*
X0213999Y0012597D01*
X0213881Y0012702D01*
X0213766Y0012811D01*
X0213653Y0012922D01*
X0213543Y0013036D01*
X0213436Y0013153D01*
X0213332Y0013272D01*
X0213231Y0013394D01*
X0213134Y0013519D01*
X0213039Y0013646D01*
X0212948Y0013775D01*
X0212859Y0013906D01*
X0212775Y0014040D01*
X0212693Y0014176D01*
X0212615Y0014313D01*
X0212541Y0014453D01*
X0212470Y0014595D01*
X0212402Y0014738D01*
X0212338Y0014883D01*
X0212278Y0015029D01*
X0212222Y0015177D01*
X0212169Y0015326D01*
X0212120Y0015477D01*
X0212075Y0015629D01*
X0212034Y0015782D01*
X0211996Y0015935D01*
X0211963Y0016090D01*
X0211933Y0016246D01*
X0211907Y0016402D01*
X0211886Y0016559D01*
X0211868Y0016716D01*
X0211854Y0016874D01*
X0211844Y0017032D01*
X0211838Y0017190D01*
X0211836Y0017348D01*
D11*
X0204100Y0161600D02*
X0093864Y0161600D01*
X0093864Y0271836D01*
X0204100Y0271836D01*
X0204100Y0161600D01*
X0074472Y0163770D02*
X0073721Y0163019D01*
X0074472Y0163770D02*
X0074472Y0165271D01*
X0073721Y0166022D01*
X0072971Y0166022D01*
X0069968Y0163019D01*
X0069968Y0166022D01*
X0042972Y0165771D02*
X0040720Y0163519D01*
X0040720Y0166522D01*
X0038468Y0165771D02*
X0042972Y0165771D01*
X0042221Y0130022D02*
X0041471Y0130022D01*
X0040720Y0129271D01*
X0039969Y0130022D01*
X0039219Y0130022D01*
X0038468Y0129271D01*
X0038468Y0127770D01*
X0039219Y0127019D01*
X0040720Y0128521D02*
X0040720Y0129271D01*
X0042221Y0130022D02*
X0042972Y0129271D01*
X0042972Y0127770D01*
X0042221Y0127019D01*
X0069968Y0127019D02*
X0069968Y0130022D01*
X0069968Y0128521D02*
X0074472Y0128521D01*
X0072971Y0127019D01*
X0072971Y0087282D02*
X0073721Y0087282D01*
X0074472Y0086531D01*
X0074472Y0085030D01*
X0073721Y0084279D01*
X0072971Y0087282D02*
X0069968Y0084279D01*
X0069968Y0087282D01*
X0042972Y0087031D02*
X0040720Y0084779D01*
X0040720Y0087782D01*
X0038468Y0087031D02*
X0042972Y0087031D01*
X0042221Y0051282D02*
X0041471Y0051282D01*
X0040720Y0050531D01*
X0039969Y0051282D01*
X0039219Y0051282D01*
X0038468Y0050531D01*
X0038468Y0049030D01*
X0039219Y0048279D01*
X0040720Y0049780D02*
X0040720Y0050531D01*
X0042221Y0051282D02*
X0042972Y0050531D01*
X0042972Y0049030D01*
X0042221Y0048279D01*
X0069968Y0048279D02*
X0069968Y0051282D01*
X0069968Y0049780D02*
X0074472Y0049780D01*
X0072971Y0048279D01*
D12*
X0071718Y0044529D02*
X0076718Y0044529D01*
X0080718Y0048529D01*
X0081718Y0049529D01*
X0081718Y0061529D01*
X0080718Y0061529D01*
X0080718Y0064529D01*
X0080718Y0072529D01*
X0080718Y0075529D01*
X0081718Y0075529D01*
X0081718Y0087529D01*
X0080718Y0088529D01*
X0080718Y0075529D01*
X0080718Y0072529D02*
X0082218Y0072529D01*
X0082218Y0064529D01*
X0080718Y0064529D01*
X0080718Y0061529D02*
X0080718Y0048529D01*
X0064218Y0061029D02*
X0049218Y0061029D01*
X0049218Y0076029D01*
X0064218Y0076029D01*
X0064218Y0061029D01*
X0042718Y0068529D02*
X0042722Y0068873D01*
X0042735Y0069216D01*
X0042756Y0069559D01*
X0042785Y0069901D01*
X0042823Y0070243D01*
X0042870Y0070583D01*
X0042924Y0070922D01*
X0042987Y0071260D01*
X0043058Y0071596D01*
X0043138Y0071931D01*
X0043225Y0072263D01*
X0043321Y0072593D01*
X0043425Y0072921D01*
X0043536Y0073245D01*
X0043656Y0073568D01*
X0043784Y0073887D01*
X0043919Y0074202D01*
X0044062Y0074515D01*
X0044213Y0074824D01*
X0044371Y0075129D01*
X0044537Y0075430D01*
X0044710Y0075726D01*
X0044890Y0076019D01*
X0045077Y0076307D01*
X0045272Y0076590D01*
X0045473Y0076869D01*
X0045681Y0077142D01*
X0045896Y0077411D01*
X0046117Y0077673D01*
X0046345Y0077931D01*
X0046579Y0078183D01*
X0046819Y0078428D01*
X0047064Y0078668D01*
X0047316Y0078902D01*
X0047574Y0079130D01*
X0047836Y0079351D01*
X0048105Y0079566D01*
X0048378Y0079774D01*
X0048657Y0079975D01*
X0048940Y0080170D01*
X0049228Y0080357D01*
X0049521Y0080537D01*
X0049817Y0080710D01*
X0050118Y0080876D01*
X0050423Y0081034D01*
X0050732Y0081185D01*
X0051045Y0081328D01*
X0051360Y0081463D01*
X0051679Y0081591D01*
X0052002Y0081711D01*
X0052326Y0081822D01*
X0052654Y0081926D01*
X0052984Y0082022D01*
X0053316Y0082109D01*
X0053651Y0082189D01*
X0053987Y0082260D01*
X0054325Y0082323D01*
X0054664Y0082377D01*
X0055004Y0082424D01*
X0055346Y0082462D01*
X0055688Y0082491D01*
X0056031Y0082512D01*
X0056374Y0082525D01*
X0056718Y0082529D01*
X0057062Y0082525D01*
X0057405Y0082512D01*
X0057748Y0082491D01*
X0058090Y0082462D01*
X0058432Y0082424D01*
X0058772Y0082377D01*
X0059111Y0082323D01*
X0059449Y0082260D01*
X0059785Y0082189D01*
X0060120Y0082109D01*
X0060452Y0082022D01*
X0060782Y0081926D01*
X0061110Y0081822D01*
X0061434Y0081711D01*
X0061757Y0081591D01*
X0062076Y0081463D01*
X0062391Y0081328D01*
X0062704Y0081185D01*
X0063013Y0081034D01*
X0063318Y0080876D01*
X0063619Y0080710D01*
X0063915Y0080537D01*
X0064208Y0080357D01*
X0064496Y0080170D01*
X0064779Y0079975D01*
X0065058Y0079774D01*
X0065331Y0079566D01*
X0065600Y0079351D01*
X0065862Y0079130D01*
X0066120Y0078902D01*
X0066372Y0078668D01*
X0066617Y0078428D01*
X0066857Y0078183D01*
X0067091Y0077931D01*
X0067319Y0077673D01*
X0067540Y0077411D01*
X0067755Y0077142D01*
X0067963Y0076869D01*
X0068164Y0076590D01*
X0068359Y0076307D01*
X0068546Y0076019D01*
X0068726Y0075726D01*
X0068899Y0075430D01*
X0069065Y0075129D01*
X0069223Y0074824D01*
X0069374Y0074515D01*
X0069517Y0074202D01*
X0069652Y0073887D01*
X0069780Y0073568D01*
X0069900Y0073245D01*
X0070011Y0072921D01*
X0070115Y0072593D01*
X0070211Y0072263D01*
X0070298Y0071931D01*
X0070378Y0071596D01*
X0070449Y0071260D01*
X0070512Y0070922D01*
X0070566Y0070583D01*
X0070613Y0070243D01*
X0070651Y0069901D01*
X0070680Y0069559D01*
X0070701Y0069216D01*
X0070714Y0068873D01*
X0070718Y0068529D01*
X0070714Y0068185D01*
X0070701Y0067842D01*
X0070680Y0067499D01*
X0070651Y0067157D01*
X0070613Y0066815D01*
X0070566Y0066475D01*
X0070512Y0066136D01*
X0070449Y0065798D01*
X0070378Y0065462D01*
X0070298Y0065127D01*
X0070211Y0064795D01*
X0070115Y0064465D01*
X0070011Y0064137D01*
X0069900Y0063813D01*
X0069780Y0063490D01*
X0069652Y0063171D01*
X0069517Y0062856D01*
X0069374Y0062543D01*
X0069223Y0062234D01*
X0069065Y0061929D01*
X0068899Y0061628D01*
X0068726Y0061332D01*
X0068546Y0061039D01*
X0068359Y0060751D01*
X0068164Y0060468D01*
X0067963Y0060189D01*
X0067755Y0059916D01*
X0067540Y0059647D01*
X0067319Y0059385D01*
X0067091Y0059127D01*
X0066857Y0058875D01*
X0066617Y0058630D01*
X0066372Y0058390D01*
X0066120Y0058156D01*
X0065862Y0057928D01*
X0065600Y0057707D01*
X0065331Y0057492D01*
X0065058Y0057284D01*
X0064779Y0057083D01*
X0064496Y0056888D01*
X0064208Y0056701D01*
X0063915Y0056521D01*
X0063619Y0056348D01*
X0063318Y0056182D01*
X0063013Y0056024D01*
X0062704Y0055873D01*
X0062391Y0055730D01*
X0062076Y0055595D01*
X0061757Y0055467D01*
X0061434Y0055347D01*
X0061110Y0055236D01*
X0060782Y0055132D01*
X0060452Y0055036D01*
X0060120Y0054949D01*
X0059785Y0054869D01*
X0059449Y0054798D01*
X0059111Y0054735D01*
X0058772Y0054681D01*
X0058432Y0054634D01*
X0058090Y0054596D01*
X0057748Y0054567D01*
X0057405Y0054546D01*
X0057062Y0054533D01*
X0056718Y0054529D01*
X0056374Y0054533D01*
X0056031Y0054546D01*
X0055688Y0054567D01*
X0055346Y0054596D01*
X0055004Y0054634D01*
X0054664Y0054681D01*
X0054325Y0054735D01*
X0053987Y0054798D01*
X0053651Y0054869D01*
X0053316Y0054949D01*
X0052984Y0055036D01*
X0052654Y0055132D01*
X0052326Y0055236D01*
X0052002Y0055347D01*
X0051679Y0055467D01*
X0051360Y0055595D01*
X0051045Y0055730D01*
X0050732Y0055873D01*
X0050423Y0056024D01*
X0050118Y0056182D01*
X0049817Y0056348D01*
X0049521Y0056521D01*
X0049228Y0056701D01*
X0048940Y0056888D01*
X0048657Y0057083D01*
X0048378Y0057284D01*
X0048105Y0057492D01*
X0047836Y0057707D01*
X0047574Y0057928D01*
X0047316Y0058156D01*
X0047064Y0058390D01*
X0046819Y0058630D01*
X0046579Y0058875D01*
X0046345Y0059127D01*
X0046117Y0059385D01*
X0045896Y0059647D01*
X0045681Y0059916D01*
X0045473Y0060189D01*
X0045272Y0060468D01*
X0045077Y0060751D01*
X0044890Y0061039D01*
X0044710Y0061332D01*
X0044537Y0061628D01*
X0044371Y0061929D01*
X0044213Y0062234D01*
X0044062Y0062543D01*
X0043919Y0062856D01*
X0043784Y0063171D01*
X0043656Y0063490D01*
X0043536Y0063813D01*
X0043425Y0064137D01*
X0043321Y0064465D01*
X0043225Y0064795D01*
X0043138Y0065127D01*
X0043058Y0065462D01*
X0042987Y0065798D01*
X0042924Y0066136D01*
X0042870Y0066475D01*
X0042823Y0066815D01*
X0042785Y0067157D01*
X0042756Y0067499D01*
X0042735Y0067842D01*
X0042722Y0068185D01*
X0042718Y0068529D01*
X0032718Y0064529D02*
X0032718Y0061529D01*
X0031718Y0061529D01*
X0031718Y0049529D01*
X0032718Y0048529D01*
X0032718Y0061529D01*
X0032718Y0064529D02*
X0032718Y0072529D01*
X0032718Y0075529D01*
X0032718Y0088529D01*
X0031718Y0087529D01*
X0031718Y0075529D01*
X0032718Y0075529D01*
X0032718Y0072529D02*
X0031218Y0072529D01*
X0031218Y0064529D01*
X0032718Y0064529D01*
X0032718Y0048529D02*
X0036718Y0044529D01*
X0041718Y0044529D01*
X0052218Y0044529D02*
X0061218Y0044529D01*
X0080718Y0088529D02*
X0076718Y0092529D01*
X0071718Y0092529D01*
X0061218Y0092529D02*
X0052218Y0092529D01*
X0041718Y0092529D02*
X0036718Y0092529D01*
X0032718Y0088529D01*
X0036718Y0123269D02*
X0032718Y0127269D01*
X0031718Y0128269D01*
X0031718Y0140269D01*
X0032718Y0140269D01*
X0032718Y0143269D01*
X0032718Y0151269D01*
X0032718Y0154269D01*
X0032718Y0167269D01*
X0031718Y0166269D01*
X0031718Y0154269D01*
X0032718Y0154269D01*
X0032718Y0151269D02*
X0031218Y0151269D01*
X0031218Y0143269D01*
X0032718Y0143269D01*
X0032718Y0140269D02*
X0032718Y0127269D01*
X0036718Y0123269D02*
X0041718Y0123269D01*
X0052218Y0123269D02*
X0061218Y0123269D01*
X0071718Y0123269D02*
X0076718Y0123269D01*
X0080718Y0127269D01*
X0081718Y0128269D01*
X0081718Y0140269D01*
X0080718Y0140269D01*
X0080718Y0143269D01*
X0080718Y0151269D01*
X0080718Y0154269D01*
X0081718Y0154269D01*
X0081718Y0166269D01*
X0080718Y0167269D01*
X0080718Y0154269D01*
X0080718Y0151269D02*
X0082218Y0151269D01*
X0082218Y0143269D01*
X0080718Y0143269D01*
X0080718Y0140269D02*
X0080718Y0127269D01*
X0064218Y0139769D02*
X0049218Y0139769D01*
X0049218Y0154769D01*
X0064218Y0154769D01*
X0064218Y0139769D01*
X0042718Y0147269D02*
X0042722Y0147613D01*
X0042735Y0147956D01*
X0042756Y0148299D01*
X0042785Y0148641D01*
X0042823Y0148983D01*
X0042870Y0149323D01*
X0042924Y0149662D01*
X0042987Y0150000D01*
X0043058Y0150336D01*
X0043138Y0150671D01*
X0043225Y0151003D01*
X0043321Y0151333D01*
X0043425Y0151661D01*
X0043536Y0151985D01*
X0043656Y0152308D01*
X0043784Y0152627D01*
X0043919Y0152942D01*
X0044062Y0153255D01*
X0044213Y0153564D01*
X0044371Y0153869D01*
X0044537Y0154170D01*
X0044710Y0154466D01*
X0044890Y0154759D01*
X0045077Y0155047D01*
X0045272Y0155330D01*
X0045473Y0155609D01*
X0045681Y0155882D01*
X0045896Y0156151D01*
X0046117Y0156413D01*
X0046345Y0156671D01*
X0046579Y0156923D01*
X0046819Y0157168D01*
X0047064Y0157408D01*
X0047316Y0157642D01*
X0047574Y0157870D01*
X0047836Y0158091D01*
X0048105Y0158306D01*
X0048378Y0158514D01*
X0048657Y0158715D01*
X0048940Y0158910D01*
X0049228Y0159097D01*
X0049521Y0159277D01*
X0049817Y0159450D01*
X0050118Y0159616D01*
X0050423Y0159774D01*
X0050732Y0159925D01*
X0051045Y0160068D01*
X0051360Y0160203D01*
X0051679Y0160331D01*
X0052002Y0160451D01*
X0052326Y0160562D01*
X0052654Y0160666D01*
X0052984Y0160762D01*
X0053316Y0160849D01*
X0053651Y0160929D01*
X0053987Y0161000D01*
X0054325Y0161063D01*
X0054664Y0161117D01*
X0055004Y0161164D01*
X0055346Y0161202D01*
X0055688Y0161231D01*
X0056031Y0161252D01*
X0056374Y0161265D01*
X0056718Y0161269D01*
X0057062Y0161265D01*
X0057405Y0161252D01*
X0057748Y0161231D01*
X0058090Y0161202D01*
X0058432Y0161164D01*
X0058772Y0161117D01*
X0059111Y0161063D01*
X0059449Y0161000D01*
X0059785Y0160929D01*
X0060120Y0160849D01*
X0060452Y0160762D01*
X0060782Y0160666D01*
X0061110Y0160562D01*
X0061434Y0160451D01*
X0061757Y0160331D01*
X0062076Y0160203D01*
X0062391Y0160068D01*
X0062704Y0159925D01*
X0063013Y0159774D01*
X0063318Y0159616D01*
X0063619Y0159450D01*
X0063915Y0159277D01*
X0064208Y0159097D01*
X0064496Y0158910D01*
X0064779Y0158715D01*
X0065058Y0158514D01*
X0065331Y0158306D01*
X0065600Y0158091D01*
X0065862Y0157870D01*
X0066120Y0157642D01*
X0066372Y0157408D01*
X0066617Y0157168D01*
X0066857Y0156923D01*
X0067091Y0156671D01*
X0067319Y0156413D01*
X0067540Y0156151D01*
X0067755Y0155882D01*
X0067963Y0155609D01*
X0068164Y0155330D01*
X0068359Y0155047D01*
X0068546Y0154759D01*
X0068726Y0154466D01*
X0068899Y0154170D01*
X0069065Y0153869D01*
X0069223Y0153564D01*
X0069374Y0153255D01*
X0069517Y0152942D01*
X0069652Y0152627D01*
X0069780Y0152308D01*
X0069900Y0151985D01*
X0070011Y0151661D01*
X0070115Y0151333D01*
X0070211Y0151003D01*
X0070298Y0150671D01*
X0070378Y0150336D01*
X0070449Y0150000D01*
X0070512Y0149662D01*
X0070566Y0149323D01*
X0070613Y0148983D01*
X0070651Y0148641D01*
X0070680Y0148299D01*
X0070701Y0147956D01*
X0070714Y0147613D01*
X0070718Y0147269D01*
X0070714Y0146925D01*
X0070701Y0146582D01*
X0070680Y0146239D01*
X0070651Y0145897D01*
X0070613Y0145555D01*
X0070566Y0145215D01*
X0070512Y0144876D01*
X0070449Y0144538D01*
X0070378Y0144202D01*
X0070298Y0143867D01*
X0070211Y0143535D01*
X0070115Y0143205D01*
X0070011Y0142877D01*
X0069900Y0142553D01*
X0069780Y0142230D01*
X0069652Y0141911D01*
X0069517Y0141596D01*
X0069374Y0141283D01*
X0069223Y0140974D01*
X0069065Y0140669D01*
X0068899Y0140368D01*
X0068726Y0140072D01*
X0068546Y0139779D01*
X0068359Y0139491D01*
X0068164Y0139208D01*
X0067963Y0138929D01*
X0067755Y0138656D01*
X0067540Y0138387D01*
X0067319Y0138125D01*
X0067091Y0137867D01*
X0066857Y0137615D01*
X0066617Y0137370D01*
X0066372Y0137130D01*
X0066120Y0136896D01*
X0065862Y0136668D01*
X0065600Y0136447D01*
X0065331Y0136232D01*
X0065058Y0136024D01*
X0064779Y0135823D01*
X0064496Y0135628D01*
X0064208Y0135441D01*
X0063915Y0135261D01*
X0063619Y0135088D01*
X0063318Y0134922D01*
X0063013Y0134764D01*
X0062704Y0134613D01*
X0062391Y0134470D01*
X0062076Y0134335D01*
X0061757Y0134207D01*
X0061434Y0134087D01*
X0061110Y0133976D01*
X0060782Y0133872D01*
X0060452Y0133776D01*
X0060120Y0133689D01*
X0059785Y0133609D01*
X0059449Y0133538D01*
X0059111Y0133475D01*
X0058772Y0133421D01*
X0058432Y0133374D01*
X0058090Y0133336D01*
X0057748Y0133307D01*
X0057405Y0133286D01*
X0057062Y0133273D01*
X0056718Y0133269D01*
X0056374Y0133273D01*
X0056031Y0133286D01*
X0055688Y0133307D01*
X0055346Y0133336D01*
X0055004Y0133374D01*
X0054664Y0133421D01*
X0054325Y0133475D01*
X0053987Y0133538D01*
X0053651Y0133609D01*
X0053316Y0133689D01*
X0052984Y0133776D01*
X0052654Y0133872D01*
X0052326Y0133976D01*
X0052002Y0134087D01*
X0051679Y0134207D01*
X0051360Y0134335D01*
X0051045Y0134470D01*
X0050732Y0134613D01*
X0050423Y0134764D01*
X0050118Y0134922D01*
X0049817Y0135088D01*
X0049521Y0135261D01*
X0049228Y0135441D01*
X0048940Y0135628D01*
X0048657Y0135823D01*
X0048378Y0136024D01*
X0048105Y0136232D01*
X0047836Y0136447D01*
X0047574Y0136668D01*
X0047316Y0136896D01*
X0047064Y0137130D01*
X0046819Y0137370D01*
X0046579Y0137615D01*
X0046345Y0137867D01*
X0046117Y0138125D01*
X0045896Y0138387D01*
X0045681Y0138656D01*
X0045473Y0138929D01*
X0045272Y0139208D01*
X0045077Y0139491D01*
X0044890Y0139779D01*
X0044710Y0140072D01*
X0044537Y0140368D01*
X0044371Y0140669D01*
X0044213Y0140974D01*
X0044062Y0141283D01*
X0043919Y0141596D01*
X0043784Y0141911D01*
X0043656Y0142230D01*
X0043536Y0142553D01*
X0043425Y0142877D01*
X0043321Y0143205D01*
X0043225Y0143535D01*
X0043138Y0143867D01*
X0043058Y0144202D01*
X0042987Y0144538D01*
X0042924Y0144876D01*
X0042870Y0145215D01*
X0042823Y0145555D01*
X0042785Y0145897D01*
X0042756Y0146239D01*
X0042735Y0146582D01*
X0042722Y0146925D01*
X0042718Y0147269D01*
X0032718Y0167269D02*
X0036718Y0171269D01*
X0041718Y0171269D01*
X0052218Y0171269D02*
X0061218Y0171269D01*
X0071718Y0171269D02*
X0076718Y0171269D01*
X0080718Y0167269D01*
D13*
X0063218Y0153769D02*
X0050218Y0153769D01*
X0050218Y0140769D01*
X0063218Y0140769D01*
X0063218Y0153769D01*
X0053718Y0147269D02*
X0053720Y0147378D01*
X0053726Y0147487D01*
X0053736Y0147595D01*
X0053750Y0147703D01*
X0053767Y0147811D01*
X0053789Y0147918D01*
X0053814Y0148024D01*
X0053844Y0148128D01*
X0053877Y0148232D01*
X0053914Y0148335D01*
X0053954Y0148436D01*
X0053998Y0148535D01*
X0054046Y0148633D01*
X0054098Y0148730D01*
X0054152Y0148824D01*
X0054210Y0148916D01*
X0054272Y0149006D01*
X0054337Y0149093D01*
X0054404Y0149179D01*
X0054475Y0149262D01*
X0054549Y0149342D01*
X0054626Y0149419D01*
X0054705Y0149494D01*
X0054787Y0149565D01*
X0054872Y0149634D01*
X0054959Y0149699D01*
X0055048Y0149762D01*
X0055140Y0149820D01*
X0055234Y0149876D01*
X0055329Y0149928D01*
X0055427Y0149977D01*
X0055526Y0150022D01*
X0055627Y0150064D01*
X0055729Y0150101D01*
X0055832Y0150135D01*
X0055937Y0150166D01*
X0056043Y0150192D01*
X0056149Y0150215D01*
X0056257Y0150233D01*
X0056365Y0150248D01*
X0056473Y0150259D01*
X0056582Y0150266D01*
X0056691Y0150269D01*
X0056800Y0150268D01*
X0056909Y0150263D01*
X0057017Y0150254D01*
X0057125Y0150241D01*
X0057233Y0150224D01*
X0057340Y0150204D01*
X0057446Y0150179D01*
X0057551Y0150151D01*
X0057655Y0150119D01*
X0057758Y0150083D01*
X0057860Y0150043D01*
X0057960Y0150000D01*
X0058058Y0149953D01*
X0058155Y0149903D01*
X0058249Y0149849D01*
X0058342Y0149791D01*
X0058433Y0149731D01*
X0058521Y0149667D01*
X0058607Y0149600D01*
X0058690Y0149530D01*
X0058771Y0149457D01*
X0058849Y0149381D01*
X0058924Y0149302D01*
X0058997Y0149220D01*
X0059066Y0149136D01*
X0059132Y0149050D01*
X0059195Y0148961D01*
X0059255Y0148870D01*
X0059312Y0148777D01*
X0059365Y0148682D01*
X0059414Y0148585D01*
X0059460Y0148486D01*
X0059502Y0148386D01*
X0059541Y0148284D01*
X0059576Y0148180D01*
X0059607Y0148076D01*
X0059635Y0147971D01*
X0059658Y0147864D01*
X0059678Y0147757D01*
X0059694Y0147649D01*
X0059706Y0147541D01*
X0059714Y0147432D01*
X0059718Y0147323D01*
X0059718Y0147215D01*
X0059714Y0147106D01*
X0059706Y0146997D01*
X0059694Y0146889D01*
X0059678Y0146781D01*
X0059658Y0146674D01*
X0059635Y0146567D01*
X0059607Y0146462D01*
X0059576Y0146358D01*
X0059541Y0146254D01*
X0059502Y0146152D01*
X0059460Y0146052D01*
X0059414Y0145953D01*
X0059365Y0145856D01*
X0059312Y0145761D01*
X0059255Y0145668D01*
X0059195Y0145577D01*
X0059132Y0145488D01*
X0059066Y0145402D01*
X0058997Y0145318D01*
X0058924Y0145236D01*
X0058849Y0145157D01*
X0058771Y0145081D01*
X0058690Y0145008D01*
X0058607Y0144938D01*
X0058521Y0144871D01*
X0058433Y0144807D01*
X0058342Y0144747D01*
X0058249Y0144689D01*
X0058155Y0144635D01*
X0058058Y0144585D01*
X0057960Y0144538D01*
X0057860Y0144495D01*
X0057758Y0144455D01*
X0057655Y0144419D01*
X0057551Y0144387D01*
X0057446Y0144359D01*
X0057340Y0144334D01*
X0057233Y0144314D01*
X0057125Y0144297D01*
X0057017Y0144284D01*
X0056909Y0144275D01*
X0056800Y0144270D01*
X0056691Y0144269D01*
X0056582Y0144272D01*
X0056473Y0144279D01*
X0056365Y0144290D01*
X0056257Y0144305D01*
X0056149Y0144323D01*
X0056043Y0144346D01*
X0055937Y0144372D01*
X0055832Y0144403D01*
X0055729Y0144437D01*
X0055627Y0144474D01*
X0055526Y0144516D01*
X0055427Y0144561D01*
X0055329Y0144610D01*
X0055234Y0144662D01*
X0055140Y0144718D01*
X0055048Y0144776D01*
X0054959Y0144839D01*
X0054872Y0144904D01*
X0054787Y0144973D01*
X0054705Y0145044D01*
X0054626Y0145119D01*
X0054549Y0145196D01*
X0054475Y0145276D01*
X0054404Y0145359D01*
X0054337Y0145445D01*
X0054272Y0145532D01*
X0054210Y0145622D01*
X0054152Y0145714D01*
X0054098Y0145808D01*
X0054046Y0145905D01*
X0053998Y0146003D01*
X0053954Y0146102D01*
X0053914Y0146203D01*
X0053877Y0146306D01*
X0053844Y0146410D01*
X0053814Y0146514D01*
X0053789Y0146620D01*
X0053767Y0146727D01*
X0053750Y0146835D01*
X0053736Y0146943D01*
X0053726Y0147051D01*
X0053720Y0147160D01*
X0053718Y0147269D01*
X0052718Y0147269D02*
X0052720Y0147395D01*
X0052726Y0147521D01*
X0052736Y0147647D01*
X0052750Y0147773D01*
X0052768Y0147898D01*
X0052790Y0148022D01*
X0052815Y0148146D01*
X0052845Y0148269D01*
X0052878Y0148390D01*
X0052916Y0148511D01*
X0052957Y0148630D01*
X0053002Y0148749D01*
X0053050Y0148865D01*
X0053102Y0148980D01*
X0053158Y0149093D01*
X0053218Y0149205D01*
X0053281Y0149314D01*
X0053347Y0149422D01*
X0053416Y0149527D01*
X0053489Y0149630D01*
X0053566Y0149731D01*
X0053645Y0149829D01*
X0053727Y0149925D01*
X0053813Y0150018D01*
X0053901Y0150109D01*
X0053992Y0150196D01*
X0054086Y0150281D01*
X0054182Y0150362D01*
X0054281Y0150441D01*
X0054382Y0150516D01*
X0054486Y0150588D01*
X0054592Y0150657D01*
X0054700Y0150723D01*
X0054810Y0150785D01*
X0054922Y0150843D01*
X0055035Y0150898D01*
X0055151Y0150949D01*
X0055268Y0150997D01*
X0055386Y0151041D01*
X0055506Y0151081D01*
X0055627Y0151117D01*
X0055749Y0151150D01*
X0055872Y0151179D01*
X0055996Y0151203D01*
X0056120Y0151224D01*
X0056245Y0151241D01*
X0056371Y0151254D01*
X0056497Y0151263D01*
X0056623Y0151268D01*
X0056750Y0151269D01*
X0056876Y0151266D01*
X0057002Y0151259D01*
X0057128Y0151248D01*
X0057253Y0151233D01*
X0057378Y0151214D01*
X0057502Y0151191D01*
X0057626Y0151165D01*
X0057748Y0151134D01*
X0057870Y0151100D01*
X0057990Y0151061D01*
X0058109Y0151019D01*
X0058227Y0150974D01*
X0058343Y0150924D01*
X0058458Y0150871D01*
X0058570Y0150814D01*
X0058681Y0150754D01*
X0058790Y0150690D01*
X0058897Y0150623D01*
X0059002Y0150553D01*
X0059105Y0150479D01*
X0059205Y0150402D01*
X0059303Y0150322D01*
X0059398Y0150239D01*
X0059490Y0150153D01*
X0059580Y0150064D01*
X0059667Y0149972D01*
X0059750Y0149878D01*
X0059831Y0149781D01*
X0059909Y0149681D01*
X0059984Y0149579D01*
X0060055Y0149475D01*
X0060123Y0149368D01*
X0060187Y0149260D01*
X0060248Y0149149D01*
X0060306Y0149037D01*
X0060360Y0148923D01*
X0060410Y0148807D01*
X0060457Y0148690D01*
X0060500Y0148571D01*
X0060539Y0148451D01*
X0060575Y0148330D01*
X0060606Y0148207D01*
X0060634Y0148084D01*
X0060658Y0147960D01*
X0060678Y0147835D01*
X0060694Y0147710D01*
X0060706Y0147584D01*
X0060714Y0147458D01*
X0060718Y0147332D01*
X0060718Y0147206D01*
X0060714Y0147080D01*
X0060706Y0146954D01*
X0060694Y0146828D01*
X0060678Y0146703D01*
X0060658Y0146578D01*
X0060634Y0146454D01*
X0060606Y0146331D01*
X0060575Y0146208D01*
X0060539Y0146087D01*
X0060500Y0145967D01*
X0060457Y0145848D01*
X0060410Y0145731D01*
X0060360Y0145615D01*
X0060306Y0145501D01*
X0060248Y0145389D01*
X0060187Y0145278D01*
X0060123Y0145170D01*
X0060055Y0145063D01*
X0059984Y0144959D01*
X0059909Y0144857D01*
X0059831Y0144757D01*
X0059750Y0144660D01*
X0059667Y0144566D01*
X0059580Y0144474D01*
X0059490Y0144385D01*
X0059398Y0144299D01*
X0059303Y0144216D01*
X0059205Y0144136D01*
X0059105Y0144059D01*
X0059002Y0143985D01*
X0058897Y0143915D01*
X0058790Y0143848D01*
X0058681Y0143784D01*
X0058570Y0143724D01*
X0058458Y0143667D01*
X0058343Y0143614D01*
X0058227Y0143564D01*
X0058109Y0143519D01*
X0057990Y0143477D01*
X0057870Y0143438D01*
X0057748Y0143404D01*
X0057626Y0143373D01*
X0057502Y0143347D01*
X0057378Y0143324D01*
X0057253Y0143305D01*
X0057128Y0143290D01*
X0057002Y0143279D01*
X0056876Y0143272D01*
X0056750Y0143269D01*
X0056623Y0143270D01*
X0056497Y0143275D01*
X0056371Y0143284D01*
X0056245Y0143297D01*
X0056120Y0143314D01*
X0055996Y0143335D01*
X0055872Y0143359D01*
X0055749Y0143388D01*
X0055627Y0143421D01*
X0055506Y0143457D01*
X0055386Y0143497D01*
X0055268Y0143541D01*
X0055151Y0143589D01*
X0055035Y0143640D01*
X0054922Y0143695D01*
X0054810Y0143753D01*
X0054700Y0143815D01*
X0054592Y0143881D01*
X0054486Y0143950D01*
X0054382Y0144022D01*
X0054281Y0144097D01*
X0054182Y0144176D01*
X0054086Y0144257D01*
X0053992Y0144342D01*
X0053901Y0144429D01*
X0053813Y0144520D01*
X0053727Y0144613D01*
X0053645Y0144709D01*
X0053566Y0144807D01*
X0053489Y0144908D01*
X0053416Y0145011D01*
X0053347Y0145116D01*
X0053281Y0145224D01*
X0053218Y0145333D01*
X0053158Y0145445D01*
X0053102Y0145558D01*
X0053050Y0145673D01*
X0053002Y0145789D01*
X0052957Y0145908D01*
X0052916Y0146027D01*
X0052878Y0146148D01*
X0052845Y0146269D01*
X0052815Y0146392D01*
X0052790Y0146516D01*
X0052768Y0146640D01*
X0052750Y0146765D01*
X0052736Y0146891D01*
X0052726Y0147017D01*
X0052720Y0147143D01*
X0052718Y0147269D01*
X0050218Y0075029D02*
X0050218Y0062029D01*
X0063218Y0062029D01*
X0063218Y0075029D01*
X0050218Y0075029D01*
X0053718Y0068529D02*
X0053720Y0068638D01*
X0053726Y0068747D01*
X0053736Y0068855D01*
X0053750Y0068963D01*
X0053767Y0069071D01*
X0053789Y0069178D01*
X0053814Y0069284D01*
X0053844Y0069388D01*
X0053877Y0069492D01*
X0053914Y0069595D01*
X0053954Y0069696D01*
X0053998Y0069795D01*
X0054046Y0069893D01*
X0054098Y0069990D01*
X0054152Y0070084D01*
X0054210Y0070176D01*
X0054272Y0070266D01*
X0054337Y0070353D01*
X0054404Y0070439D01*
X0054475Y0070522D01*
X0054549Y0070602D01*
X0054626Y0070679D01*
X0054705Y0070754D01*
X0054787Y0070825D01*
X0054872Y0070894D01*
X0054959Y0070959D01*
X0055048Y0071022D01*
X0055140Y0071080D01*
X0055234Y0071136D01*
X0055329Y0071188D01*
X0055427Y0071237D01*
X0055526Y0071282D01*
X0055627Y0071324D01*
X0055729Y0071361D01*
X0055832Y0071395D01*
X0055937Y0071426D01*
X0056043Y0071452D01*
X0056149Y0071475D01*
X0056257Y0071493D01*
X0056365Y0071508D01*
X0056473Y0071519D01*
X0056582Y0071526D01*
X0056691Y0071529D01*
X0056800Y0071528D01*
X0056909Y0071523D01*
X0057017Y0071514D01*
X0057125Y0071501D01*
X0057233Y0071484D01*
X0057340Y0071464D01*
X0057446Y0071439D01*
X0057551Y0071411D01*
X0057655Y0071379D01*
X0057758Y0071343D01*
X0057860Y0071303D01*
X0057960Y0071260D01*
X0058058Y0071213D01*
X0058155Y0071163D01*
X0058249Y0071109D01*
X0058342Y0071051D01*
X0058433Y0070991D01*
X0058521Y0070927D01*
X0058607Y0070860D01*
X0058690Y0070790D01*
X0058771Y0070717D01*
X0058849Y0070641D01*
X0058924Y0070562D01*
X0058997Y0070480D01*
X0059066Y0070396D01*
X0059132Y0070310D01*
X0059195Y0070221D01*
X0059255Y0070130D01*
X0059312Y0070037D01*
X0059365Y0069942D01*
X0059414Y0069845D01*
X0059460Y0069746D01*
X0059502Y0069646D01*
X0059541Y0069544D01*
X0059576Y0069440D01*
X0059607Y0069336D01*
X0059635Y0069231D01*
X0059658Y0069124D01*
X0059678Y0069017D01*
X0059694Y0068909D01*
X0059706Y0068801D01*
X0059714Y0068692D01*
X0059718Y0068583D01*
X0059718Y0068475D01*
X0059714Y0068366D01*
X0059706Y0068257D01*
X0059694Y0068149D01*
X0059678Y0068041D01*
X0059658Y0067934D01*
X0059635Y0067827D01*
X0059607Y0067722D01*
X0059576Y0067618D01*
X0059541Y0067514D01*
X0059502Y0067412D01*
X0059460Y0067312D01*
X0059414Y0067213D01*
X0059365Y0067116D01*
X0059312Y0067021D01*
X0059255Y0066928D01*
X0059195Y0066837D01*
X0059132Y0066748D01*
X0059066Y0066662D01*
X0058997Y0066578D01*
X0058924Y0066496D01*
X0058849Y0066417D01*
X0058771Y0066341D01*
X0058690Y0066268D01*
X0058607Y0066198D01*
X0058521Y0066131D01*
X0058433Y0066067D01*
X0058342Y0066007D01*
X0058249Y0065949D01*
X0058155Y0065895D01*
X0058058Y0065845D01*
X0057960Y0065798D01*
X0057860Y0065755D01*
X0057758Y0065715D01*
X0057655Y0065679D01*
X0057551Y0065647D01*
X0057446Y0065619D01*
X0057340Y0065594D01*
X0057233Y0065574D01*
X0057125Y0065557D01*
X0057017Y0065544D01*
X0056909Y0065535D01*
X0056800Y0065530D01*
X0056691Y0065529D01*
X0056582Y0065532D01*
X0056473Y0065539D01*
X0056365Y0065550D01*
X0056257Y0065565D01*
X0056149Y0065583D01*
X0056043Y0065606D01*
X0055937Y0065632D01*
X0055832Y0065663D01*
X0055729Y0065697D01*
X0055627Y0065734D01*
X0055526Y0065776D01*
X0055427Y0065821D01*
X0055329Y0065870D01*
X0055234Y0065922D01*
X0055140Y0065978D01*
X0055048Y0066036D01*
X0054959Y0066099D01*
X0054872Y0066164D01*
X0054787Y0066233D01*
X0054705Y0066304D01*
X0054626Y0066379D01*
X0054549Y0066456D01*
X0054475Y0066536D01*
X0054404Y0066619D01*
X0054337Y0066705D01*
X0054272Y0066792D01*
X0054210Y0066882D01*
X0054152Y0066974D01*
X0054098Y0067068D01*
X0054046Y0067165D01*
X0053998Y0067263D01*
X0053954Y0067362D01*
X0053914Y0067463D01*
X0053877Y0067566D01*
X0053844Y0067670D01*
X0053814Y0067774D01*
X0053789Y0067880D01*
X0053767Y0067987D01*
X0053750Y0068095D01*
X0053736Y0068203D01*
X0053726Y0068311D01*
X0053720Y0068420D01*
X0053718Y0068529D01*
X0052718Y0068529D02*
X0052720Y0068655D01*
X0052726Y0068781D01*
X0052736Y0068907D01*
X0052750Y0069033D01*
X0052768Y0069158D01*
X0052790Y0069282D01*
X0052815Y0069406D01*
X0052845Y0069529D01*
X0052878Y0069650D01*
X0052916Y0069771D01*
X0052957Y0069890D01*
X0053002Y0070009D01*
X0053050Y0070125D01*
X0053102Y0070240D01*
X0053158Y0070353D01*
X0053218Y0070465D01*
X0053281Y0070574D01*
X0053347Y0070682D01*
X0053416Y0070787D01*
X0053489Y0070890D01*
X0053566Y0070991D01*
X0053645Y0071089D01*
X0053727Y0071185D01*
X0053813Y0071278D01*
X0053901Y0071369D01*
X0053992Y0071456D01*
X0054086Y0071541D01*
X0054182Y0071622D01*
X0054281Y0071701D01*
X0054382Y0071776D01*
X0054486Y0071848D01*
X0054592Y0071917D01*
X0054700Y0071983D01*
X0054810Y0072045D01*
X0054922Y0072103D01*
X0055035Y0072158D01*
X0055151Y0072209D01*
X0055268Y0072257D01*
X0055386Y0072301D01*
X0055506Y0072341D01*
X0055627Y0072377D01*
X0055749Y0072410D01*
X0055872Y0072439D01*
X0055996Y0072463D01*
X0056120Y0072484D01*
X0056245Y0072501D01*
X0056371Y0072514D01*
X0056497Y0072523D01*
X0056623Y0072528D01*
X0056750Y0072529D01*
X0056876Y0072526D01*
X0057002Y0072519D01*
X0057128Y0072508D01*
X0057253Y0072493D01*
X0057378Y0072474D01*
X0057502Y0072451D01*
X0057626Y0072425D01*
X0057748Y0072394D01*
X0057870Y0072360D01*
X0057990Y0072321D01*
X0058109Y0072279D01*
X0058227Y0072234D01*
X0058343Y0072184D01*
X0058458Y0072131D01*
X0058570Y0072074D01*
X0058681Y0072014D01*
X0058790Y0071950D01*
X0058897Y0071883D01*
X0059002Y0071813D01*
X0059105Y0071739D01*
X0059205Y0071662D01*
X0059303Y0071582D01*
X0059398Y0071499D01*
X0059490Y0071413D01*
X0059580Y0071324D01*
X0059667Y0071232D01*
X0059750Y0071138D01*
X0059831Y0071041D01*
X0059909Y0070941D01*
X0059984Y0070839D01*
X0060055Y0070735D01*
X0060123Y0070628D01*
X0060187Y0070520D01*
X0060248Y0070409D01*
X0060306Y0070297D01*
X0060360Y0070183D01*
X0060410Y0070067D01*
X0060457Y0069950D01*
X0060500Y0069831D01*
X0060539Y0069711D01*
X0060575Y0069590D01*
X0060606Y0069467D01*
X0060634Y0069344D01*
X0060658Y0069220D01*
X0060678Y0069095D01*
X0060694Y0068970D01*
X0060706Y0068844D01*
X0060714Y0068718D01*
X0060718Y0068592D01*
X0060718Y0068466D01*
X0060714Y0068340D01*
X0060706Y0068214D01*
X0060694Y0068088D01*
X0060678Y0067963D01*
X0060658Y0067838D01*
X0060634Y0067714D01*
X0060606Y0067591D01*
X0060575Y0067468D01*
X0060539Y0067347D01*
X0060500Y0067227D01*
X0060457Y0067108D01*
X0060410Y0066991D01*
X0060360Y0066875D01*
X0060306Y0066761D01*
X0060248Y0066649D01*
X0060187Y0066538D01*
X0060123Y0066430D01*
X0060055Y0066323D01*
X0059984Y0066219D01*
X0059909Y0066117D01*
X0059831Y0066017D01*
X0059750Y0065920D01*
X0059667Y0065826D01*
X0059580Y0065734D01*
X0059490Y0065645D01*
X0059398Y0065559D01*
X0059303Y0065476D01*
X0059205Y0065396D01*
X0059105Y0065319D01*
X0059002Y0065245D01*
X0058897Y0065175D01*
X0058790Y0065108D01*
X0058681Y0065044D01*
X0058570Y0064984D01*
X0058458Y0064927D01*
X0058343Y0064874D01*
X0058227Y0064824D01*
X0058109Y0064779D01*
X0057990Y0064737D01*
X0057870Y0064698D01*
X0057748Y0064664D01*
X0057626Y0064633D01*
X0057502Y0064607D01*
X0057378Y0064584D01*
X0057253Y0064565D01*
X0057128Y0064550D01*
X0057002Y0064539D01*
X0056876Y0064532D01*
X0056750Y0064529D01*
X0056623Y0064530D01*
X0056497Y0064535D01*
X0056371Y0064544D01*
X0056245Y0064557D01*
X0056120Y0064574D01*
X0055996Y0064595D01*
X0055872Y0064619D01*
X0055749Y0064648D01*
X0055627Y0064681D01*
X0055506Y0064717D01*
X0055386Y0064757D01*
X0055268Y0064801D01*
X0055151Y0064849D01*
X0055035Y0064900D01*
X0054922Y0064955D01*
X0054810Y0065013D01*
X0054700Y0065075D01*
X0054592Y0065141D01*
X0054486Y0065210D01*
X0054382Y0065282D01*
X0054281Y0065357D01*
X0054182Y0065436D01*
X0054086Y0065517D01*
X0053992Y0065602D01*
X0053901Y0065689D01*
X0053813Y0065780D01*
X0053727Y0065873D01*
X0053645Y0065969D01*
X0053566Y0066067D01*
X0053489Y0066168D01*
X0053416Y0066271D01*
X0053347Y0066376D01*
X0053281Y0066484D01*
X0053218Y0066593D01*
X0053158Y0066705D01*
X0053102Y0066818D01*
X0053050Y0066933D01*
X0053002Y0067049D01*
X0052957Y0067168D01*
X0052916Y0067287D01*
X0052878Y0067408D01*
X0052845Y0067529D01*
X0052815Y0067652D01*
X0052790Y0067776D01*
X0052768Y0067900D01*
X0052750Y0068025D01*
X0052736Y0068151D01*
X0052726Y0068277D01*
X0052720Y0068403D01*
X0052718Y0068529D01*
D14*
X0032718Y0055279D03*
X0032718Y0081779D03*
X0032718Y0134019D03*
X0032718Y0160519D03*
X0080718Y0160519D03*
X0080718Y0134019D03*
X0080718Y0081779D03*
X0080718Y0055279D03*
M02*
